<?xml version="1.0" encoding="UTF-8" standalone="no"?>
<!-- Created with Inkscape (http://www.inkscape.org/) -->

<svg
   xmlns:dc="http://purl.org/dc/elements/1.1/"
   xmlns:cc="http://creativecommons.org/ns#"
   xmlns:rdf="http://www.w3.org/1999/02/22-rdf-syntax-ns#"
   xmlns:svg="http://www.w3.org/2000/svg"
   xmlns="http://www.w3.org/2000/svg"
   xmlns:sodipodi="http://sodipodi.sourceforge.net/DTD/sodipodi-0.dtd"
   xmlns:inkscape="http://www.inkscape.org/namespaces/inkscape"
   width="85.040962mm"
   height="85.040962mm"
   viewBox="0 0 301.32624 301.32624"
   id="svg4142"
   version="1.1"
   inkscape:version="0.91pre4 r13712"
   sodipodi:docname="pendent_more_rotating_circles.svg">
  <defs
     id="defs4144" />
  <sodipodi:namedview
     id="base"
     pagecolor="#ffffff"
     bordercolor="#666666"
     borderopacity="1.0"
     inkscape:pageopacity="0.0"
     inkscape:pageshadow="2"
     inkscape:zoom="1.4"
     inkscape:cx="98.756289"
     inkscape:cy="61.627984"
     inkscape:document-units="mm"
     inkscape:current-layer="g4297-5-9"
     showgrid="false"
     fit-margin-top="20"
     fit-margin-left="20"
     fit-margin-bottom="20"
     fit-margin-right="20"
     inkscape:window-width="1920"
     inkscape:window-height="1017"
     inkscape:window-x="1912"
     inkscape:window-y="-8"
     inkscape:window-maximized="1" />
  <metadata
     id="metadata4147">
    <rdf:RDF>
      <cc:Work
         rdf:about="">
        <dc:format>image/svg+xml</dc:format>
        <dc:type
           rdf:resource="http://purl.org/dc/dcmitype/StillImage" />
        <dc:title></dc:title>
      </cc:Work>
    </rdf:RDF>
  </metadata>
  <g
     inkscape:label="Layer 1"
     inkscape:groupmode="layer"
     id="layer1"
     transform="translate(-186.47974,-78.841945)">
    <g
       transform="translate(-183.61109,10.074567)"
       id="g4457-1-5">
      <path
         style="fill:none;stroke:#ff0000;stroke-opacity:1"
         d="m 600.05092,219.43049 c 0,43.79451 -35.50246,79.29698 -79.29697,79.29698 -43.79451,0 -79.29698,-35.50247 -79.29698,-79.29698 0,-43.79451 35.50247,-79.29697 79.29698,-79.29697 43.79451,0 79.29697,35.50246 79.29697,79.29697 z"
         id="path5426-4-9-3-9"
         inkscape:connector-curvature="0"
         sodipodi:nodetypes="sssss" />
      <g
         id="g4297-5-9"
         transform="translate(-1.2645807,5.0619241)">
        <g
           id="g5944"
           transform="matrix(0.49128789,0,0,0.49128789,-92.874278,776.00508)">
          <path
             id="path5940"
             d="m 1258.0938,-1286.5359 c 9.1074,0 17.9117,1.2636 26.25,3.6562 -8.5509,0.08 -16.8666,1.1799 -24.8126,3.1875 -5.7823,-2.3188 -11.8251,-4.1398 -18.0624,-5.4062 5.3994,-0.9533 10.952,-1.4375 16.625,-1.4375 z"
             style="overflow:hidden;fill:none;stroke:#000000;stroke-width:5"
             inkscape:connector-curvature="0" />
          <path
             id="path5938"
             d="m 1220.4688,-1277.1922 c 8.0287,0 15.8345,0.9999 23.2812,2.875 -8.1913,3.5373 -15.8276,8.0946 -22.7812,13.5 -5.9057,-1.0309 -11.9868,-1.5625 -18.1876,-1.5625 -2.8038,0 -5.5953,0.1281 -8.3437,0.3438 6.6689,-6.025 14.1942,-11.1087 22.375,-15.0625 1.2186,-0.046 2.4264,-0.094 3.6563,-0.094 z"
             style="overflow:hidden;fill:none;stroke:#000000;stroke-width:5"
             inkscape:connector-curvature="0" />
          <path
             id="path5936"
             d="m 1285.3438,-1272.8797 c 9.8722,0 19.392,1.518 28.3437,4.3125 10.7554,7.7748 19.8192,17.7395 26.5313,29.25 -11.5247,-4.7259 -24.0682,-7.4634 -37.2188,-7.7812 -7.884,-10.0103 -17.5615,-18.5627 -28.5312,-25.1563 3.5695,-0.4068 7.1965,-0.625 10.875,-0.625 z"
             style="overflow:hidden;fill:none;stroke:#000000;stroke-width:5"
             inkscape:connector-curvature="0" />
          <path
             id="path5934"
             d="m 1191.4062,-1272.6609 c -4.8494,3.9919 -9.3426,8.4313 -13.4062,13.2187 -8.1876,1.9805 -15.9999,4.9449 -23.3125,8.7188 1.9888,-1.9101 4.0387,-3.7361 6.1875,-5.4688 0.9065,-0.7124 1.8263,-1.4339 2.75,-2.125 0.7528,-0.563 1.5114,-1.1153 2.2812,-1.6562 0.4729,-0.3397 0.9604,-0.6659 1.4376,-1 7.3508,-4.9661 15.4427,-8.9209 24.0624,-11.6875 z"
             style="overflow:hidden;fill:none;stroke:#000000;stroke-width:5"
             inkscape:connector-curvature="0" />
          <path
             id="path5932"
             d="m 1258.8125,-1269.1297 c 11.9797,5.2915 22.6678,12.9817 31.4375,22.4688 -8.4648,0.8113 -16.6178,2.6744 -24.375,5.375 -9.5547,-7.1962 -20.3664,-12.824 -32.0625,-16.4375 7.6406,-4.9401 16.0615,-8.811 25,-11.4063 z"
             style="overflow:hidden;fill:none;stroke:#000000;stroke-width:5"
             inkscape:connector-curvature="0" />
          <path
             id="path5930"
             d="m 1342.8438,-1253.5047 c 3.4134,2.5993 6.6588,5.4089 9.6874,8.4375 0.1355,0.1344 0.2714,0.2714 0.4063,0.4063 6.961,7.0445 12.7826,15.19 17.2813,24.125 -4.6857,-4.1753 -9.7434,-7.9594 -15.125,-11.25 -3.2219,-7.756 -7.3533,-15.0333 -12.25,-21.7188 z"
             style="overflow:hidden;fill:none;stroke:#000000;stroke-width:5"
             inkscape:connector-curvature="0" />
          <path
             id="path5928"
             d="m 1202.7812,-1252.3797 c 2.7685,0 5.5104,0.143 8.2188,0.375 -8.4891,8.5141 -15.5387,18.4594 -20.7188,29.4688 -8.3804,1.273 -16.4247,3.5252 -24.0312,6.6562 3.3734,-12.763 9.325,-24.4693 17.2812,-34.5312 6.2141,-1.2783 12.6576,-1.9688 19.25,-1.9688 z"
             style="overflow:hidden;fill:none;stroke:#000000;stroke-width:5"
             inkscape:connector-curvature="0" />
          <path
             id="path5926"
             d="m 1223.5938,-1250.0672 c 11.3347,2.5324 21.906,7.0666 31.3124,13.25 -8.7519,4.2129 -16.8015,9.6369 -24,16 -7.9258,-1.9122 -16.2057,-2.9375 -24.7187,-2.9375 -1.3698,0 -2.7366,0.042 -4.0937,0.094 5.5379,-10.0489 12.8477,-18.9961 21.5,-26.4063 z"
             style="overflow:hidden;fill:none;stroke:#000000;stroke-width:5"
             inkscape:connector-curvature="0" />
          <path
             id="path5924"
             d="m 1168.25,-1245.9109 c -6.5261,10.7566 -11.1835,22.7607 -13.5,35.5937 -11.151,6.2782 -21.0375,14.554 -29.1875,24.3125 0.5422,-13.6788 3.9867,-26.6218 9.7187,-38.2187 9.2738,-9.3635 20.475,-16.8118 32.9688,-21.6875 z"
             style="overflow:hidden;fill:none;stroke:#000000;stroke-width:5"
             inkscape:connector-curvature="0" />
          <path
             id="path5922"
             d="m 1297.9688,-1237.0984 c 0.01,-3e-4 0.021,3e-4 0.031,0 4.4808,6.3167 8.2173,13.2025 11.0625,20.5312 -5.8371,-1.0062 -11.8442,-1.5312 -17.9687,-1.5312 -0.8749,0 -1.7553,0.01 -2.625,0.031 -4.001,-5.6389 -8.5525,-10.8549 -13.5626,-15.5937 7.3639,-2.0477 15.0948,-3.2356 23.0626,-3.4375 z"
             style="overflow:hidden;fill:none;stroke:#000000;stroke-width:5"
             inkscape:connector-curvature="0" />
          <path
             id="path5920"
             d="m 1310.2812,-1236.5984 c 13.2747,1.3706 25.7323,5.4537 36.8126,11.7187 3.1682,8.4512 5.1489,17.4778 5.7812,26.875 -9.648,-7.0323 -20.5371,-12.4751 -32.2812,-15.9062 -2.5411,-8.0281 -6.0227,-15.6232 -10.3126,-22.6875 z"
             style="overflow:hidden;fill:none;stroke:#000000;stroke-width:5"
             inkscape:connector-curvature="0" />
          <path
             id="path5918"
             d="m 1264.0938,-1229.9422 c 4.5789,3.8736 8.7877,8.18 12.5624,12.8438 -7.5042,1.0318 -14.745,2.8445 -21.6562,5.375 -4.0543,-2.1323 -8.2794,-4.0292 -12.625,-5.625 6.6037,-5.1024 13.8982,-9.3559 21.7188,-12.5938 z"
             style="overflow:hidden;fill:none;stroke:#000000;stroke-width:5"
             inkscape:connector-curvature="0" />
          <path
             id="path5916"
             d="m 1360.25,-1215.9422 c 7.0197,5.6983 13.1908,12.3916 18.3438,19.8438 1.1449,5.8957 1.75,11.9883 1.75,18.2187 0,2.9596 -0.1415,5.8908 -0.4063,8.7813 -4.7455,-7.5116 -10.4372,-14.3737 -16.875,-20.4375 0.012,-0.6636 0.031,-1.3334 0.031,-2 0,-8.3998 -0.9806,-16.5767 -2.8438,-24.4063 z"
             style="overflow:hidden;fill:none;stroke:#000000;stroke-width:5"
             inkscape:connector-curvature="0" />
          <path
             id="path5914"
             d="m 1206.1875,-1213.7547 c 5.5203,0 10.9251,0.4713 16.1875,1.375 -3.0991,3.4401 -5.9661,7.0773 -8.5938,10.9063 -7.5142,1.0171 -14.7654,2.8242 -21.6874,5.3437 1.1569,-5.9474 2.8831,-11.6926 5.0937,-17.1875 2.9616,-0.2782 5.9656,-0.4375 9,-0.4375 z"
             style="overflow:hidden;fill:none;stroke:#000000;stroke-width:5"
             inkscape:connector-curvature="0" />
          <path
             id="path5912"
             d="m 1185.875,-1211.5672 c -2.1785,6.4376 -3.7606,13.1644 -4.6562,20.0938 -6.2104,3.095 -12.0331,6.8172 -17.4688,11.0312 -0.4236,-3.6405 -0.6562,-7.3395 -0.6562,-11.0937 0,-4.1639 0.2617,-8.2588 0.7812,-12.2813 6.9019,-3.4393 14.2692,-6.0669 22,-7.75 z"
             style="overflow:hidden;fill:none;stroke:#000000;stroke-width:5"
             inkscape:connector-curvature="0" />
          <path
             id="path5910"
             d="m 1233.625,-1209.7234 c 3.169,0.9546 6.2613,2.0765 9.2812,3.3437 -2.5462,1.3176 -5.0182,2.7043 -7.4374,4.2188 -2.4639,-0.1729 -4.961,-0.2813 -7.4688,-0.2813 -0.3436,0 -0.6884,0 -1.0312,0 2.0895,-2.5414 4.3179,-4.9706 6.6562,-7.2812 z"
             style="overflow:hidden;fill:none;stroke:#000000;stroke-width:5"
             inkscape:connector-curvature="0" />
          <path
             id="path5908"
             d="m 1294.7812,-1208.0047 c 6.0703,0.2328 12.0237,1.0239 17.75,2.3438 1.4511,5.712 2.3869,11.6465 2.75,17.7187 -4.5122,-2.3592 -9.2256,-4.401 -14.0937,-6.0937 -1.8,-4.8294 -3.9457,-9.5057 -6.4063,-13.9688 z"
             style="overflow:hidden;fill:none;stroke:#000000;stroke-width:5"
             inkscape:connector-curvature="0" />
          <path
             id="path5906"
             d="m 1283.3125,-1207.7859 c 2.0676,3.2966 3.9362,6.7291 5.5937,10.2812 -5.133,-1.1058 -10.3992,-1.831 -15.7812,-2.1562 -2.1958,-1.8191 -4.4716,-3.5179 -6.8125,-5.1563 5.4884,-1.4792 11.166,-2.496 17,-2.9687 z"
             style="overflow:hidden;fill:none;stroke:#000000;stroke-width:5"
             inkscape:connector-curvature="0" />
          <path
             id="path5904"
             d="m 1323.5312,-1202.4109 c 10.8393,3.939 20.7545,9.7931 29.3438,17.1562 -0.5477,8.382 -2.1678,16.4759 -4.75,24.125 -6.494,-7.9677 -14.1215,-14.9757 -22.6562,-20.75 3e-4,-0.104 0,-0.2083 0,-0.3125 0,-6.9169 -0.661,-13.6753 -1.9376,-20.2187 z"
             style="overflow:hidden;fill:none;stroke:#000000;stroke-width:5"
             inkscape:connector-curvature="0" />
          <path
             id="path5902"
             d="m 1254.2812,-1200.6922 c 0.7361,0.4331 1.4644,0.8917 2.1876,1.3438 -0.744,0.072 -1.4794,0.1315 -2.2188,0.2187 -0.7461,-0.1919 -1.4976,-0.3866 -2.25,-0.5625 0.7528,-0.3403 1.5182,-0.6788 2.2812,-1 z"
             style="overflow:hidden;fill:none;stroke:#000000;stroke-width:5"
             inkscape:connector-curvature="0" />
          <path
             id="path5900"
             d="m 1153.2812,-1197.6609 c -0.1164,2.0256 -0.1874,4.0702 -0.1874,6.125 0,6.432 0.58,12.7311 1.6874,18.8437 -8.6041,8.3734 -15.7843,18.1962 -21.125,29.0938 -3.685,-8.277 -6.2523,-17.177 -7.4374,-26.5 7.0379,-10.9424 16.2711,-20.3136 27.0624,-27.5625 z"
             style="overflow:hidden;fill:none;stroke:#000000;stroke-width:5"
             inkscape:connector-curvature="0" />
          <path
             id="path5898"
             d="m 1116.5625,-1197.2547 c -0.7063,4.918 -1.0937,9.9492 -1.0937,15.0625 0,3.2936 0.1408,6.5652 0.4374,9.7813 -3.1855,5.3466 -5.8862,11.0007 -8.0937,16.9062 -0.012,-0.6277 -0.031,-1.2443 -0.031,-1.875 0,-9.6998 1.4548,-19.0601 4.1563,-27.875 0.039,-0.1264 0.085,-0.2486 0.125,-0.375 0.3133,-1.0074 0.6231,-2.0072 0.9687,-3 0.1599,-0.4723 0.3355,-0.9361 0.5,-1.4062 0.8992,-2.4558 1.9399,-4.8627 3.0313,-7.2188 z"
             style="overflow:hidden;fill:none;stroke:#000000;stroke-width:5"
             inkscape:connector-curvature="0" />
          <path
             id="path5896"
             d="m 1222.0938,-1192.2547 c -1.8047,1.5746 -3.5573,3.2135 -5.25,4.9063 0.8673,-1.5994 1.7639,-3.1764 2.7187,-4.7188 0.8369,-0.074 1.6882,-0.1357 2.5313,-0.1875 z"
             style="overflow:hidden;fill:none;stroke:#000000;stroke-width:5"
             inkscape:connector-curvature="0" />
          <path
             id="path5894"
             d="m 1207,-1190.0984 c -2.1575,4.1942 -4.0394,8.5637 -5.625,13.0625 -3.6978,2.9428 -7.2015,6.1244 -10.4688,9.5312 -0.37,-3.407 -0.5624,-6.8695 -0.5624,-10.375 0,-2.3226 0.086,-4.6253 0.25,-6.9062 5.2481,-2.2509 10.7214,-4.0304 16.4062,-5.3125 z"
             style="overflow:hidden;fill:none;stroke:#000000;stroke-width:5"
             inkscape:connector-curvature="0" />
          <path
             id="path5892"
             d="m 1253.5938,-1188.9422 c 10.5191,2.937 20.3242,7.6223 29.0312,13.75 6.3863,8.636 11.3203,18.4096 14.5,28.9375 -1.2818,10.9853 -4.4544,21.3938 -9.1562,30.9063 -7.5704,7.6436 -16.4232,14.0175 -26.2188,18.75 -1.2182,0.046 -2.4268,0.062 -3.6562,0.062 -9.8724,0 -19.3921,-1.5179 -28.3438,-4.3125 -8.7805,-6.3472 -16.4275,-14.1449 -22.5938,-23.0625 -1.1449,-5.8957 -1.75,-11.9883 -1.75,-18.2188 0,-4.7995 0.3444,-9.5167 1.0313,-14.125 4.2979,-8.4154 9.8111,-16.0805 16.3125,-22.8125 9.4579,-4.9438 19.8493,-8.3585 30.8438,-9.875 z"
             style="overflow:hidden;fill:none;stroke:#000000;stroke-width:5"
             inkscape:connector-curvature="0" />
          <path
             id="path5890"
             d="m 1285.0625,-1188.0672 c 2.8221,0.553 5.586,1.2344 8.3125,2.0313 0.8509,2.6927 1.576,5.4282 2.1875,8.2187 -1.9097,-1.6072 -3.8839,-3.1237 -5.9063,-4.5937 -1.4763,-1.9328 -2.9895,-3.8323 -4.5937,-5.6563 z"
             style="overflow:hidden;fill:none;stroke:#000000;stroke-width:5"
             inkscape:connector-curvature="0" />
          <path
             id="path5888"
             d="m 1304.9062,-1181.8172 c 3.5811,1.5761 7.0418,3.3548 10.375,5.3438 -0.3466,5.8277 -1.2118,11.5331 -2.5624,17.0312 -1.6911,-2.3067 -3.4431,-4.5606 -5.3126,-6.7187 -0.4419,-5.3459 -1.2871,-10.5676 -2.5,-15.6563 z"
             style="overflow:hidden;fill:none;stroke:#000000;stroke-width:5"
             inkscape:connector-curvature="0" />
          <path
             id="path5886"
             d="m 1180.375,-1179.6297 c -0.01,0.5811 -0.031,1.1668 -0.031,1.75 0,7.0169 0.6872,13.8685 2,20.5 -2.7459,3.6977 -5.2515,7.5764 -7.5,11.625 -4.0157,-7.2866 -7.0951,-15.143 -9.0938,-23.4375 4.5215,-3.9275 9.4146,-7.4114 14.625,-10.4375 z"
             style="overflow:hidden;fill:none;stroke:#000000;stroke-width:5"
             inkscape:connector-curvature="0" />
          <path
             id="path5884"
             d="m 1362,-1176.3172 c 6.098,6.8343 11.2225,14.5467 15.1562,22.9375 -2.4,9.0182 -6.0989,17.4974 -10.875,25.25 -2.7645,-8.2794 -6.4981,-16.0956 -11.125,-23.3125 3.2502,-7.8597 5.5835,-16.1903 6.8438,-24.875 z"
             style="overflow:hidden;fill:none;stroke:#000000;stroke-width:5"
             inkscape:connector-curvature="0" />
          <path
             id="path5882"
             d="m 1390.25,-1173.0984 c 3.047,8.8409 4.8007,18.2889 5.0938,28.0937 0,0.1463 0.027,0.2911 0.031,0.4375 0.013,0.8101 0.031,1.6243 0.031,2.4375 0,0.8198 -0.011,1.6227 -0.031,2.4375 0,0.1456 -0.028,0.2921 -0.031,0.4375 -0.09,3.0024 -0.2942,5.9802 -0.6563,8.9063 -1.3823,-8.3666 -3.7637,-16.3936 -7,-23.9688 1.3929,-6.0759 2.2746,-12.3538 2.5625,-18.7812 z"
             style="overflow:hidden;fill:none;stroke:#000000;stroke-width:5"
             inkscape:connector-curvature="0" />
          <path
             id="path5880"
             d="m 1324.7812,-1170.0359 c 7.2269,5.5922 13.614,12.2102 18.9688,19.625 -3.9777,8.2706 -9.128,15.8645 -15.2188,22.5937 -2.1681,-7.1845 -5.0808,-14.056 -8.6562,-20.5 2.3635,-6.9403 4.0411,-14.2105 4.9062,-21.7187 z"
             style="overflow:hidden;fill:none;stroke:#000000;stroke-width:5"
             inkscape:connector-curvature="0" />
          <path
             id="path5878"
             d="m 1157.5625,-1161.1609 c 2.8232,9.3553 6.8996,18.1657 12.0625,26.2187 -3.6303,8.7793 -6.1221,18.1489 -7.25,27.9375 -9.0259,-6.9843 -16.7592,-15.5689 -22.7812,-25.3125 4.2281,-10.7128 10.3699,-20.4483 17.9687,-28.8437 z"
             style="overflow:hidden;fill:none;stroke:#000000;stroke-width:5"
             inkscape:connector-curvature="0" />
          <path
             id="path5876"
             d="m 1196.625,-1158.9734 c -1.0248,2.1067 -1.9898,4.2548 -2.875,6.4375 -0.2243,-0.8122 -0.4219,-1.6168 -0.625,-2.4375 1.1228,-1.3722 2.3035,-2.6934 3.5,-4 z"
             style="overflow:hidden;fill:none;stroke:#000000;stroke-width:5"
             inkscape:connector-curvature="0" />
          <path
             id="path5874"
             d="m 1118.7812,-1155.9422 c 2.2375,8.6965 5.5561,16.9537 9.8126,24.625 -2.8107,8.2536 -4.6125,16.9664 -5.2813,26 -4.9292,-7.5103 -8.8143,-15.7737 -11.4687,-24.5625 1.0681,-9.1538 3.4566,-17.8933 6.9374,-26.0625 z"
             style="overflow:hidden;fill:none;stroke:#000000;stroke-width:5"
             inkscape:connector-curvature="0" />
          <path
             id="path5872"
             d="m 1307.4688,-1149.5047 c 0.4729,0.7207 0.9525,1.4534 1.4062,2.1875 -0.3109,0.7877 -0.6688,1.5353 -1,2.3125 -0.1886,-0.7329 -0.3586,-1.4608 -0.5625,-2.1875 0.074,-0.7678 0.099,-1.5399 0.1563,-2.3125 z"
             style="overflow:hidden;fill:none;stroke:#000000;stroke-width:5"
             inkscape:connector-curvature="0" />
          <path
             id="path5870"
             d="m 1185.75,-1144.5984 c 0.9006,2.6972 1.8914,5.3427 3,7.9375 -0.6288,2.7428 -1.1532,5.5236 -1.5625,8.3437 -2.1815,-2.4449 -4.2338,-4.9942 -6.1563,-7.6562 1.4271,-2.9672 3.0023,-5.8387 4.7188,-8.625 z"
             style="overflow:hidden;fill:none;stroke:#000000;stroke-width:5"
             inkscape:connector-curvature="0" />
          <path
             id="path5868"
             d="m 1349.9375,-1140.6297 c 3.9251,7.1222 6.9673,14.7865 8.9687,22.875 -7.2222,8.8262 -16.0204,16.303 -25.9374,22.0625 0.01,-0.581 0.031,-1.1667 0.031,-1.75 0,-6.4319 -0.58,-12.7311 -1.6875,-18.8437 7.333,-7.1363 13.6194,-15.3309 18.625,-24.3438 z"
             style="overflow:hidden;fill:none;stroke:#000000;stroke-width:5"
             inkscape:connector-curvature="0" />
          <path
             id="path5866"
             d="m 1382.6875,-1138.4422 c 2.2281,8.0687 3.4063,16.5664 3.4063,25.3438 0,4.7995 -0.3444,9.5167 -1.0313,14.125 -3.9474,7.7292 -8.9278,14.8311 -14.75,21.1562 0.9034,-5.5411 1.375,-11.2347 1.375,-17.0312 0,-7.0169 -0.6872,-13.8685 -2,-20.5 5.2501,-7.0698 9.643,-14.8158 13,-23.0938 z"
             style="overflow:hidden;fill:none;stroke:#000000;stroke-width:5"
             inkscape:connector-curvature="0" />
          <path
             id="path5864"
             d="m 1314.8125,-1136.0359 c 2.312,5.1928 4.1736,10.6157 5.5313,16.25 -2.9656,2.576 -6.0728,4.959 -9.3438,7.1562 0.1164,-2.0256 0.1875,-4.0702 0.1875,-6.125 0,-3.2935 -0.1408,-6.5651 -0.4375,-9.7812 1.456,-2.4438 2.8046,-4.9333 4.0625,-7.5 z"
             style="overflow:hidden;fill:none;stroke:#000000;stroke-width:5"
             inkscape:connector-curvature="0" />
          <path
             id="path5862"
             d="m 1176.6562,-1125.2547 c 2.9264,3.5906 6.0999,6.9832 9.4688,10.1563 -0.012,0.6636 -0.031,1.3334 -0.031,2 0,6.9169 0.6609,13.6754 1.9374,20.2187 -5.6571,-2.0558 -11.0586,-4.6456 -16.1562,-7.6875 0.5104,-8.5813 2.1417,-16.8686 4.7812,-24.6875 z"
             style="overflow:hidden;fill:none;stroke:#000000;stroke-width:5"
             inkscape:connector-curvature="0" />
          <path
             id="path5860"
             d="m 1196.5,-1121.8797 c 0.4081,0.6461 0.8283,1.3012 1.25,1.9375 0.1591,0.7395 0.3254,1.4852 0.5,2.2188 -0.6632,-0.5384 -1.2893,-1.1006 -1.9375,-1.6563 0.054,-0.8331 0.1117,-1.6728 0.1875,-2.5 z"
             style="overflow:hidden;fill:none;stroke:#000000;stroke-width:5"
             inkscape:connector-curvature="0" />
          <path
             id="path5858"
             d="m 1135.75,-1120.1922 c 7.1506,9.7544 15.9076,18.2456 25.9375,25.0313 -3e-4,0.1041 0,0.2084 0,0.3125 0,8.4129 1.0062,16.5967 2.875,24.4375 -11.9786,-5.2719 -22.6594,-12.9411 -31.4375,-22.4063 -0.074,-1.5373 -0.125,-3.0693 -0.125,-4.625 0,-7.8383 0.9601,-15.4638 2.75,-22.75 z"
             style="overflow:hidden;fill:none;stroke:#000000;stroke-width:5"
             inkscape:connector-curvature="0" />
          <path
             id="path5856"
             d="m 1301.0938,-1114.9422 c -0.1132,2.8538 -0.3281,5.6851 -0.6876,8.4688 -2.5346,1.263 -5.1241,2.4318 -7.7812,3.4687 1.302,-2.1459 2.5073,-4.3194 3.6562,-6.5625 1.6617,-1.7341 3.2719,-3.5302 4.8126,-5.375 z"
             style="overflow:hidden;fill:none;stroke:#000000;stroke-width:5"
             inkscape:connector-curvature="0" />
          <path
             id="path5854"
             d="m 1322.3438,-1108.5359 c 0.4235,3.6406 0.6562,7.3395 0.6562,11.0937 0,2.3227 -0.086,4.6254 -0.25,6.9063 -5.4592,2.3414 -11.1642,4.1778 -17.0938,5.4687 1.6311,-4.8198 2.9535,-9.8011 3.875,-14.9062 4.4954,-2.531 8.7587,-5.4197 12.8126,-8.5625 z"
             style="overflow:hidden;fill:none;stroke:#000000;stroke-width:5"
             inkscape:connector-curvature="0" />
          <path
             id="path5852"
             d="m 1196.3125,-1106.6297 c 2.2933,1.6716 4.6652,3.2651 7.0937,4.75 2.0456,4.9244 4.4475,9.6441 7.1876,14.1563 -3.9268,-0.4054 -7.7925,-1.0373 -11.5626,-1.9063 -1.3942,-5.4883 -2.3269,-11.1772 -2.7187,-17 z"
             style="overflow:hidden;fill:none;stroke:#000000;stroke-width:5"
             inkscape:connector-curvature="0" />
          <path
             id="path5850"
             d="m 1361.125,-1105.2234 c 0.37,3.4071 0.5625,6.8695 0.5625,10.375 0,10.0703 -1.5968,19.7672 -4.5,28.875 -10.4741,7.8213 -22.6019,13.5277 -35.7813,16.5 5.4244,-10.545 9.1363,-22.1313 10.7188,-34.375 10.8826,-5.4234 20.67,-12.6891 29,-21.375 z"
             style="overflow:hidden;fill:none;stroke:#000000;stroke-width:5"
             inkscape:connector-curvature="0" />
          <path
             id="path5848"
             d="m 1112.3125,-1104.0672 c 3.229,5.4659 6.9293,10.6349 11.0625,15.4063 0.6997,8.463 2.4123,16.6319 5,24.4062 -1.9708,-2.8089 -3.8058,-5.7292 -5.4688,-8.75 -0.055,-0.1018 -0.1011,-0.2104 -0.1562,-0.3125 -0.5072,-0.9293 -0.9921,-1.8646 -1.4688,-2.8125 -0.2455,-0.4793 -0.4784,-0.955 -0.7187,-1.4375 -3.9714,-8.2419 -6.7983,-17.1456 -8.25,-26.5 z"
             style="overflow:hidden;fill:none;stroke:#000000;stroke-width:5"
             inkscape:connector-curvature="0" />
          <path
             id="path5846"
             d="m 1298.0312,-1094.4109 c -1.0035,3.797 -2.2412,7.4987 -3.6874,11.0937 -2.9617,0.2783 -5.9656,0.4375 -9,0.4375 -2.7685,0 -5.5104,-0.1429 -8.2188,-0.375 1.9918,-1.9976 3.9234,-4.0667 5.75,-6.2187 5.2188,-1.2623 10.2745,-2.928 15.1562,-4.9375 z"
             style="overflow:hidden;fill:none;stroke:#000000;stroke-width:5"
             inkscape:connector-curvature="0" />
          <path
             id="path5844"
             d="m 1218.2812,-1094.3484 c 2.273,0.9321 4.588,1.7573 6.9376,2.5312 1.9906,1.3932 4.0365,2.7447 6.125,4 -2.7842,0.3174 -5.6169,0.5225 -8.4688,0.5938 -1.6306,-2.2987 -3.1687,-4.6812 -4.5938,-7.125 z"
             style="overflow:hidden;fill:none;stroke:#000000;stroke-width:5"
             inkscape:connector-curvature="0" />
          <path
             id="path5842"
             d="m 1171.875,-1089.0984 c 6.04,3.1581 12.4344,5.7732 19.0938,7.7187 2.0912,6.6072 4.8336,12.9365 8.125,18.9063 -7.9541,-0.305 -15.6641,-1.5748 -23,-3.7188 -2.304,-7.2911 -3.7443,-14.9725 -4.2188,-22.9062 z"
             style="overflow:hidden;fill:none;stroke:#000000;stroke-width:5"
             inkscape:connector-curvature="0" />
          <path
             id="path5840"
             d="m 1266.4375,-1086.8797 c -0.6261,0.5657 -1.2652,1.1385 -1.9063,1.6875 -0.8263,-0.1846 -1.6507,-0.3565 -2.4687,-0.5625 0.7144,-0.3085 1.4189,-0.6449 2.125,-0.9687 0.7488,-0.043 1.5055,-0.098 2.25,-0.1563 z"
             style="overflow:hidden;fill:none;stroke:#000000;stroke-width:5"
             inkscape:connector-curvature="0" />
          <path
             id="path5838"
             d="m 1246.2812,-1080.3797 c 2.6247,1.0526 5.3069,2.0021 8.0313,2.8438 -4.7867,3.0948 -9.8917,5.7633 -15.2187,7.9687 -2.9818,-2.5223 -5.8191,-5.2272 -8.4688,-8.0937 5.3471,-0.5125 10.5738,-1.4346 15.6562,-2.7188 z"
             style="overflow:hidden;fill:none;stroke:#000000;stroke-width:5"
             inkscape:connector-curvature="0" />
          <path
             id="path5836"
             d="m 1321.25,-1079.1922 c -2.223,11.4271 -6.4845,22.1217 -12.4062,31.6875 -2.779,0.2445 -5.5951,0.375 -8.4376,0.375 -5.5203,0 -10.9251,-0.4712 -16.1874,-1.375 6.8561,-7.6103 12.6191,-16.2165 17.0312,-25.5937 6.9168,-1.0506 13.5957,-2.7627 20,-5.0938 z"
             style="overflow:hidden;fill:none;stroke:#000000;stroke-width:5"
             inkscape:connector-curvature="0" />
          <path
             id="path5834"
             d="m 1202.5,-1078.7234 c 5.0133,0.8642 10.1453,1.3736 15.375,1.5 3.1851,4.0441 6.671,7.842 10.4062,11.375 -5.7113,1.5881 -11.6284,2.6627 -17.7187,3.1562 -3.1655,-5.047 -5.8786,-10.4058 -8.0625,-16.0312 z"
             style="overflow:hidden;fill:none;stroke:#000000;stroke-width:5"
             inkscape:connector-curvature="0" />
          <path
             id="path5832"
             d="m 1135.2188,-1077.0047 c 9.6865,8.1523 20.8567,14.5684 33.0624,18.8125 4.5077,12.094 11.1643,23.1431 19.5313,32.6563 -13.2798,-2.6021 -25.5777,-7.9579 -36.25,-15.4688 -7.7957,-10.5418 -13.441,-22.7535 -16.3437,-36 z"
             style="overflow:hidden;fill:none;stroke:#000000;stroke-width:5"
             inkscape:connector-curvature="0" />
          <path
             id="path5830"
             d="m 1267.1562,-1074.4422 c 5.9057,1.031 11.9868,1.5625 18.1876,1.5625 1.3698,0 2.7366,-0.042 4.0937,-0.094 -4.4347,8.0469 -9.9836,15.4042 -16.4687,21.8125 -8.8361,-2.6617 -17.1429,-6.5717 -24.6876,-11.5313 6.7305,-3.2397 13.0353,-7.2104 18.875,-11.75 z"
             style="overflow:hidden;fill:none;stroke:#000000;stroke-width:5"
             inkscape:connector-curvature="0" />
          <path
             id="path5828"
             d="m 1374.6562,-1067.8797 c -3.7234,6.8663 -8.2653,13.224 -13.5,18.9375 1.7302,-3.5543 3.2356,-7.235 4.5626,-11 3.1206,-2.4835 6.1207,-5.1207 8.9374,-7.9375 z"
             style="overflow:hidden;fill:none;stroke:#000000;stroke-width:5"
             inkscape:connector-curvature="0" />
          <path
             id="path5826"
             d="m 1237.3125,-1058.2234 c 8.1334,6.1257 17.1785,11.1153 26.9063,14.6875 -6.4608,4.992 -13.5899,9.1644 -21.2188,12.375 -9.876,-5.8101 -18.6097,-13.3583 -25.7812,-22.2188 6.9392,-0.9541 13.656,-2.6025 20.0937,-4.8437 z"
             style="overflow:hidden;fill:none;stroke:#000000;stroke-width:5"
             inkscape:connector-curvature="0" />
          <path
             id="path5824"
             d="m 1180.5625,-1054.7234 c 7.162,1.543 14.5954,2.3437 22.2187,2.3437 0.8749,0 1.7553,-0.01 2.625,-0.031 6.9959,9.86 15.6555,18.4414 25.5626,25.375 -7.9017,2.1297 -16.2068,3.2812 -24.7813,3.2812 -0.8513,0 -1.6853,-0.01 -2.5313,-0.031 -9.6619,-8.5773 -17.5653,-19.0904 -23.0937,-30.9375 z"
             style="overflow:hidden;fill:none;stroke:#000000;stroke-width:5"
             inkscape:connector-curvature="0" />
          <path
             id="path5822"
             d="m 1350.3125,-1049.7234 c -4.135,7.6469 -9.2914,14.6414 -15.2813,20.8437 -11.4954,6.009 -24.3726,9.7548 -38.0312,10.5938 6.6768,-5.8254 12.5973,-12.4862 17.625,-19.8125 12.7615,-1.7274 24.8103,-5.7406 35.6875,-11.625 z"
             style="overflow:hidden;fill:none;stroke:#000000;stroke-width:5"
             inkscape:connector-curvature="0" />
          <path
             id="path5820"
             d="m 1275.6875,-1040.0672 c 7.9258,1.9123 16.2057,2.9375 24.7187,2.9375 0.3437,0 0.6884,0 1.0313,0 -5.8472,7.1117 -12.7222,13.3381 -20.375,18.5 -9.3741,-0.9834 -18.3271,-3.3356 -26.6875,-6.8437 7.7165,-3.9928 14.861,-8.8909 21.3125,-14.5938 z"
             style="overflow:hidden;fill:none;stroke:#000000;stroke-width:5"
             inkscape:connector-curvature="0" />
          <path
             id="path5818"
             d="m 1242.2812,-1020.1297 c 7.7497,4.0758 16.0711,7.238 24.8126,9.2813 -8.121,3.6717 -16.855,6.2386 -26,7.5 -8.8124,-2.4604 -17.1083,-6.1679 -24.6876,-10.9063 9.0138,-0.8695 17.6736,-2.872 25.875,-5.875 z"
             style="overflow:hidden;fill:none;stroke:#000000;stroke-width:5"
             inkscape:connector-curvature="0" />
          <path
             id="path5816"
             d="m 1175.3125,-1018.3797 c 7.8023,2.3976 15.9776,3.9264 24.4375,4.4375 4.831,4.0023 10.0286,7.5601 15.5312,10.6563 -10.0724,-1.3484 -19.6525,-4.2832 -28.4687,-8.5313 -0.6951,-0.3397 -1.3737,-0.6807 -2.0625,-1.0312 -3.2579,-1.6687 -6.4111,-3.5108 -9.4375,-5.5313 z"
             style="overflow:hidden;fill:none;stroke:#000000;stroke-width:5"
             inkscape:connector-curvature="0" />
          <path
             id="ellipse4-13"
             d="m 1308.5,-1009.5359 c -2.277,1.1179 -4.5937,2.1572 -6.9688,3.0937 -0.4293,0.1619 -0.8499,0.3421 -1.2812,0.5 -0.061,0.023 -0.1265,0.04 -0.1875,0.062 -0.8327,0.3036 -1.6603,0.6176 -2.5,0.9063 -0.1349,0.046 -0.2711,0.079 -0.4063,0.125 -0.084,0.029 -0.1655,0.065 -0.25,0.094 -9.4543,3.1696 -19.5753,4.89264 -30.0937,4.9063 5.889,-2.3442 11.504,-5.2081 16.8125,-8.5313 2.4639,0.173 4.9609,0.2813 7.4688,0.2813 5.9277,0 11.7464,-0.4936 17.4062,-1.4375 z"
             style="overflow:hidden;fill:none;stroke:#000000;stroke-width:5"
             inkscape:connector-curvature="0" />
        </g>
      </g>
    </g>
  </g>
</svg>
