<?xml version="1.0" encoding="UTF-8" standalone="no"?>
<!-- Created with Inkscape (http://www.inkscape.org/) -->

<svg
   xmlns:dc="http://purl.org/dc/elements/1.1/"
   xmlns:cc="http://creativecommons.org/ns#"
   xmlns:rdf="http://www.w3.org/1999/02/22-rdf-syntax-ns#"
   xmlns:svg="http://www.w3.org/2000/svg"
   xmlns="http://www.w3.org/2000/svg"
   xmlns:sodipodi="http://sodipodi.sourceforge.net/DTD/sodipodi-0.dtd"
   xmlns:inkscape="http://www.inkscape.org/namespaces/inkscape"
   width="144.11688mm"
   height="118.79179mm"
   viewBox="0 0 510.65042 420.91578"
   id="svg4298"
   version="1.1"
   inkscape:version="0.91pre4 r13712"
   sodipodi:docname="pendent_butterflies.svg"
   inkscape:export-filename="C:\Users\steve\Documents\GitHub\BurnignMan2015\pendent_butterflies.png"
   inkscape:export-xdpi="90"
   inkscape:export-ydpi="90">
  <defs
     id="defs4300" />
  <sodipodi:namedview
     id="base"
     pagecolor="#ffffff"
     bordercolor="#666666"
     borderopacity="1.0"
     inkscape:pageopacity="0.0"
     inkscape:pageshadow="2"
     inkscape:zoom="0.98994949"
     inkscape:cx="351.03354"
     inkscape:cy="108.82713"
     inkscape:document-units="mm"
     inkscape:current-layer="layer1"
     showgrid="false"
     fit-margin-top="20"
     fit-margin-left="20"
     fit-margin-bottom="20"
     fit-margin-right="20"
     units="mm"
     inkscape:window-width="1920"
     inkscape:window-height="1017"
     inkscape:window-x="1912"
     inkscape:window-y="-8"
     inkscape:window-maximized="1" />
  <metadata
     id="metadata4303">
    <rdf:RDF>
      <cc:Work
         rdf:about="">
        <dc:format>image/svg+xml</dc:format>
        <dc:type
           rdf:resource="http://purl.org/dc/dcmitype/StillImage" />
        <dc:title></dc:title>
      </cc:Work>
    </rdf:RDF>
  </metadata>
  <g
     inkscape:label="Layer 1"
     inkscape:groupmode="layer"
     id="layer1"
     transform="translate(61.126132,61.217519)">
    <g
       id="g7483"
       transform="matrix(0.81066242,-0.58551384,0.58551384,0.81066242,413.88553,1168.8576)"
       style="stroke-width:1">
      <circle
         r="3.6909459"
         cy="775.83643"
         cx="417.19095"
         transform="translate(0,-1782.2859)"
         id="path7461"
         style="fill:none;stroke:#000000;stroke-width:1;stroke-linecap:square;stroke-linejoin:miter;stroke-miterlimit:4;stroke-dasharray:none;stroke-opacity:1" />
      <circle
         r="3.6909459"
         cy="775.83643"
         cx="417.19095"
         id="path7461-1"
         style="fill:none;stroke:#000000;stroke-width:1;stroke-linecap:square;stroke-linejoin:miter;stroke-miterlimit:4;stroke-dasharray:none;stroke-opacity:1"
         transform="translate(80.872,-1782.2859)" />
      <g
         id="g7457"
         style="stroke-width:1">
        <g
           transform="translate(407.73892,-1024.4474)"
           id="g3833"
           style="fill:none;stroke:#ff0000;stroke-width:1">
          <path
             style="fill:none;stroke:#ff0000;stroke-width:1"
             inkscape:connector-curvature="0"
             d="m 88.406,9.826 c 3.995,-1.437 9.531,-2.341 11.257,2.671 1.521,4.347 -3.097,13.503 -4.511,17.66 -1.938,5.695 -3.944,11.463 -6.667,16.838 -2.541,4.665 -8.027,4.479 -12.773,3.834 2.238,1.056 5.379,1.964 7.119,3.842 2.373,2.263 -1.899,1.188 1.818,3.312 1.365,0.78 2.907,1.943 4.011,3.085 2.324,2.406 -0.032,2.374 -1.229,4.278 -1.549,2.552 2.425,3.946 3.267,5.604 1.132,3.145 -4.121,0.956 -4.365,3.622 -0.559,4.73 1.752,6.606 5.486,9.151 2.233,1.522 7.175,3.635 8.05,6.423 0.985,3.141 -3.854,4.646 -5.528,2.234 -2.456,-3.536 -7.743,-14.905 -13.245,-7.511 -0.861,1.157 -1.3,5.096 -3.264,1.903 -1.431,-2.325 -3.086,-2.307 -4.41,0.324 -2.994,5.946 -8.565,-8.76 -10.064,-10.645 -1.98,-2.583 -2.893,-5.544 -4.551,-8.305 -1.943,-2.974 -2.575,-9.244 -5.916,-11.024 -0.971,4.744 3.327,24.369 -1.833,26.809 -2.893,-1.827 -2.096,-8.4 -2.039,-11.207 0.101,-5.025 1.247,-11.17 -0.388,-16.033 -2.478,1.698 -3.665,6.183 -4.872,8.771 -1.694,3.635 -3.572,7.646 -6.013,10.827 -2.411,3.044 -6.237,17.258 -10.616,9.601 -0.878,-1.536 -2.771,-0.845 -3.48,0.317 -2.681,4.415 -2.679,-0.459 -4.55,-2.011 -7.668,-6.36 -9.583,7.883 -14.02,9.514 -2.271,0.875 -5.139,-1.879 -3.418,-4.031 2.329,-2.594 5.668,-4.22 8.47,-6.232 2.296,-1.649 5.208,-4.143 4.722,-7.322 -0.512,-3.342 -4.737,-2.195 -4.695,-4.473 0.124,-1.964 3.446,-2.416 3.736,-4.739 0.287,-2.301 -3.189,-2.147 -2.615,-4.233 1.46,-3.896 6.357,-3.456 6.755,-7.272 0,-2.218 5.522,-3.517 6.943,-4.455 -3.611,0.403 -8.206,1 -11.465,-1.046 C 10.682,48.254 9.175,42.198 8.053,39.385 6.067,34.403 4.263,29.338 2.636,24.227 1.43,20.44 -2.088,13.452 1.736,10.203 8.495,4.384 23.862,16.244 28.7,20.678 c 7.569,6.937 13.369,15.723 17.027,25.293 1.937,-0.968 1.914,-8.272 4.958,-7.518 2.033,0.712 2.999,4.693 4.114,6.253 5.894,-15.323 17.979,-29.137 33.607,-34.88 2.034,-0.731 -2.508,0.922 0,0 z"
             id="path3835" />
        </g>
      </g>
    </g>
    <g
       transform="matrix(0.32259204,-0.9465381,0.9465381,0.32259204,1731.1397,813.18114)"
       id="g6934"
       inkscape:transform-center-x="31"
       inkscape:transform-center-y="120.60345"
       style="stroke-width:1">
      <path
         style="fill:none;stroke:#ff0000;stroke-width:1"
         id="path3846-6"
         d="m 289.50282,-1639.5538 c -0.2216,-2.7189 -4.10388,-4.9988 -5.9257,-5.5294 -31.95107,-9.2966 -83.01311,47.7508 -94.59817,61.3132 l 0.032,-0.5604 c 0.0256,-0.2152 0.0384,-0.4325 0.0384,-0.6541 0,-3.3219 -2.69331,-6.0131 -6.01307,-6.0131 -3.31976,0 -6.01093,2.6912 -6.01093,6.0131 0,0.2216 0.0213,0.4389 0.0383,0.6541 l 0.032,0.5604 c -11.58719,-13.5624 -62.64902,-70.6098 -94.602203,-61.3132 -1.819687,0.5306 -5.704102,2.8084 -5.923572,5.5294 -0.528434,6.5628 1.834603,11.9899 6.140912,16.2237 17.071813,16.7799 11.587183,33.4043 16.370783,44.1648 2.80837,6.3198 23.58988,7.8114 18.95969,9.4777 -43.887691,15.7997 8.77669,75.1334 33.35099,60.3884 9.33048,-5.5975 25.52442,-33.1485 27.81288,-37.0905 l 1.10587,19.5095 c 0,1.5043 1.21881,2.7231 2.72314,2.7231 1.50646,0 2.72527,-1.2188 2.72527,-2.7231 l 1.10588,-19.5095 c 2.28632,3.9441 18.48239,31.493 27.81308,37.0905 24.57644,14.745 77.2387,-44.5887 33.35313,-60.3884 -4.63232,-1.6663 16.14919,-3.1579 18.95756,-9.4777 4.78147,-10.7605 -0.70103,-27.387 16.37079,-44.1648 4.30631,-4.2338 6.67148,-9.663 6.14304,-16.2237 z"
         inkscape:connector-curvature="0" />
      <circle
         r="10.389762"
         cy="81.255745"
         cx="293.85434"
         transform="matrix(0.4880695,0,0,0.48806949,130.55813,-1672.7489)"
         id="path6903"
         style="fill:none;stroke:#000000;stroke-width:2.04888844;stroke-linecap:square;stroke-linejoin:miter;stroke-miterlimit:4;stroke-dasharray:none;stroke-opacity:1" />
      <circle
         r="10.389762"
         cy="81.255745"
         cx="293.85434"
         transform="matrix(0.4880695,0,0,0.48806949,-52.221404,-1672.9339)"
         id="path6903-5"
         style="fill:none;stroke:#000000;stroke-width:2.04888844;stroke-linecap:square;stroke-linejoin:miter;stroke-miterlimit:4;stroke-dasharray:none;stroke-opacity:1" />
    </g>
    <g
       style="stroke:#ff0000;stroke-width:1.20000005"
       id="g5796"
       transform="matrix(-0.82058016,-0.94294667,-0.94294667,0.82058016,1196.1488,-1052.0598)">
      <path
         inkscape:connector-curvature="0"
         style="fill:none;stroke:#ff0000;stroke-width:0.27763891"
         d="m 207.625,10.15625 c -0.8511,-3.16e-4 -1.73692,0.09447 -2.5625,0.09375 -2.56557,0.214629 -5.19053,0.05936 -7.71875,0.625 -1.39428,1.281432 -1.95573,3.252511 -2.90625,4.84375 -1.20164,1.772232 -0.95698,3.911913 -1.03125,5.9375 0.008,1.913141 -0.19752,3.918998 -0.0937,5.84375 0.0147,0.275718 0.0329,0.476205 0.0625,0.75 0.70049,2.63254 1.8084,5.162794 2.78125,7.6875 1.36671,3.262541 2.44249,6.656288 4.0625,9.8125 1.64128,3.210938 3.29602,6.4146 4.9375,9.625 1.73686,3.261361 3.17634,6.722393 5.34375,9.71875 3.53258,5.220702 7.07927,10.403587 10.59375,15.625 1.29163,1.913622 2.86328,3.567218 4.3125,5.34375 3.62818,4.270136 7.2338,8.6041 10.84375,12.875 2.56042,3.06791 5.46909,5.83891 8.1875,8.75 2.00358,2.02188 3.77128,4.18134 6.125,5.8125 3.31576,2.30327 6.6347,4.66635 9.96875,6.96875 0.65652,0.48365 1.5582,1.10181 1.3125,2.0625 -0.21272,0.84587 0.0291,2.06139 -0.96875,2.46875 -2.61695,1.64577 -5.22309,3.22018 -7.78125,4.9375 -0.87597,0.58564 -1.74855,1.2416 -2.75,1.59375 -3.66468,0.79425 -7.4085,1.08699 -11.125,1.625 -0.6832,0.0562 -1.80041,0.37579 -1.75,1.28125 -0.24974,0.86731 0.60311,1.54303 1.375,1.5625 3.60187,-0.25311 7.17999,-0.89451 10.75,-1.40625 1.3811,-0.16818 2.74632,-0.61358 3.90625,-1.4375 3.25549,-2.18187 6.50819,-4.39521 9.90625,-6.34375 0.27956,0.37456 0.56306,0.732 0.84375,1.125 -3.69638,4.95036 -7.67227,9.73526 -11.875,14.25 -1.6865,1.70596 -2.78485,3.80761 -3.96875,5.875 -1.45862,2.49146 -3.99653,4.44362 -4.59375,7.40625 l 0.0312,0 c 0.30846,0.24401 0.97242,0.72507 1.28125,0.96875 1.86312,-0.51 2.37967,-2.55041 3.53125,-3.875 2.26702,-2.60922 3.432,-6.01644 5.875,-8.46875 4.06193,-4.3772 7.83595,-9.01965 11.46875,-13.78125 1.61064,0.28219 3.32408,0.11513 4.78125,-0.6875 2.3921,4.37457 4.38624,8.95801 6.6875,13.375 1.42224,2.25851 3.19762,4.24943 4.78125,6.40625 2.45349,3.14802 4.80258,6.4055 7.46875,9.375 4.70882,5.34056 9.2399,10.79138 14,16.09375 4.67744,4.45297 9.45401,8.81264 14.21875,13.1875 2.77803,2.94323 6.3192,5.04949 9.53125,7.46875 3.47266,2.46168 6.83694,5.03351 10.34375,7.4375 4.31488,2.58138 8.75803,5.00807 13.125,7.53125 1.616,1.06105 3.61745,1.10626 5.46875,1.375 2.01359,0.20503 4.02151,0.58784 6.03125,0.71875 1.92628,-0.0505 3.63141,-0.86195 5.4375,-1.40625 0.83023,-0.41657 2.09588,-0.45361 2.5625,-1.40625 0.60933,-2.07338 0.91041,-4.20867 1.40625,-6.3125 0.37346,-1.98663 1.18248,-3.98481 0.625,-6.03125 -1.12057,-4.87146 -2.34706,-9.70895 -3.6875,-14.53125 -1.00321,-3.74663 -3.27346,-7.13348 -3.65625,-11.0625 -1.13967,-8.5981 -1.93498,-17.20213 -2.375,-25.875 -0.0831,-4.55779 -1.1992,-9.18075 -3.3125,-13.21875 -0.48219,-0.99262 -0.97241,-2.16913 -2.125,-2.53125 -14.58077,-3.46456 -29.31925,-6.3248 -44.09375,-8.90625 -5.1943,-0.7165 -10.35652,-1.60172 -15.5625,-2.1875 -4.23949,0.47418 -8.50921,0.38695 -12.75,0.15625 0.61946,-0.55233 1.17199,-1.66421 2.125,-1.53125 5.23605,0.45411 10.48712,-0.058 15.6875,0.75 7.67575,0.98807 15.3857,1.93089 23.0625,2.9375 8.95503,1.64029 17.87199,3.47211 26.8125,5.1875 2.26337,0.358 4.28522,1.53763 6.1875,2.75 1.58779,1.54409 3.72279,2.82217 4.40625,5.0625 1.32603,-1.51923 2.41373,-3.27292 3.46875,-5 1.72231,-3.41395 3.32816,-6.91208 5.03125,-10.34375 1.36131,-2.55968 1.61293,-5.56119 2.3125,-8.34375 0.32718,-1.81722 1.05831,-3.58901 0.84375,-5.46875 -0.38544,-3.29817 -1.091,-6.516842 -1.53125,-9.8125 -0.29632,-1.670929 -0.39851,-3.404581 -1.1875,-4.9375 -1.73058,-3.484158 -3.52326,-7.008008 -5.21875,-10.53125 -0.50526,-1.10386 -1.32444,-2.0082 -2.34375,-2.65625 -3.44265,-2.240202 -6.89942,-4.491873 -10.34375,-6.75 -1.05488,-0.647222 -2.22999,-1.203175 -3.46875,-1.46875 -3.49286,-0.790968 -6.92997,-1.639718 -10.40625,-2.46875 -1.14398,-0.233968 -2.54176,-0.637299 -3.59375,0.125 -1.41994,1.027273 -2.62004,2.208376 -4,3.28125 l -1.15625,-2.09375 c 0.15624,-0.173387 0.32512,-0.35331 0.5,-0.46875 1.06706,-1.17151 2.88584,-2.386639 2.375,-4.25 -0.18299,-4.014559 -0.59916,-7.990897 -0.875,-12 -0.0912,-1.99787 -1.12123,-3.676285 -1.90625,-5.46875 -1.35059,-2.986001 -2.6977,-6.026178 -4.03125,-9.03125 -0.45728,-0.921725 -0.95602,-1.956195 -1.875,-2.5 -3.01085,-2.153022 -6.10102,-4.221286 -9.09375,-6.375 -1.07755,-0.720119 -2.11344,-1.517337 -3.375,-1.875 -3.84857,-1.178957 -7.62223,-2.52613 -11.46875,-3.6875 -0.85209,-0.304894 -1.78601,-0.330236 -2.6875,-0.1875 -4.14321,0.523894 -8.40007,0.01137 -12.40625,1.34375 -3.11732,0.987561 -6.25785,1.856372 -9.375,2.84375 -2.26205,0.680516 -4.39675,1.884221 -6.46875,3 1.11997,0.810184 2.27599,1.72532 2.9375,2.96875 1.45686,1.847384 2.27733,4.086358 2.9375,6.3125 0.73657,4.966587 0.38189,9.994876 0.75,15 0.34149,5.211223 0.48651,10.434189 0.625,15.65625 l -0.75,25.03125 c -0.30996,4.486425 -1.28398,8.85749 -1.59375,13.34375 -0.56963,0.43954 -1.11795,0.82979 -1.6875,1.25 0.27414,-2.42542 0.52578,-4.77638 0.875,-7.1875 0.31503,-2.039112 1.12276,-4.015397 1.15625,-6.09375 0.19418,-4.906621 0.17889,-9.816682 0.28125,-14.71875 -0.10445,-4.926652 -0.36494,-9.854005 -0.46875,-14.78125 -0.21102,-5.180498 -0.60662,-10.311769 -0.6875,-15.5 -0.39478,-4.484716 -0.58545,-8.979935 -0.90625,-13.46875 -0.17626,-0.843289 -0.0192,-2.038634 -0.8125,-2.625 -2.09741,-1.720689 -4.38268,-3.220739 -6.90625,-4.25 -1.8476,-0.900472 -3.74062,-1.699191 -5.8125,-1.9375 -9.26517,-1.902232 -18.49447,-4.277194 -27.5625,-6.96875 -2.54781,-0.805959 -4.68598,-2.39289 -7,-3.65625 -1.93597,-1.155111 -4.1216,-1.936082 -6.15625,-2.84375 -3.34493,-1.485834 -6.67111,-2.839606 -10.03125,-4.25 -0.78865,-0.346062 -1.61765,-0.437184 -2.46875,-0.4375 z m 110.96875,47.25 c 1.70243,-0.05599 3.75221,0.46174 4.65625,2.0625 1.0885,1.610316 1.96077,3.404885 2.34375,5.3125 0.24076,1.006714 1.45541,0.971387 2.21875,1.375 0.91749,0.300842 1.61569,1.003417 2.3125,1.65625 -0.0658,0.36365 -0.13225,0.768426 -0.25,1.21875 -1.60555,-0.502788 -4.14636,-0.0084 -7.1875,1.28125 -0.0883,0.03755 -0.19245,0.05508 -0.28125,0.09375 -0.20437,0.06467 -0.36765,0.189265 -0.5625,0.28125 -0.39023,0.184325 -0.72616,0.360822 -1.125,0.53125 l 0.0312,0.0625 c -0.77723,0.386638 -1.51852,0.777233 -2.34375,1.25 -0.0231,0.01346 -0.0385,0.04822 -0.0625,0.0625 -0.87977,-0.01738 -1.57494,0.964829 -2.25,1.375 -2.99756,1.906449 -6.16027,4.198389 -9.34375,6.96875 -1.24846,1.086448 -2.43728,2.216774 -3.5625,3.3125 -0.0808,0.07857 -0.17009,0.172172 -0.25,0.25 -3.01428,2.404785 -5.66196,5.268057 -8.4375,7.90625 -1.88249,1.846153 -3.51625,3.829715 -5.65625,5.375 -2.72852,1.986163 -5.38866,4.11132 -8.15625,6.0625 1.554,-5.129538 3.91178,-9.966789 5.84375,-14.96875 0.97962,-2.761407 2.86331,-5.100988 3.84375,-7.84375 0.29488,-1.035741 1.54985,-1.082784 2.15625,-1.875 4.79351,-4.899521 9.46425,-9.892628 14.375,-14.6875 2.13235,-2.027255 4.93056,-3.271979 7.34375,-4.90625 1.4052,-0.763715 2.57471,-2.281338 4.34375,-2.15625 z m 13,13.46875 1.40625,0 c 0.98311,1.449093 1.65717,3.173507 3.3125,4 1.16795,0.658719 2.43311,1.181325 3.5,2.03125 1.57385,0.970725 3.03143,2.510029 3.0625,4.4375 0.009,1.501363 -0.42025,3.207362 -1.625,4.21875 -2.3532,2.410785 -4.31848,5.147002 -6.75,7.46875 -5.57086,4.256262 -11.29787,8.2308 -16.96875,12.34375 -1.00336,0.64909 -1.44834,2.02668 -2.78125,2.0625 -2.69606,0.55652 -5.11812,1.95681 -7.8125,2.53125 -5.42211,1.22519 -10.77326,2.79357 -16.25,3.6875 2.78932,-2.56389 5.30066,-5.46072 8.1875,-7.9375 3.00041,-2.29563 6.02578,-4.54154 9.03125,-6.8125 2.79961,-1.829829 5.80546,-4.000074 8.75,-6.5625 4.34915,-3.784762 7.88482,-7.694231 10.5,-11.21875 3.20026,-4.31313 4.91519,-8.051886 4.4375,-10.25 z"
         transform="matrix(-0.52517126,-0.60348582,-0.60348582,0.52517126,43.673517,1425.0174)"
         id="path5784" />
      <path
         inkscape:connector-curvature="0"
         id="path5782"
         d="m -73.827687,1319.6049 c 0.735493,-0.5808 0.645816,-1.9712 -0.253485,-2.3882 -1.052501,-0.7013 -2.577544,0.6916 -1.997862,1.7985 0.265145,0.751 1.192931,1.0989 1.88664,0.7844 0.13882,-0.044 0.259592,-0.1111 0.364734,-0.1944 z"
         style="fill:none;stroke:#000000;stroke-width:0.22211115" />
      <path
         inkscape:connector-curvature="0"
         id="path5780"
         d="m -69.747589,1313.7884 c 0.126048,-0.2471 0.240158,-0.4873 0.357127,-0.7471 -0.34691,-0.1805 -0.777028,-0.5403 -1.169359,-0.2721 -0.545644,0.1443 0.128824,0.9134 0.02221,1.1849 0.25987,-0.053 0.531373,-0.1138 0.791215,-0.1638 z"
         style="fill:none;stroke:#000000;stroke-width:0.22211115" />
      <path
         inkscape:connector-curvature="0"
         id="path5778"
         d="m -94.63917,1327.8539 c 0.475235,-0.3815 0.07107,-1.0454 -0.257927,-1.4229 -2.09945,0.5824 -4.215836,1.0467 -6.308763,1.6616 -0.50927,0.1888 -1.39919,0.4692 -1.12621,1.1578 0.23266,0.7574 1.14728,0.3651 1.69426,0.2959 1.948748,-0.5588 3.959882,-0.9414 5.891721,-1.6186 0.0397,-0.028 0.07524,-0.047 0.106891,-0.075 z"
         style="fill:none;stroke:#000000;stroke-width:0.22211115" />
      <path
         inkscape:connector-curvature="0"
         id="path5776"
         d="m -71.230847,1309.518 c 0.259037,-0.1999 0.351408,-0.6005 0.117997,-0.8612 -0.271531,-0.4456 -1.038148,-0.2249 -1.070521,0.2885 -0.07274,0.4134 0.360042,0.7524 0.749792,0.6743 0.07579,-0.028 0.142984,-0.055 0.202676,-0.1027 z"
         style="fill:none;stroke:#000000;stroke-width:0.22211115" />
      <path
         inkscape:connector-curvature="0"
         id="path5774"
         d="m -77.558294,1312.0062 c 0.398689,-0.2721 0.316036,-0.8301 0.378477,-1.2566 -0.48981,-0.05 -1.090121,-0.3154 -1.453801,0.2305 -0.23627,0.5405 0.291271,1.2185 0.873314,1.1225 0.07829,-0.028 0.144927,-0.058 0.202121,-0.097 z"
         style="fill:none;stroke:#000000;stroke-width:0.22211115" />
      <path
         inkscape:connector-curvature="0"
         id="path5772"
         d="m -93.099079,1322.1323 c 0.69307,-0.5797 1.031595,-1.5842 0.583541,-2.4344 -0.562885,-1.4953 -2.836581,-1.7158 -3.662613,-0.3409 -0.893664,1.0706 -0.196846,2.931 1.164724,3.1853 0.524932,0.1916 1.143372,0.1416 1.596729,-0.1915 0.112166,-0.064 0.218502,-0.1361 0.317619,-0.2194 z"
         style="fill:none;stroke:#000000;stroke-width:0.22211115" />
      <path
         inkscape:connector-curvature="0"
         id="path5770"
         d="m -107.20003,1330.279 c -0.113,-0.3623 -0.28208,-0.7002 -0.42506,-1.0769 -2.56339,0.1554 -5.1072,0.5766 -7.65365,0.8501 -0.4794,0.036 -1.16539,0.1194 -1.27961,0.6952 0.0494,0.4495 0.3523,0.9834 0.86676,0.9209 1.841,-0.1193 3.64168,-0.5061 5.47615,-0.6571 1.02899,-0.125 2.10084,-0.1694 3.01541,-0.7322 z"
         style="fill:none;stroke:#000000;stroke-width:0.22211115" />
      <path
         inkscape:connector-curvature="0"
         id="path5768"
         d="m -76.04419,1304.6105 c -0.06108,-0.2721 -0.101338,-0.5403 -0.162697,-0.8118 -0.248209,-0.125 -0.498945,-0.2305 -0.747126,-0.3574 0.0083,0.3496 -0.726109,0.828 -0.305098,1.1761 0.23405,0.4937 0.878284,-0.1027 1.21481,0 z"
         style="fill:none;stroke:#000000;stroke-width:0.22211115" />
      <path
         inkscape:connector-curvature="0"
         id="path5766"
         d="m -104.62632,1326.6156 c 0.95808,-0.7208 0.47899,-2.5748 -0.79501,-2.6381 -1.95267,0.337 -3.87931,0.9725 -5.62661,1.8629 -1.13537,0.8082 -0.17491,2.8389 1.14512,2.5815 1.66945,-0.4356 3.32845,-0.957 4.93159,-1.6225 0.13049,-0.047 0.24571,-0.1083 0.34491,-0.1833 z"
         style="fill:none;stroke:#000000;stroke-width:0.22211115" />
      <path
         inkscape:connector-curvature="0"
         id="path5764"
         d="m -91.31647,1312.416 c 0.7549,-0.5722 1.103531,-1.6422 0.645233,-2.5057 -0.573269,-1.5808 -3.108113,-1.6544 -3.8016,-0.1582 -1.003998,1.532 0.934894,3.7587 2.57438,2.971 0.212671,-0.069 0.407768,-0.1749 0.581987,-0.3076 z"
         style="fill:none;stroke:#000000;stroke-width:0.22211115" />
      <path
         inkscape:connector-curvature="0"
         id="path5762"
         d="m -102.64134,1320.4162 c 0.63088,-0.5372 0.87579,-1.5778 0.15271,-2.1742 -0.59129,-0.7599 -1.76967,-0.5375 -2.45425,-0.042 -1.39394,0.7658 -2.89186,1.3494 -4.09992,2.4019 -0.71439,0.9876 0.43575,2.6828 1.63876,2.1786 1.50569,-0.4772 2.86193,-1.3634 4.27148,-2.0848 0.17963,-0.058 0.3458,-0.1554 0.49136,-0.2793 z"
         style="fill:none;stroke:#000000;stroke-width:0.22211115" />
      <path
         inkscape:connector-curvature="0"
         id="path5760"
         d="m -82.561543,1302.6148 c 0.323533,-0.2499 0.515354,-0.6402 0.448026,-1.0522 -0.202954,-0.9121 -1.759342,-0.9587 -1.899466,0 -0.272642,0.6624 0.452384,1.2807 1.088983,1.2546 0.132434,-0.047 0.254595,-0.1138 0.362457,-0.1971 z"
         style="fill:none;stroke:#000000;stroke-width:0.22211115" />
      <path
         inkscape:connector-curvature="0"
         id="path5758"
         d="m -88.846761,1305.0183 c 0.21045,-0.3326 0.594897,-0.7068 0.69096,-1.138 -0.167694,-0.6017 -1.272141,-0.8873 -1.466877,-0.1721 -0.27403,0.5885 0.38217,0.9975 0.775917,1.3107 z"
         style="fill:none;stroke:#000000;stroke-width:0.22211115" />
      <path
         inkscape:connector-curvature="0"
         id="path5756"
         d="m -117.91961,1325.8801 c 0.39952,-0.3098 0.77397,-0.6563 1.11716,-1.0428 1.42243,-1.1633 2.07041,-2.8874 2.80935,-4.4947 -2.39203,-0.7102 -4.68538,-1.8727 -7.15792,-2.2761 -3.87432,0.086 -7.72908,0.4393 -11.59296,0.6117 -1.28885,0 -2.55555,0.2609 -3.77547,0.6477 -6.67119,1.9435 -13.35799,3.8431 -20.04478,5.7427 -2.01761,0.5186 -3.99362,1.2116 -5.95661,1.9693 2.97152,0.8037 5.956,1.5034 8.92359,2.2538 2.61542,0.2749 5.24896,0.2333 7.86824,0.391 3.78605,0.2823 7.56671,-0.2388 11.34485,-0.3998 3.47282,-0.1694 6.91441,-0.763 10.38067,-1.1325 2.1524,-0.2721 4.35274,-0.9276 6.08388,-2.2703 z"
         style="fill:none;stroke:#000000;stroke-width:0.22211115" />
      <path
         inkscape:connector-curvature="0"
         id="path5754"
         d="m -102.7673,1314.0244 c 0.10522,-0.081 0.20823,-0.1666 0.30885,-0.2554 1.06377,-1.5035 1.45449,-3.3653 1.89719,-5.1361 -0.68225,-0.708 -1.14499,-1.7369 -2.05975,-2.1889 -1.02516,-0.3284 -2.05808,-0.5947 -3.07413,-0.9115 -4.12183,3.5074 -8.07466,7.1839 -12.10548,10.8082 2.06203,0.8168 4.20071,1.4426 6.28222,2.1878 0.45217,0.097 0.94983,0.4248 1.4266,0.2416 1.69143,-1.0345 3.25156,-2.2858 4.97023,-3.2853 0.77978,-0.4754 1.61753,-0.8935 2.35427,-1.4613 z"
         style="fill:none;stroke:#000000;stroke-width:0.22211115" />
      <path
         inkscape:connector-curvature="0"
         id="path5752"
         d="m -86.224711,1301.0731 c 0.453135,-0.3523 0.594175,-1.1661 -0.01388,-1.4821 -0.583514,-0.6535 -1.768255,0.045 -1.543339,0.8629 0.02221,0.6575 0.799239,0.9548 1.34355,0.7377 0.07607,-0.028 0.147982,-0.069 0.212672,-0.1194 z"
         style="fill:none;stroke:#000000;stroke-width:0.22211115" />
      <path
         inkscape:connector-curvature="0"
         id="path5750"
         d="m -93.431774,1303.3353 c 0.725027,-0.5942 0.641263,-1.9771 -0.257926,-2.3941 -0.965462,-0.6377 -2.382698,0.4836 -2.087568,1.5867 0.145761,0.8626 1.204648,1.2585 1.985452,1.0078 0.136598,-0.047 0.256538,-0.1166 0.360181,-0.1999 z"
         style="fill:none;stroke:#000000;stroke-width:0.22211115" />
      <path
         inkscape:connector-curvature="0"
         id="path5748"
         d="m -91.775158,1298.7942 c 0.285774,-0.261 0.503971,-0.6547 0.307708,-1.0275 -0.189906,-1.0162 -1.699567,-0.9301 -1.867011,0 -0.212949,0.8601 0.807152,1.5678 1.559303,1.0389 z"
         style="fill:none;stroke:#000000;stroke-width:0.22211115" />
      <path
         inkscape:connector-curvature="0"
         id="path5746"
         d="m -99.764829,1301.9985 c 0.379393,-0.2932 0.27042,-0.9507 -0.114665,-1.1967 -0.523686,-0.4559 -1.382366,0.2499 -1.173056,0.8565 0.11328,0.5314 0.80307,0.6703 1.207067,0.3935 0.02971,-0.028 0.05525,-0.033 0.08052,-0.053 z"
         style="fill:none;stroke:#000000;stroke-width:0.22211115" />
      <path
         inkscape:connector-curvature="0"
         id="path5744"
         d="m -95.640891,1297.9027 c 0.606696,-0.425 0.356099,-1.5792 -0.409268,-1.7319 -0.693848,-0.1916 -1.431645,0.6447 -1.156061,1.3124 0.19879,0.5209 0.862819,0.6988 1.348687,0.5272 0.08163,-0.028 0.153812,-0.064 0.216558,-0.1082 z"
         style="fill:none;stroke:#000000;stroke-width:0.22211115" />
      <path
         inkscape:connector-curvature="0"
         id="path5742"
         d="m -119.94432,1314.8892 c 0.35207,-0.2776 0.67938,-0.6013 1.00899,-0.8743 3.3852,-3.1031 6.83409,-6.1244 10.2375,-9.2042 0.41176,-0.5081 1.20811,-0.8838 1.11441,-1.6556 0.16992,-1.7838 -0.0333,-3.8783 -1.44575,-5.163 -1.25668,-1.5184 -3.14459,-2.208 -4.97013,-2.7208 -5.53351,6.2763 -11.03714,12.567 -16.57065,18.8433 -0.56636,0.6472 -1.12358,1.306 -1.64185,1.991 3.58846,-0.1638 7.15873,-0.3524 10.73158,-0.5609 0.58976,-0.028 1.08321,-0.2982 1.5359,-0.6555 z"
         style="fill:none;stroke:#000000;stroke-width:0.22211115" />
      <path
         inkscape:connector-curvature="0"
         id="path5740"
         d="m -100.2201,1292.7053 c 0.323531,-0.2499 0.515352,-0.6405 0.448052,-1.0525 -0.202954,-0.9121 -1.759372,-0.9587 -1.899492,0 -0.27264,0.6627 0.45238,1.2807 1.08901,1.2546 0.13243,-0.047 0.25459,-0.1138 0.36243,-0.1971 z"
         style="fill:none;stroke:#000000;stroke-width:0.22211115" />
      <path
         inkscape:connector-curvature="0"
         id="path5738"
         d="m -135.94738,1316.4126 c 0.0758,-0.058 0.14993,-0.1249 0.2174,-0.1971 6.20375,-7.0795 12.41662,-14.1474 18.63859,-21.2033 0.56244,-0.7005 1.53154,-1.3607 1.25848,-2.3871 -0.13659,-1.5265 0.17853,-3.2923 -1.05713,-4.4703 -1.71145,-1.7655 -4.68408,-1.6297 -6.63396,-0.3001 -1.56539,0.9551 -3.19446,1.8285 -4.48954,3.1554 -4.58157,4.3156 -9.29307,8.4882 -13.9747,12.6753 -2.60845,2.1236 -5.24422,4.212 -8.0047,6.1158 -1.2406,0.8901 -2.46821,1.8455 -3.4307,3.0449 -1.52493,1.8996 -3.19409,3.6865 -4.53581,5.7252 -2.35763,2.3977 -5.05056,4.4366 -7.48098,6.7408 2.70748,-0.718 5.27064,-1.8863 7.95341,-2.6601 2.57366,-0.5758 5.07454,-1.4143 7.6196,-2.0995 4.00012,-1.1794 8.03401,-2.2908 12.05234,-3.4466 0.61611,-0.1999 1.33655,-0.2826 1.86784,-0.6933 z"
         style="fill:none;stroke:#000000;stroke-width:0.22211115" />
      <path
         inkscape:connector-curvature="0"
         id="path5736"
         d="m -106.18878,1289.3581 c 0.48722,-0.3593 0.57304,-1.2821 0.003,-1.6303 -0.64323,-0.5131 -1.82667,0.2582 -1.47443,1.072 0.10162,0.7093 0.84078,0.7912 1.36824,0.6247 0.0358,-0.028 0.0708,-0.042 0.10328,-0.067 z"
         style="fill:none;stroke:#000000;stroke-width:0.22211115" />
      <path
         inkscape:connector-curvature="0"
         id="path5734"
         d="m -178.37597,1324.2465 c -2.51707,-2.4149 -5.44985,-4.3748 -7.77727,-6.956 -1.4153,-2.1084 -3.1956,-3.9138 -4.8239,-5.8379 -1.08123,-1.3171 -2.58332,-2.1378 -3.91393,-3.1484 -2.0206,-1.4873 -4.09057,-2.9174 -6.09687,-4.4345 -5.31998,-4.5696 -10.60225,-9.1873 -15.77675,-13.9077 -1.16694,-1.1381 -2.6339,-1.8172 -4.00605,-2.664 -1.12791,-0.7743 -2.5389,-0.9714 -3.87842,-0.9803 -1.57852,0.2138 -3.2167,1.0764 -3.62302,2.7253 -0.16742,1.2563 -0.19824,2.5193 -0.1552,3.7809 0.008,0.4442 0.45488,0.7532 0.67968,1.0664 6.51319,7.1886 13.00039,14.4164 19.51355,21.605 0.42365,0.4964 1.11486,0.5403 1.68136,0.7377 5.29338,1.3996 10.55816,2.8588 15.83722,4.2884 1.3162,0.3648 2.63632,0.783 3.98495,0.9723 2.84027,0.7555 5.53123,1.9465 8.35463,2.7528 z"
         style="fill:none;stroke:#000000;stroke-width:0.22211115" />
      <path
         inkscape:connector-curvature="0"
         id="path5732"
         d="m -181.33268,1325.9465 c -1.23178,-0.4495 -2.44275,-0.8962 -3.67061,-1.2922 -7.70226,-2.0589 -15.38767,-4.1687 -23.07305,-6.2785 -0.74451,-0.2082 -1.49678,-0.3556 -2.28544,-0.3803 -4.01208,-0.1639 -8.04234,-0.3493 -12.06349,-0.5237 -0.7237,-0.039 -1.40314,0.2471 -2.0748,0.4692 -1.82012,0.6281 -3.6454,1.2974 -5.46552,1.9255 0.7084,1.5134 1.3973,3.0981 2.69155,4.2309 0.78619,0.721 1.47495,1.6303 2.49883,2.0537 1.28636,0.5195 2.57921,1.0714 3.95122,1.2424 4.30968,0.5697 8.62063,1.0442 12.95882,1.2164 3.25332,0.1527 6.52485,0.4975 9.782,0.1971 2.61531,-0.2332 5.26318,-0.1361 7.86676,-0.5278 2.97121,-0.7166 5.93201,-1.5187 8.88373,-2.3324 z"
         style="fill:none;stroke:#000000;stroke-width:0.22211115" />
      <path
         inkscape:connector-curvature="0"
         id="path5730"
         d="m -160.95687,1305.4562 c 2.85266,-2.3886 5.52338,-5.0111 8.29674,-7.5257 2.70193,-2.534 5.48831,-4.9836 8.19282,-7.5385 0.46882,-0.9653 0.4842,-2.1034 0.74124,-3.1481 0.46988,-2.2425 0.59806,-4.5383 0.40663,-6.8108 -1.41601,0.8579 -3.05811,1.4973 -4.12194,2.8319 -1.92634,2.1559 -3.72922,4.422 -5.6075,6.6156 -0.89497,0.9967 -1.53787,2.1725 -2.24963,3.3084 -1.05597,1.6097 -1.38558,3.5743 -2.20245,5.2987 -1.10781,2.3633 -2.37151,4.623 -3.45591,6.9685 z"
         style="fill:none;stroke:#000000;stroke-width:0.22211115" />
      <path
         inkscape:connector-curvature="0"
         id="path5728"
         d="m -120.64289,1272.2111 c 0.31568,-0.2443 0.4533,-0.6719 0.41685,-1.0564 -0.2185,-0.9562 -1.67489,-0.874 -1.8787,0 -0.3857,0.8068 0.79543,1.5773 1.46185,1.0586 z"
         style="fill:none;stroke:#000000;stroke-width:0.22211115" />
      <path
         inkscape:connector-curvature="0"
         id="path5726"
         d="m -132.44346,1280.8299 c 1.83164,-1.4815 3.66328,-2.963 5.52218,-4.4092 -0.48209,-0.4509 -0.99928,-0.8743 -1.50477,-1.3069 -1.40411,1.8622 -2.76923,3.7501 -4.01741,5.7161 z"
         style="fill:none;stroke:#000000;stroke-width:0.22211115" />
      <path
         inkscape:connector-curvature="0"
         id="path5724"
         d="m -140.87458,1285.6258 c 1.69004,-1.4465 3.14745,-3.1434 4.7348,-4.6976 2.14207,-2.0235 3.66425,-4.578 5.41518,-6.9352 1.01705,-1.298 1.77031,-2.7664 2.4638,-4.2631 0.75062,-1.7855 0.0111,-4.0627 -1.65751,-5.0733 -1.34871,-0.5273 -2.72466,-0.9207 -4.05911,-1.4776 -0.48939,2.145 -0.47334,4.3847 -1.27847,6.4379 -0.59867,1.4981 -1.08687,3.0415 -1.9636,4.3994 -0.48706,0.7733 -0.92604,1.584 -1.40399,2.3688 -0.66242,1.0787 -1.65226,1.9052 -2.54337,2.7862 0.73316,2.0759 0.39061,4.3134 0.29227,6.4545 z"
         style="fill:none;stroke:#000000;stroke-width:0.22211115" />
      <path
         inkscape:connector-curvature="0"
         id="path5722"
         d="m -123.08253,1267.1037 c 0.54467,-0.384 0.46094,-1.3677 -0.16658,-1.6675 -0.63541,-0.4065 -1.6175,0.3576 -1.37959,1.0733 0.12216,0.5431 0.74335,0.9795 1.27208,0.7183 0.10356,-0.028 0.19629,-0.069 0.27403,-0.125 z"
         style="fill:none;stroke:#000000;stroke-width:0.22211115" />
      <path
         inkscape:connector-curvature="0"
         id="path5720"
         d="m -155.00324,1288.2856 c 2.48487,-2.9097 4.85538,-5.9179 7.58715,-8.6065 0.32679,-3.2948 -0.0139,-6.652 0.36574,-9.9509 0.37623,-2.8452 0.55367,-5.7049 0.66875,-8.5724 -1.4e-4,-0.6758 0.16214,-1.3837 -0.0511,-2.0437 -0.80179,-0.7652 -1.72439,-1.4926 -2.83658,-1.7158 -1.65523,-0.1 -3.18557,0.658 -4.52363,1.5678 -1.14062,0.512 -1.4041,1.8622 -1.62477,2.9536 0.0627,1.5278 0.44753,3.0115 0.62844,4.5224 0.2682,2.2503 0.9207,4.4639 0.86659,6.7586 -0.18602,5.0436 -0.79057,10.0561 -1.0806,15.0869 z"
         style="fill:none;stroke:#000000;stroke-width:0.22211115" />
      <path
         inkscape:connector-curvature="0"
         id="path5718"
         d="m -142.81272,1277.1767 c 1.0023,-0.7616 1.89072,-1.6589 2.45566,-2.8025 2.12621,-3.2498 3.54684,-7.0204 3.71756,-10.9259 -0.5459,-1.2083 -1.35685,-2.3227 -2.33533,-3.1943 -1.55009,-0.5208 -3.22742,-0.5294 -4.8515,-0.711 -0.12799,2.9713 -0.20545,5.9595 -0.55563,8.935 -0.47488,3.2975 -0.44822,6.6364 -0.31246,9.947 0.63768,-0.3837 1.28031,-0.7916 1.8817,-1.2483 z"
         style="fill:none;stroke:#000000;stroke-width:0.22211115" />
      <path
         inkscape:connector-curvature="0"
         id="path5716"
         d="m -183.21821,1304.3456 c -1.36479,-3.1048 -3.38825,-5.9226 -4.40619,-9.1846 -1.71075,-4.9006 -5.69101,-8.448 -8.94247,-12.3371 -1.15401,-1.5798 -2.95491,-2.3744 -4.65059,-3.2512 0.055,1.7591 -0.10578,3.5549 0.28036,5.2813 0.28871,1.4084 0.49167,2.8272 0.87781,4.2159 0.0805,0.5378 0.61341,0.8365 0.96038,1.1861 5.35374,4.6371 10.50097,9.4914 15.8807,14.0896 z"
         style="fill:none;stroke:#000000;stroke-width:0.22211115" />
      <path
         inkscape:connector-curvature="0"
         id="path5714"
         d="m -126.76016,1259.8201 c 0.32022,-0.2471 0.54911,-0.6572 0.38242,-1.0342 -0.14965,-0.7469 -1.29683,-0.9429 -1.70077,-0.3285 -0.57543,0.6356 0.17964,1.775 0.97863,1.5473 0.11577,-0.039 0.23294,-0.1027 0.33972,-0.1832 z"
         style="fill:none;stroke:#000000;stroke-width:0.22211115" />
      <path
         inkscape:connector-curvature="0"
         id="path5712"
         d="m -129.66266,1256.5181 c 0.5859,-0.3809 0.50514,-1.4254 -0.18352,-1.6591 -0.66655,-0.326 -1.50313,0.2873 -1.37178,1.0111 0.0794,0.8016 0.99281,1.0106 1.5553,0.648 z"
         style="fill:none;stroke:#000000;stroke-width:0.22211115" />
      <path
         inkscape:connector-curvature="0"
         id="path5710"
         d="m -227.56531,1331.0623 c 0.3961,-0.3152 0.50452,-1.0823 -0.0791,-1.2897 -2.41149,-0.4697 -4.85927,-0.6485 -7.28761,-0.899 -0.60936,-0.1083 -1.19268,0.083 -1.74221,0.3421 0.19768,0.447 0.32764,1.0964 0.92398,1.1391 2.57513,0.1722 5.12302,0.65 7.70723,0.8354 0.18047,0.033 0.34575,-0.028 0.47779,-0.1277 z"
         style="fill:none;stroke:#000000;stroke-width:0.22211115" />
      <path
         inkscape:connector-curvature="0"
         id="path5706"
         d="m -211.6875,1315.4234 c -6.09995,-6.9471 -12.40389,-13.6981 -18.51552,-20.6361 -1.9163,0.5525 -3.86627,1.3752 -5.18338,2.9633 -1.28467,1.4123 -1.34925,3.4521 -1.18388,5.2568 0.03,0.6899 0.8057,0.9873 1.18129,1.4459 3.58779,3.1396 7.22236,6.2427 10.7634,9.4187 0.59515,0.4753 1.15006,1.1885 1.98415,1.1027 3.64698,0.1278 7.29007,0.3712 10.95394,0.4487 z"
         style="fill:none;stroke:#000000;stroke-width:0.22211115" />
      <path
         inkscape:connector-curvature="0"
         id="path5702"
         d="m -232.82885,1327.7111 c 0.80837,-0.6352 0.73363,-2.1358 -0.26681,-2.5562 -1.56311,-0.5858 -3.15995,-1.07 -4.77628,-1.4828 -0.91993,-0.2416 -1.99942,0.5422 -1.85763,1.5203 -0.0738,0.6772 0.48615,1.1797 1.07344,1.3796 1.20448,0.4142 2.42065,0.8196 3.65628,1.153 0.57688,0.1139 1.18369,0.4118 1.76959,0.1999 0.15131,-0.05 0.28594,-0.1221 0.40144,-0.2138 z"
         style="fill:none;stroke:#000000;stroke-width:0.22211115" />
      <path
         inkscape:connector-curvature="0"
         id="path5700"
         d="m -136.51787,1252.5565 c 0.48323,-0.3795 0.78272,-1.1863 0.0813,-1.56 -0.5354,-0.6158 -1.65392,-0.028 -1.53035,0.759 -0.0738,0.6769 0.65501,1.0106 1.23447,0.9351 0.0741,-0.033 0.14576,-0.08 0.21461,-0.1333 z"
         style="fill:none;stroke:#000000;stroke-width:0.22211115" />
      <path
         inkscape:connector-curvature="0"
         id="path5696"
         d="m -241.70816,1329.3317 c 0.0808,-0.053 0.14798,-0.1305 0.19296,-0.2332 0.27922,-0.4614 -0.078,-1.0653 -0.5836,-1.1602 -2.10486,-0.5581 -4.22402,-1.0867 -6.34838,-1.5734 -0.59248,-0.1583 -0.89247,0.4692 -1.20293,0.8421 0.8018,0.7651 1.92435,0.9053 2.9573,1.1713 1.37984,0.2779 2.71814,0.7194 4.0954,1.0178 0.27869,0.05 0.64682,0.094 0.88931,-0.064 z"
         style="fill:none;stroke:#000000;stroke-width:0.22211115" />
      <path
         inkscape:connector-curvature="0"
         id="path5694"
         d="m -141.18864,1250.7991 c 0.27541,-0.2111 0.46201,-0.5248 0.36817,-0.8777 -0.0663,-0.9053 -1.60869,-1.1508 -1.82939,-0.2276 -0.32597,0.6666 0.31732,1.5175 1.04876,1.3238 0.14465,-0.047 0.28727,-0.1222 0.41246,-0.2166 z"
         style="fill:none;stroke:#000000;stroke-width:0.22211115" />
      <path
         inkscape:connector-curvature="0"
         id="path5692"
         d="m -189.39162,1287.245 c -0.32584,-5.3398 -1.11031,-10.6419 -1.28547,-16.0051 0.37364,-2.8247 0.74984,-5.6699 1.21833,-8.4932 0.0816,-0.9082 0.44656,-1.8866 -0.025,-2.7584 -0.49541,-2.0356 -2.66658,-2.8238 -4.43625,-3.3616 -1.66703,-0.5986 -3.29477,0.5178 -4.49114,1.5614 0.1216,3.3403 0.34038,6.6611 0.7607,9.9753 0.46577,3.3728 0.37551,6.8027 0.48009,10.1938 -0.006,0.4742 0.36654,0.7846 0.67972,1.0664 2.61714,2.3747 4.73283,5.2144 7.09925,7.8214 z"
         style="fill:none;stroke:#000000;stroke-width:0.22211115" />
      <path
         inkscape:connector-curvature="0"
         id="path5690"
         d="m -226.1882,1315.8199 c -3.65148,-3.2215 -7.32892,-6.4038 -10.97132,-9.6136 -0.49375,-0.272 -0.90838,-1.095 -1.56574,-0.9026 -1.39791,0.3743 -2.99073,0.6189 -3.90774,1.8769 -0.26765,0.452 -0.94178,0.864 -0.82081,1.502 0.216,1.1458 0.67083,2.2372 1.11669,3.3167 0.28982,0.638 0.51085,1.4043 1.14887,1.7902 1.09409,0.7066 2.25701,1.2844 3.3511,1.9909 1.276,0.7716 2.4247,1.7172 3.715,2.4588 0.54315,0.3845 1.23036,-0.1305 1.80979,-0.2082 2.03446,-0.7383 4.09362,-1.421 6.12416,-2.2125 z"
         style="fill:none;stroke:#000000;stroke-width:0.22211115" />
      <path
         inkscape:connector-curvature="0"
         id="path5688"
         d="m -235.21599,1322.1825 c 0.76337,-0.5983 0.77445,-2.0079 -0.15437,-2.484 -1.64889,-0.9129 -3.38092,-1.6675 -5.09867,-2.4518 -0.65603,0.4353 -1.61608,0.9381 -1.37423,1.8762 0.494,1.4551 2.21165,1.7328 3.38889,2.4497 0.89783,0.3337 1.84386,1.2118 2.86498,0.8115 0.1391,-0.047 0.26459,-0.1166 0.37348,-0.2027 z"
         style="fill:none;stroke:#000000;stroke-width:0.22211115" />
      <path
         inkscape:connector-curvature="0"
         id="path5684"
         d="m -147.39068,1250.0411 c 0.77661,-0.6166 -0.24099,-2.1914 -1.1891,-1.5526 -0.97823,0.4798 -0.3049,2.1895 0.74218,1.75 0.18963,-0.039 0.33597,-0.1083 0.44692,-0.1971 z"
         style="fill:none;stroke:#000000;stroke-width:0.22211115" />
      <path
         inkscape:connector-curvature="0"
         id="path5680"
         d="m -153.3173,1250.9876 c 0.48323,-0.3796 0.78272,-1.1861 0.0813,-1.5601 -0.5354,-0.6155 -1.65393,-0.028 -1.53035,0.7591 -0.0738,0.6769 0.65501,1.0109 1.23447,0.9353 0.0741,-0.033 0.14576,-0.081 0.21461,-0.1332 z"
         style="fill:none;stroke:#000000;stroke-width:0.22211115" />
      <path
         inkscape:connector-curvature="0"
         id="path5678"
         d="m -159.15655,1253.518 c 0.27542,-0.211 0.46205,-0.5248 0.36818,-0.8776 -0.0664,-0.9054 -1.5879,-1.1481 -1.85016,-0.2305 -0.36757,0.6613 0.35888,1.5226 1.06952,1.3263 0.14465,-0.047 0.28727,-0.1222 0.41246,-0.2166 z"
         style="fill:none;stroke:#000000;stroke-width:0.22211115" />
      <path
         inkscape:connector-curvature="0"
         id="path5676"
         d="m -248.25514,1322.0754 c 1.25427,-0.8568 1.17114,-3.146 -0.36906,-3.6826 -1.40333,-0.7663 -3.29991,0.7282 -2.91113,2.2652 0.0652,1.3382 1.68552,2.142 2.84694,1.6325 0.15825,-0.056 0.30351,-0.1277 0.43325,-0.2138 z"
         style="fill:none;stroke:#000000;stroke-width:0.22211115" />
      <path
         inkscape:connector-curvature="0"
         id="path5674"
         d="m -168.28995,1259.6066 c 0.72166,-0.5803 0.0919,-2.1059 -0.90555,-1.6464 -1.45511,0.3251 -0.34122,2.4804 0.74218,1.75 0.0605,-0.031 0.11522,-0.064 0.16325,-0.1028 z"
         style="fill:none;stroke:#000000;stroke-width:0.22211115" />
      <path
         inkscape:connector-curvature="0"
         id="path5672"
         d="m -164.79359,1256.7969 c 0.40521,-0.3126 0.45211,-0.9373 0.2346,-1.3932 -0.44316,-0.5936 -1.57868,-0.4609 -1.74871,0.3096 -0.3052,0.6691 0.51347,1.3834 1.17475,1.2443 0.13271,-0.033 0.24599,-0.089 0.33939,-0.161 z"
         style="fill:none;stroke:#000000;stroke-width:0.22211115" />
      <path
         inkscape:connector-curvature="0"
         id="path5670"
         d="m -203.52128,1284.8376 c -0.14576,-1.5381 -0.23572,-3.1012 -0.18935,-4.6577 0.0167,-0.6313 0.11661,-1.2732 0.47126,-1.8307 -0.93692,-0.8663 -2.09337,-1.5806 -2.68604,-2.7525 -0.86168,-1.4693 -1.87018,-2.8619 -2.48501,-4.4481 -0.49917,-1.2447 -1.11914,-2.4516 -1.4091,-3.7648 -0.39919,-1.6228 -0.57102,-3.2908 -0.86365,-4.9214 -1.17703,0.4653 -2.35147,0.9098 -3.55056,1.2985 -1.67333,0.5514 -2.54603,2.469 -2.38589,4.1465 -0.0194,0.916 0.5512,1.6731 0.93853,2.4605 1.25812,2.4371 3.09956,4.5141 4.66817,6.7474 0.97212,1.5146 2.34693,2.6784 3.59314,3.9425 1.29949,1.2599 2.51455,2.6043 3.89844,3.7798 z"
         style="fill:none;stroke:#000000;stroke-width:0.22211115" />
      <path
         inkscape:connector-curvature="0"
         id="path5668"
         d="m -175.32227,1258.523 c 0.50608,-0.3718 0.67275,-1.2883 0.0422,-1.6284 -0.50289,-0.4531 -1.14981,0.1638 -1.63049,0.2926 0.19629,0.542 0.30041,1.3993 0.9864,1.4849 0.22738,0.039 0.43317,-0.028 0.60183,-0.15 z"
         style="fill:none;stroke:#000000;stroke-width:0.22211115" />
      <path
         inkscape:connector-curvature="0"
         id="path5666"
         d="m -199.81078,1277.521 c 0.14271,-1.4812 0.0139,-2.9752 0.006,-4.4539 0.0111,-3.2923 -0.68208,-6.5454 -0.86463,-9.8193 -0.1366,-1.5267 -0.0811,-3.0715 -0.30362,-4.5877 -1.54084,0.1666 -3.1155,0.2666 -4.59393,0.778 -1.13801,0.6602 -1.81856,1.8843 -2.40302,3.0146 0.0383,4.0055 1.59701,7.8419 3.81285,11.148 0.84746,1.8369 2.67699,2.9097 4.34541,3.9203 z"
         style="fill:none;stroke:#000000;stroke-width:0.22211115" />
      <path
         inkscape:connector-curvature="0"
         id="path5664"
         d="m -250.20624,1312.2708 c 0.94691,-0.6819 1.19876,-2.1486 0.38497,-3.0635 -0.97337,-1.251 -3.30413,-0.8451 -3.63124,0.7608 -0.6467,1.6294 1.42984,3.4297 2.93029,2.4876 0.11244,-0.053 0.21794,-0.1138 0.31598,-0.186 z"
         style="fill:none;stroke:#000000;stroke-width:0.22211115" />
      <path
         inkscape:connector-curvature="0"
         id="path5662"
         d="m -178.85351,1255.6491 c 0.40155,-0.2896 0.51139,-0.9259 0.2885,-1.3601 -0.43925,-0.5403 -1.50333,-0.557 -1.75654,0.2026 -0.27153,0.7369 0.53559,1.6292 1.27869,1.2575 0.0691,-0.028 0.13188,-0.058 0.18935,-0.1 z"
         style="fill:none;stroke:#000000;stroke-width:0.22211115" />
      <path
         inkscape:connector-curvature="0"
         id="path5660"
         d="m -212.07767,1280.0647 c -1.23724,-1.9279 -2.6213,-3.7789 -4.05472,-5.5731 -0.47801,0.447 -0.96255,0.8618 -1.4289,1.2997 1.827,1.4315 3.63063,2.881 5.48362,4.2734 z"
         style="fill:none;stroke:#000000;stroke-width:0.22211115" />
      <path
         inkscape:connector-curvature="0"
         id="path5658"
         d="m -243.41234,1301.6681 c 0.22073,-0.1833 0.34941,-0.4315 0.23239,-0.7627 -0.0405,-0.7757 -1.71898,-0.5209 -1.36804,0.2193 l 0.34838,0.9301 c 0.25349,-0.083 0.56641,-0.2027 0.78725,-0.3873 z"
         style="fill:none;stroke:#000000;stroke-width:0.22211115" />
      <path
         inkscape:connector-curvature="0"
         id="path5656"
         d="m -268.32782,1319.689 c 0.66214,-0.505 0.75182,-1.6019 0.0863,-2.1927 -0.64717,-0.7352 -2.04767,-0.3402 -2.33072,0.5747 -0.37917,1.0084 0.7813,2.2824 1.81929,1.8316 0.16075,-0.047 0.30251,-0.1194 0.42514,-0.2138 z"
         style="fill:none;stroke:#000000;stroke-width:0.22211115" />
      <path
         inkscape:connector-curvature="0"
         id="path5654"
         d="m -248.91236,1303.0665 c 0.24376,-0.1721 0.44702,-0.3995 0.50461,-0.7024 0.27786,-0.8732 -0.54604,-1.8838 -1.4633,-1.8083 -0.82239,0.078 -1.57449,0.9435 -1.36124,1.7725 0.19491,0.8054 1.11628,1.2899 1.86068,0.9923 0.15104,-0.069 0.31296,-0.15 0.45925,-0.2527 z"
         style="fill:none;stroke:#000000;stroke-width:0.22211115" />
      <path
         inkscape:connector-curvature="0"
         id="path5652"
         d="m -184.45643,1252.501 c 0.45311,-0.3523 0.59418,-1.1664 -0.0139,-1.4823 -0.58348,-0.6533 -1.76825,0.044 -1.54334,0.8631 0.025,0.6575 0.79921,0.9548 1.34355,0.7377 0.0761,-0.028 0.14798,-0.069 0.21267,-0.1194 z"
         style="fill:none;stroke:#000000;stroke-width:0.22211115" />
      <path
         inkscape:connector-curvature="0"
         id="path5650"
         d="m -254.75705,1304.4561 c 0.22516,-0.1749 0.37054,-0.4525 0.32239,-0.7435 -0.20656,-0.6275 -0.86537,-0.5092 -1.3526,-0.5805 -0.0505,0.4897 -0.31551,1.09 0.23016,1.4537 0.27015,0.1194 0.57491,0.044 0.79996,-0.1305 z"
         style="fill:none;stroke:#000000;stroke-width:0.22211115" />
      <path
         inkscape:connector-curvature="0"
         id="path5648"
         d="m -265.65616,1311.9418 c 0.38276,-0.3179 0.3764,-1.0917 -0.14937,-1.2774 -0.36773,-0.1832 -0.73663,0.236 -1.08351,0.2249 l -0.0883,0.7069 c 0.3365,0.094 0.60553,0.5611 0.99531,0.483 0.12827,0 0.23738,-0.064 0.32575,-0.136 z"
         style="fill:none;stroke:#000000;stroke-width:0.22211115" />
      <path
         inkscape:connector-curvature="0"
         id="path5646"
         d="m -247.3238,1297.6542 c 0.16048,-0.1166 0.2757,-0.2851 0.30521,-0.5003 0.26237,-0.7485 -0.68879,-1.0783 -1.16958,-1.4551 -0.2235,0.4367 -0.98465,0.954 -0.65712,1.5437 0.15604,0.653 1.03987,0.7618 1.52149,0.4117 z"
         style="fill:none;stroke:#000000;stroke-width:0.22211115" />
      <path
         inkscape:connector-curvature="0"
         id="path5644"
         d="m -236.98455,1288.9664 c 0.68374,-0.5051 0.22905,-1.8885 -0.66328,-1.7692 -0.77955,0 -1.1964,1.0437 -0.71817,1.6101 0.26515,0.2443 0.6562,0.4089 1.01605,0.3168 0.14604,-0.028 0.26764,-0.086 0.3654,-0.1583 z"
         style="fill:none;stroke:#000000;stroke-width:0.22211115" />
      <path
         inkscape:connector-curvature="0"
         id="path5642"
         d="m -242.95323,1292.3858 c 0.45311,-0.3524 0.59417,-1.1661 -0.0139,-1.4821 -0.58349,-0.6533 -1.76826,0.044 -1.54332,0.8629 0.025,0.6575 0.79922,0.9548 1.34356,0.7377 0.0761,-0.028 0.14798,-0.069 0.21267,-0.1194 z"
         style="fill:none;stroke:#000000;stroke-width:0.22211115" />
      <path
         inkscape:connector-curvature="0"
         id="path5640"
         d="m -251.24603,1298.5474 c 0.57452,-0.429 0.46019,-1.4273 -0.26653,-1.6694 -0.76401,-0.3066 -1.24716,0.52 -1.52768,1.0761 0.42098,0.1804 0.81873,1.0522 1.40332,0.7663 0.15409,-0.033 0.28464,-0.094 0.39103,-0.1722 z"
         style="fill:none;stroke:#000000;stroke-width:0.22211115" />
      <path
         inkscape:connector-curvature="0"
         id="path5638"
         d="m -190.50682,1249.9775 c 0.48615,-0.3937 0.66003,-1.1916 0.0319,-1.5872 -0.4483,-0.3832 -1.31876,-0.175 -1.46804,0.4289 -0.34938,0.6849 0.36534,1.3863 1.05522,1.3563 0.13937,-0.039 0.26875,-0.1083 0.38098,-0.1971 z"
         style="fill:none;stroke:#000000;stroke-width:0.22211115" />
      <path
         inkscape:connector-curvature="0"
         id="path5636"
         d="m -256.83585,1301.0245 c 0.4887,-0.3959 0.66953,-1.1989 0.0319,-1.5873 -0.54317,-0.5533 -1.57077,-0.028 -1.52773,0.7383 -0.0572,0.6263 0.53159,1.0692 1.11494,1.047 0.13937,-0.039 0.2682,-0.1056 0.38095,-0.1972 z"
         style="fill:none;stroke:#000000;stroke-width:0.22211115" />
      <path
         inkscape:connector-curvature="0"
         id="path5634"
         d="m -273.572,1313.9625 c 0.26986,-0.2055 0.30193,-0.7277 0.38078,-1.0426 -0.42226,-0.083 -0.82892,-0.1249 -1.25898,-0.1471 0.0194,0.4353 -0.0855,1.1927 0.51735,1.268 0.15298,0.028 0.2707,0 0.36085,-0.078 z"
         style="fill:none;stroke:#000000;stroke-width:0.22211115" />
      <path
         inkscape:connector-curvature="0"
         id="path5632"
         d="m -260.85431,1302.9641 c 0.23239,-0.4248 0.98462,-0.9537 0.65712,-1.5437 -0.19907,-0.8587 -1.70865,-0.7727 -1.82673,0.089 -0.26237,0.7485 0.68882,1.0783 1.16961,1.4551 z"
         style="fill:none;stroke:#000000;stroke-width:0.22211115" />
      <path
         inkscape:connector-curvature="0"
         id="path5630"
         d="m -222.33032,1271.5437 c -0.18074,-0.4975 -0.043,-1.2616 -0.59665,-1.5629 -0.69776,-0.4142 -1.71359,0.4512 -1.35357,1.2033 0.28341,0.9432 1.32664,0.6194 1.95022,0.3596 z"
         style="fill:none;stroke:#000000;stroke-width:0.22211115" />
      <path
         inkscape:connector-curvature="0"
         id="path5628"
         d="m -272.18364,1309.7102 c 0.0222,-0.028 0.0444,-0.039 0.0663,-0.067 0.49367,-0.2332 -0.10161,-0.8784 -0.006,-1.2149 -0.27153,0.061 -0.54045,0.1027 -0.81198,0.1638 -0.12605,0.2471 -0.23128,0.4989 -0.35716,0.7471 0.32764,0 0.76895,0.6369 1.10961,0.3709 z"
         style="fill:none;stroke:#000000;stroke-width:0.22211115" />
      <path
         inkscape:connector-curvature="0"
         id="path5626"
         d="m -267.36308,1305.0442 0.72486,-0.5639 c -0.18324,-0.3079 -0.2496,-0.8757 -0.71734,-0.8496 -0.44566,-0.067 -0.73918,0.4251 -0.67025,0.8029 0.19102,0.2443 0.43404,0.4131 0.66273,0.6106 z"
         style="fill:none;stroke:#000000;stroke-width:0.22211115" />
      <path
         inkscape:connector-curvature="0"
         id="path5624"
         d="m -196.19211,1249.2021 c 0.14159,-0.1055 0.25626,-0.2527 0.31889,-0.4404 0.30646,-0.764 -0.51993,-1.2471 -1.07607,-1.5278 -0.15853,0.4237 -1.0613,0.8071 -0.76628,1.4035 0.15964,0.7701 1.01821,0.9387 1.52346,0.5647 z"
         style="fill:none;stroke:#000000;stroke-width:0.22211115" />
      <path
         inkscape:connector-curvature="0"
         id="path5622"
         d="m -220.40678,1266.5559 c 0.50316,-0.364 0.63776,-1.2669 5.8e-4,-1.6334 -0.60423,-0.4872 -1.72145,0.175 -1.51213,0.9512 0.065,0.6628 0.84991,0.9718 1.40593,0.7455 0.0367,-0.028 0.0719,-0.039 0.10551,-0.064 z"
         style="fill:none;stroke:#000000;stroke-width:0.22211115" />
      <path
         inkscape:connector-curvature="0"
         id="path5620"
         d="m -202.53966,1250.0541 c 0.40316,-0.2876 0.51932,-0.9156 0.28847,-1.3601 -0.39375,-0.482 -1.26168,-0.6325 -1.64743,0 -0.55073,0.6913 0.34466,1.8904 1.16961,1.4548 0.0691,-0.028 0.13188,-0.058 0.18935,-0.1 z"
         style="fill:none;stroke:#000000;stroke-width:0.22211115" />
      <path
         inkscape:connector-curvature="0"
         id="path5618"
         d="m -207.30558,1251.7869 c 0.4887,-0.3959 0.66952,-1.1991 0.0319,-1.5873 -0.5432,-0.5536 -1.57077,-0.028 -1.52776,0.7383 -0.0569,0.626 0.5316,1.0692 1.11494,1.0469 0.13938,-0.039 0.2682,-0.1055 0.38098,-0.1971 z"
         style="fill:none;stroke:#000000;stroke-width:0.22211115" />
      <path
         inkscape:connector-curvature="0"
         id="path5616"
         d="m -216.911,1259.2468 c 0.32353,-0.2499 0.51535,-0.6405 0.44802,-1.0526 -0.20295,-0.912 -1.75934,-0.9584 -1.89946,0 -0.27265,0.6628 0.45238,1.2811 1.08898,1.255 0.13243,-0.047 0.25459,-0.1139 0.36246,-0.1972 z"
         style="fill:none;stroke:#000000;stroke-width:0.22211115" />
      <path
         inkscape:connector-curvature="0"
         id="path4"
         d="m -214.01437,1255.9134 c 0.62097,-0.4078 0.53762,-1.4317 -0.18491,-1.733 -0.71203,-0.3845 -1.59403,0.5084 -1.27039,1.2139 0.17936,0.5922 0.946,0.8778 1.45525,0.5191 z"
         style="fill:none;stroke:#000000;stroke-width:0.22211115" />
    </g>
  </g>
</svg>
