<?xml version="1.0" encoding="UTF-8" standalone="no"?>
<!-- Created with Inkscape (http://www.inkscape.org/) -->

<svg
   xmlns:dc="http://purl.org/dc/elements/1.1/"
   xmlns:cc="http://creativecommons.org/ns#"
   xmlns:rdf="http://www.w3.org/1999/02/22-rdf-syntax-ns#"
   xmlns:svg="http://www.w3.org/2000/svg"
   xmlns="http://www.w3.org/2000/svg"
   xmlns:sodipodi="http://sodipodi.sourceforge.net/DTD/sodipodi-0.dtd"
   xmlns:inkscape="http://www.inkscape.org/namespaces/inkscape"
   width="131.7515mm"
   height="85.562775mm"
   viewBox="0 0 466.83601 303.17518"
   id="svg5217"
   version="1.1"
   inkscape:version="0.91pre4 r13712"
   sodipodi:docname="pendent_thingy_circles.svg">
  <defs
     id="defs5219" />
  <sodipodi:namedview
     id="base"
     pagecolor="#ffffff"
     bordercolor="#666666"
     borderopacity="1.0"
     inkscape:pageopacity="0.0"
     inkscape:pageshadow="2"
     inkscape:zoom="1.979899"
     inkscape:cx="235.34843"
     inkscape:cy="109.55374"
     inkscape:document-units="mm"
     inkscape:current-layer="layer1"
     showgrid="false"
     fit-margin-top="20"
     fit-margin-left="20"
     fit-margin-bottom="20"
     fit-margin-right="20"
     inkscape:window-width="1920"
     inkscape:window-height="1017"
     inkscape:window-x="-8"
     inkscape:window-y="-8"
     inkscape:window-maximized="1" />
  <metadata
     id="metadata5222">
    <rdf:RDF>
      <cc:Work
         rdf:about="">
        <dc:format>image/svg+xml</dc:format>
        <dc:type
           rdf:resource="http://purl.org/dc/dcmitype/StillImage" />
        <dc:title></dc:title>
      </cc:Work>
    </rdf:RDF>
  </metadata>
  <g
     inkscape:label="Layer 1"
     inkscape:groupmode="layer"
     id="layer1"
     transform="translate(93.315733,-113.12766)">
    <path
       style="fill:none;stroke:#ff0000;stroke-opacity:1"
       d="m 302.15414,263.79077 c 0,43.79451 -35.5025,79.29698 -79.29701,79.29698 -43.79451,0 -79.29698,-35.50247 -79.29698,-79.29698 0,-43.79451 35.50247,-79.29697 79.29698,-79.29697 43.79451,0 79.29701,35.50246 79.29701,79.29697 z"
       id="path5426-4-9-3-6"
       inkscape:connector-curvature="0" />
    <path
       id="ellipse4-5"
       style="overflow:hidden;fill:none;stroke:#000000;stroke-width:0.84326965"
       d="m 191.02836,302.85266 c 5.60422,1.88369 11.59902,2.90256 17.83812,2.90256 4.82928,0 9.52043,-0.61023 13.99069,-1.7602 4.47026,1.14997 9.1614,1.7602 13.99068,1.7602 6.23921,0 12.23396,-1.01887 17.83813,-2.90256 -6.69737,12.20729 -18.13056,21.44893 -31.82881,25.2486 -13.69823,-3.79967 -25.13139,-13.04131 -31.82881,-25.2486 z m 97.62,-31.83468 c 0.28576,2.21185 0.43134,4.47133 0.43134,6.76095 0,28.84165 -23.38496,52.2224 -52.23185,52.2224 -2.29003,0 -4.54992,-0.14559 -6.76217,-0.43132 13.23125,-5.42553 23.92583,-15.77847 29.80021,-28.76896 12.9862,-5.87463 23.33791,-16.55909 28.76247,-29.78307 z m -27.9813,0 c 0.28576,2.21185 0.43132,4.47133 0.43132,6.76095 0,7.16051 -1.43713,13.98814 -4.04559,20.2012 -6.21431,2.60805 -13.04315,4.04491 -20.20493,4.04491 -2.29003,0 -4.54992,-0.14559 -6.76217,-0.43131 13.8395,-5.67502 24.90523,-16.73871 30.58138,-30.57575 z m -75.61969,0 c 5.67602,13.83704 16.74172,24.90073 30.58127,30.57575 -2.21223,0.28572 -4.47214,0.43131 -6.76216,0.43131 -7.16182,0 -13.99067,-1.43686 -20.20485,-4.04491 -2.60855,-6.21306 -4.04566,-13.04069 -4.04566,-20.2012 0,-2.28962 0.1456,-4.5491 0.4314,-6.76095 z m -27.98139,0 c 5.42456,13.22398 15.77628,23.90844 28.76249,29.78307 0.005,0.004 0.006,0.009 0.0121,0.0121 5.87573,12.98387 16.56211,23.33372 29.78852,28.75732 -2.21225,0.28572 -4.47211,0.43131 -6.76214,0.43131 -28.84691,0 -52.2319,-23.38075 -52.2319,-52.22241 0,-2.28962 0.14561,-4.5491 0.43139,-6.76094 z m 104.86021,-39.05023 c 12.20944,6.69621 21.45283,18.12725 25.25315,31.82302 -3.80033,13.69574 -13.04371,25.12682 -25.25315,31.82303 1.88401,-5.6032 2.90309,-11.59691 2.90309,-17.83487 0,-4.82842 -0.61041,-9.51871 -1.76057,-13.98816 1.15017,-4.46944 1.76057,-9.15973 1.76057,-13.98815 0,-6.23799 -1.01908,-12.23167 -2.90309,-17.83487 z m -78.138,0 c -1.88404,5.6032 -2.90309,11.59688 -2.90309,17.83487 0,4.82842 0.61035,9.51871 1.76053,13.98815 -1.15018,4.46945 -1.76053,9.15974 -1.76053,13.98816 0,6.23796 1.01905,12.23167 2.90309,17.83487 -12.2095,-6.69621 -21.45284,-18.12729 -25.25319,-31.82303 3.80036,-13.69577 13.04369,-25.12681 25.25319,-31.82302 z m 39.06898,-4.51121 c 17.5969,4.88112 31.45887,18.74054 36.34086,36.33423 -4.882,17.59366 -18.74397,31.45312 -36.34086,36.3342 -17.59685,-4.88108 -31.45883,-18.74054 -36.3408,-36.3342 4.88197,-17.59369 18.74395,-31.45311 36.3408,-36.33423 z m 13.99068,-1.90003 c 7.16178,0 13.99063,1.43686 20.20493,4.04489 2.60848,6.21308 4.0456,13.04071 4.0456,20.20122 0,2.28963 -0.14556,4.54911 -0.43131,6.76095 -5.67616,-13.83704 -16.74189,-24.90072 -30.58139,-30.57578 2.21225,-0.28573 4.47214,-0.43128 6.76217,-0.43128 z m -27.98137,0 c 2.29002,0 4.54993,0.14555 6.76216,0.43128 -13.83955,5.67506 -24.90525,16.73874 -30.58127,30.57578 -0.2858,-2.21184 -0.4314,-4.47132 -0.4314,-6.76095 0,-7.16051 1.43711,-13.98814 4.04566,-20.20122 6.21418,-2.60803 13.04303,-4.04489 20.20485,-4.04489 z m 13.99069,-26.07626 c 13.69826,3.79971 25.13144,13.04132 31.82882,25.24862 -5.60418,-1.88367 -11.59892,-2.90254 -17.83814,-2.90254 -4.82928,0 -9.52042,0.61023 -13.99068,1.76016 -4.47025,-1.14993 -9.1614,-1.76016 -13.99069,-1.76016 -6.2391,0 -12.2339,1.01887 -17.83812,2.90254 6.69742,-12.2073 18.13059,-21.44891 31.82881,-25.24862 z m 13.99068,-1.90004 c 28.84689,0 52.23185,23.38076 52.23185,52.22241 0,2.28963 -0.14558,4.54911 -0.43134,6.76095 -5.42456,-13.22399 -15.77627,-23.90848 -28.76246,-29.78311 0,-0.005 -0.0134,-0.006 -0.0134,-0.0121 -5.87572,-12.98388 -16.56213,-23.33371 -29.78856,-28.75731 2.21225,-0.28573 4.47213,-0.43128 6.76215,-0.43128 z m -27.98137,0 c 2.29002,0 4.54993,0.14557 6.76216,0.43129 -13.2312,5.42558 -23.92579,15.77847 -29.80017,28.76896 -12.98622,5.87463 -23.33794,16.55912 -28.76249,29.78311 -0.28578,-2.21184 -0.43139,-4.47132 -0.43139,-6.76095 0,-28.84165 23.38499,-52.22241 52.23189,-52.22241 z"
       inkscape:connector-curvature="0" />
    <g
       style="stroke:#ff0000;stroke-width:1.20000005"
       id="g4474"
       transform="matrix(0.23362883,0,0,0.23362883,-351.19702,60.859392)">
      <g
         style="stroke-width:2.26046681"
         transform="matrix(1.7923121,0,0,1.7919867,-1348.3109,3217.9498)"
         id="g3526">
        <path
           inkscape:connector-curvature="0"
           style="overflow:hidden;fill:none;stroke:#ff0000;stroke-width:2.26046681"
           d="m 1688.5,-1492.1404 c -82.8427,0 -150,67.1573 -150,150 0,12.9442 1.6359,25.5181 4.7188,37.5 -3.0829,11.9819 -4.7188,24.5558 -4.7188,37.5 0,82.8427 67.1573,150 150,150 12.9442,0 25.5181,-1.6359 37.5,-4.7188 11.9819,3.0829 24.5558,4.7188 37.5,4.7188 82.8427,0 150,-67.1573 150,-150 0,-12.9442 -1.6359,-25.5181 -4.7187,-37.5 3.0828,-11.9819 4.7187,-24.5558 4.7187,-37.5 0,-82.8427 -67.1573,-150 -150,-150 -12.9442,0 -25.5181,1.6359 -37.5,4.7187 -11.9819,-3.0828 -24.5558,-4.7187 -37.5,-4.7187 z"
           id="path3032" />
        <path
           inkscape:connector-curvature="0"
           style="overflow:hidden;fill:none;stroke:#000000;stroke-width:2.26046681"
           d="m 1688.5,-1482.1404 c 6.1381,0 12.1954,0.3902 18.125,1.1562 -35.4643,14.5451 -64.1296,42.2996 -79.875,77.125 -34.8077,15.749 -62.554,44.3924 -77.0937,79.8438 -0.766,-5.9296 -1.1563,-11.9869 -1.1563,-18.125 0,-77.3199 62.6801,-140 140,-140 z"
           id="path3030" />
        <path
           inkscape:connector-curvature="0"
           style="overflow:hidden;fill:none;stroke:#000000;stroke-width:2.26046681"
           d="m 1763.5,-1482.1404 c 77.3199,0 140,62.6801 140,140 0,6.1381 -0.3902,12.1954 -1.1562,18.125 -14.5398,-35.4514 -42.2861,-64.0948 -77.0938,-79.8438 -0.01,-0.013 -0.026,-0.019 -0.031,-0.031 -15.749,-34.8077 -44.3924,-62.554 -79.8438,-77.0938 5.9296,-0.766 11.9869,-1.1562 18.125,-1.1562 z"
           id="path3028" />
        <path
           inkscape:connector-curvature="0"
           style="overflow:hidden;fill:none;stroke:#000000;stroke-width:2.26046681"
           d="m 1726,-1477.0467 c 36.7162,10.1864 67.361,34.9617 85.3125,67.6875 -15.0213,-5.0498 -31.0894,-7.7812 -47.8125,-7.7812 -12.9442,0 -25.5181,1.6359 -37.5,4.7187 -11.9819,-3.0828 -24.5558,-4.7187 -37.5,-4.7187 -16.723,0 -32.7912,2.7314 -47.8125,7.7812 17.9515,-32.7258 48.5964,-57.5011 85.3125,-67.6875 z"
           id="path3026" />
        <path
           inkscape:connector-curvature="0"
           style="overflow:hidden;fill:none;stroke:#000000;stroke-width:2.26046681"
           d="m 1688.5,-1407.1404 c 6.1381,0 12.1954,0.3902 18.125,1.1562 -37.0949,15.2139 -66.7549,44.8739 -81.9687,81.9688 -0.766,-5.9296 -1.1563,-11.9869 -1.1563,-18.125 0,-19.1962 3.852,-37.5 10.8438,-54.1563 16.6562,-6.9917 34.96,-10.8437 54.1562,-10.8437 z"
           id="path3024" />
        <path
           inkscape:connector-curvature="0"
           style="overflow:hidden;fill:none;stroke:#000000;stroke-width:2.26046681"
           d="m 1763.5,-1407.1404 c 19.1962,0 37.5,3.852 54.1563,10.8437 6.9917,16.6563 10.8437,34.9601 10.8437,54.1563 0,6.1381 -0.3902,12.1954 -1.1562,18.125 -15.2139,-37.0949 -44.8739,-66.7549 -81.9688,-81.9688 5.9296,-0.766 11.9869,-1.1562 18.125,-1.1562 z"
           id="path3022" />
        <path
           inkscape:connector-curvature="0"
           style="overflow:hidden;fill:none;stroke:#000000;stroke-width:2.26046681"
           d="m 1726,-1402.0467 c 47.1659,13.0855 84.3208,50.2404 97.4063,97.4063 -13.0855,47.1658 -50.2404,84.3208 -97.4063,97.4062 -47.1658,-13.0854 -84.3208,-50.2404 -97.4062,-97.4062 13.0854,-47.1659 50.2404,-84.3208 97.4062,-97.4063 z"
           id="path3020" />
        <path
           inkscape:connector-curvature="0"
           style="overflow:hidden;fill:none;stroke:#000000;stroke-width:2.26046681"
           d="m 1621.2813,-1389.9529 c -5.0499,15.0213 -7.7813,31.0894 -7.7813,47.8125 0,12.9442 1.6359,25.5181 4.7188,37.5 -3.0829,11.9819 -4.7188,24.5558 -4.7188,37.5 0,16.723 2.7314,32.7912 7.7813,47.8125 -32.7258,-17.9515 -57.5012,-48.5964 -67.6875,-85.3125 10.1863,-36.7162 34.9617,-67.361 67.6875,-85.3125 z"
           id="path3018" />
        <path
           inkscape:connector-curvature="0"
           style="overflow:hidden;fill:none;stroke:#000000;stroke-width:2.26046681"
           d="m 1830.7188,-1389.9529 c 32.7258,17.9515 57.5011,48.5963 67.6875,85.3125 -10.1864,36.7161 -34.9617,67.361 -67.6875,85.3125 5.0498,-15.0213 7.7812,-31.0895 7.7812,-47.8125 0,-12.9442 -1.6359,-25.5181 -4.7187,-37.5 3.0828,-11.9819 4.7187,-24.5558 4.7187,-37.5 0,-16.7231 -2.7314,-32.7912 -7.7812,-47.8125 z"
           id="path3016" />
        <path
           inkscape:connector-curvature="0"
           style="overflow:hidden;fill:none;stroke:#000000;stroke-width:2.26046681"
           d="m 1549.6563,-1285.2654 c 14.5397,35.4514 42.286,64.0947 77.0937,79.8437 0.013,0.01 0.019,0.026 0.031,0.031 15.749,34.8077 44.3923,62.554 79.8438,77.0938 -5.9296,0.766 -11.9869,1.1563 -18.125,1.1563 -77.3199,0 -140,-62.6801 -140,-140 0,-6.1381 0.3903,-12.1954 1.1563,-18.125 z"
           id="path3014" />
        <path
           inkscape:connector-curvature="0"
           style="overflow:hidden;fill:none;stroke:#000000;stroke-width:2.26046681"
           d="m 1624.6563,-1285.2654 c 15.2138,37.0949 44.8738,66.7549 81.9687,81.9687 -5.9296,0.766 -11.9869,1.1563 -18.125,1.1563 -19.1962,0 -37.5,-3.852 -54.1562,-10.8438 -6.9918,-16.6562 -10.8438,-34.96 -10.8438,-54.1562 0,-6.1381 0.3903,-12.1954 1.1563,-18.125 z"
           id="path3012" />
        <path
           inkscape:connector-curvature="0"
           style="overflow:hidden;fill:none;stroke:#000000;stroke-width:2.26046681"
           d="m 1827.3438,-1285.2654 c 0.766,5.9296 1.1562,11.9869 1.1562,18.125 0,19.1962 -3.852,37.5 -10.8437,54.1562 -16.6563,6.9918 -34.9601,10.8438 -54.1563,10.8438 -6.1381,0 -12.1954,-0.3903 -18.125,-1.1563 37.0949,-15.2138 66.7549,-44.8738 81.9688,-81.9687 z"
           id="path3010" />
        <path
           inkscape:connector-curvature="0"
           style="overflow:hidden;fill:none;stroke:#000000;stroke-width:2.26046681"
           d="m 1902.3438,-1285.2654 c 0.766,5.9296 1.1562,11.9869 1.1562,18.125 0,77.3199 -62.6801,140 -140,140 -6.1381,0 -12.1954,-0.3903 -18.125,-1.1563 35.4643,-14.545 64.1296,-42.2996 79.875,-77.125 34.8077,-15.749 62.554,-44.3923 77.0938,-79.8437 z"
           id="path3008" />
        <path
           inkscape:connector-curvature="0"
           style="overflow:hidden;fill:none;stroke:#000000;stroke-width:2.26046681"
           d="m 1640.6875,-1199.9217 c 15.0213,5.0499 31.0895,7.7813 47.8125,7.7813 12.9442,0 25.5181,-1.6359 37.5,-4.7188 11.9819,3.0829 24.5558,4.7188 37.5,4.7188 16.7231,0 32.7912,-2.7314 47.8125,-7.7813 -17.9515,32.7258 -48.5963,57.5012 -85.3125,67.6875 -36.7161,-10.1863 -67.361,-34.9617 -85.3125,-67.6875 z"
           id="ellipse4-5-0" />
      </g>
    </g>
  </g>
</svg>
