<?xml version="1.0" encoding="UTF-8" standalone="no"?>
<!-- Created with Inkscape (http://www.inkscape.org/) -->

<svg
   xmlns:dc="http://purl.org/dc/elements/1.1/"
   xmlns:cc="http://creativecommons.org/ns#"
   xmlns:rdf="http://www.w3.org/1999/02/22-rdf-syntax-ns#"
   xmlns:svg="http://www.w3.org/2000/svg"
   xmlns="http://www.w3.org/2000/svg"
   xmlns:sodipodi="http://sodipodi.sourceforge.net/DTD/sodipodi-0.dtd"
   xmlns:inkscape="http://www.inkscape.org/namespaces/inkscape"
   width="86.61927mm"
   height="86.619621mm"
   viewBox="0 0 306.91867 306.91992"
   id="svg4173"
   version="1.1"
   inkscape:version="0.91pre4 r13712"
   sodipodi:docname="pendent_more_random_circles.svg"
   inkscape:export-filename="C:\Users\steve\Documents\GitHub\BurnignMan2015\pendent_more_random_circles.png"
   inkscape:export-xdpi="90"
   inkscape:export-ydpi="90">
  <defs
     id="defs4175" />
  <sodipodi:namedview
     id="base"
     pagecolor="#ffffff"
     bordercolor="#666666"
     borderopacity="1.0"
     inkscape:pageopacity="0.0"
     inkscape:pageshadow="2"
     inkscape:zoom="1.979899"
     inkscape:cx="129.34934"
     inkscape:cy="103.92754"
     inkscape:document-units="mm"
     inkscape:current-layer="layer1"
     showgrid="false"
     fit-margin-top="20"
     fit-margin-left="20"
     fit-margin-right="20"
     fit-margin-bottom="20"
     inkscape:window-width="1920"
     inkscape:window-height="1017"
     inkscape:window-x="1912"
     inkscape:window-y="-8"
     inkscape:window-maximized="1" />
  <metadata
     id="metadata4178">
    <rdf:RDF>
      <cc:Work
         rdf:about="">
        <dc:format>image/svg+xml</dc:format>
        <dc:type
           rdf:resource="http://purl.org/dc/dcmitype/StillImage" />
        <dc:title></dc:title>
      </cc:Work>
    </rdf:RDF>
  </metadata>
  <g
     inkscape:label="Layer 1"
     inkscape:groupmode="layer"
     id="layer1"
     transform="translate(-100.8264,-76.045097)">
    <g
       style="stroke:#ff0000;stroke-width:1.20000005"
       id="g4854"
       transform="matrix(0.26129457,-0.01939814,0.01939814,0.26129457,-2152.2036,291.50492)">
      <g
         id="g5107"
         transform="matrix(0.99993579,-0.0113318,0.0113318,0.99993579,3187.6478,-448.9321)">
        <path
           id="path5105"
           d="m 5761.6654,701.56869 c -1.6774,1.40503 -3.3531,2.85729 -4.9847,4.29626 -0.525,0.47522 -1.0571,0.9594 -1.5745,1.43982 -65.6035,58.81847 -93.6019,144.68052 -81.3261,226.49165 -26.4307,78.39128 -13.9216,167.83248 40.3521,237.24278 0.4395,0.5621 0.8523,1.1344 1.2974,1.6938 0.4522,0.5834 0.9676,1.1256 1.4282,1.7051 0.8691,1.1512 1.789,2.2806 2.7257,3.3988 0.9367,1.1183 1.8865,2.2226 2.8683,3.2794 0.4821,0.557 0.9417,1.1539 1.4282,1.7052 0.475,0.525 0.9596,1.0567 1.44,1.5743 58.8185,65.6034 144.6806,93.6018 226.4918,81.326 79.026,26.6448 169.2942,13.7448 238.9363,-41.6497 0.5841,-0.4514 1.1263,-0.9669 1.7051,-1.4283 1.1512,-0.869 2.2799,-1.7897 3.3982,-2.7264 1.1183,-0.9367 2.2213,-1.888 3.2801,-2.8675 1.0877,-0.9594 2.2213,-1.888 3.2794,-2.8683 65.6033,-58.8186 93.6017,-144.6806 81.326,-226.49169 26.4307,-78.39127 13.9215,-167.83241 -40.3521,-237.24286 -0.4252,-0.56375 -0.8645,-1.13337 -1.2981,-1.69308 -0.4582,-0.575 -0.9645,-1.13277 -1.4283,-1.70512 -0.869,-1.1512 -1.789,-2.28059 -2.7257,-3.39885 -0.9367,-1.11827 -1.888,-2.22132 -2.8675,-3.28006 -0.489,-0.55576 -0.9323,-1.15827 -1.4282,-1.70513 -58.8502,-66.74764 -145.458,-95.27563 -227.9317,-82.90046 -78.3911,-26.4307 -167.8323,-13.9215 -237.2427,40.35207 -0.5636,0.42552 -1.1335,0.86433 -1.6936,1.29769 -0.5754,0.45771 -1.1325,0.9648 -1.705,1.42822 -1.135,0.90304 -2.2805,1.78925 -3.3987,2.72592 z"
           style="overflow:hidden;fill:none;stroke:#ff0000;stroke-width:3.55878139"
           inkscape:connector-curvature="0" />
        <path
           id="path5103"
           d="m 5776.9,719.7564 c 25.7398,-21.56046 64.0842,-18.17248 85.6446,7.56729 0.2376,0.28367 0.4853,0.56371 0.7141,0.85254 -14.9368,15.0658 -27.6195,31.64746 -38.0364,49.26925 -19.1753,7.16562 -37.7239,16.74437 -55.1755,28.80814 -0.2442,-0.27599 -0.4765,-0.56887 -0.7141,-0.85254 -20.8867,-24.93537 -18.3683,-61.67515 5.2113,-83.55033 0.7963,-0.68529 1.5481,-1.4176 2.356,-2.09433 z"
           style="overflow:hidden;fill:none;stroke:#000000;stroke-width:3.55878139"
           inkscape:connector-curvature="0" />
        <path
           id="path5101"
           d="m 5733.0731,783.18468 c 2.7029,13.35832 8.705,26.26835 18.0719,37.45101 -9.2138,7.71779 -17.6991,15.97956 -25.5326,24.65106 -2.0341,-20.96234 0.5088,-42.16236 7.4607,-62.10207 z"
           style="overflow:hidden;fill:none;stroke:#000000;stroke-width:3.55878139"
           inkscape:connector-curvature="0" />
        <path
           id="path5099"
           d="m 5847.0304,687.7303 c 20.8498,-3.34789 42.1672,-2.13409 62.4482,3.54407 -9.9109,6.19176 -19.5325,13.09692 -28.7463,20.81472 -9.3669,-11.18266 -21.0245,-19.35553 -33.7019,-24.35879 z"
           style="overflow:hidden;fill:none;stroke:#000000;stroke-width:3.55878139"
           inkscape:connector-curvature="0" />
        <path
           id="path5097"
           d="m 5701.4771,840.72016 c 0.5524,9.92473 1.9889,19.77144 4.2991,29.52378 -3.8795,5.57123 -7.5929,11.24315 -10.9804,17.05556 0.5992,-15.69492 2.9081,-31.30057 6.6813,-46.57934 z"
           style="overflow:hidden;fill:none;stroke:#000000;stroke-width:3.55878139"
           inkscape:connector-curvature="0" />
        <path
           id="path5095"
           d="m 5909.2146,666.71238 c 15.7038,-1.03584 31.4725,-0.57258 47.0292,1.58956 -6.3163,2.31589 -12.5514,4.97719 -18.7166,7.81969 -9.1961,-3.98442 -18.6384,-7.12527 -28.3126,-9.40925 z"
           style="overflow:hidden;fill:none;stroke:#000000;stroke-width:3.55878139"
           inkscape:connector-curvature="0" />
        <path
           id="path5093"
           d="m 5766.3797,838.8234 c 0.8792,-0.73645 1.8015,-1.40961 2.6882,-2.13093 8.5208,5.68264 17.8887,9.77741 27.619,12.0454 -4.7539,20.38996 -6.9011,41.26649 -6.5468,62.18285 -10.4179,3.88212 -20.563,8.77984 -30.2565,14.82609 -0.3644,-0.41943 -0.7135,-0.85182 -1.0712,-1.2788 -12.5898,-15.03026 -21.5819,-31.83421 -27.1442,-49.43647 10.0275,-13.0326 21.5842,-25.21229 34.7114,-36.20815 z"
           style="overflow:hidden;fill:none;stroke:#000000;stroke-width:3.55878139"
           inkscape:connector-curvature="0" />
        <path
           id="path5091"
           d="m 5895.967,730.2768 c 13.1273,-10.99592 27.1447,-20.23786 41.7336,-27.82482 16.3542,8.56265 31.3212,20.36179 43.911,35.39205 0.3577,0.42699 0.7222,0.84653 1.0712,1.27881 -7.6523,8.48316 -14.253,17.61234 -19.9017,27.18806 -20.5302,-4.01626 -41.4598,-5.56296 -62.3675,-4.45795 -0.5266,-9.97731 -2.9154,-19.91795 -7.0158,-29.30329 0.8656,-0.74638 1.69,-1.53645 2.5692,-2.27284 z"
           style="overflow:hidden;fill:none;stroke:#000000;stroke-width:3.55878139"
           inkscape:connector-curvature="0" />
        <path
           id="path5089"
           d="m 5790.2219,821.39107 c 6.0519,-3.87937 12.2148,-7.41785 18.5078,-10.66702 -2.008,4.937 -3.9113,9.92904 -5.5985,14.96545 -4.4293,-0.95274 -8.7593,-2.36275 -12.9093,-4.29843 z"
           style="overflow:hidden;fill:none;stroke:#000000;stroke-width:3.55878139"
           inkscape:connector-curvature="0" />
        <path
           id="path5087"
           d="m 5874.6242,750.69295 c 1.178,4.42508 1.8069,8.93528 1.9682,13.46301 -5.2543,0.77798 -10.5027,1.77648 -15.7152,2.88761 4.3023,-5.6258 8.8665,-11.07274 13.747,-16.35062 z"
           style="overflow:hidden;fill:none;stroke:#000000;stroke-width:3.55878139"
           inkscape:connector-curvature="0" />
        <path
           id="path5085"
           d="m 5715.4013,899.05402 c 6.2955,14.34293 14.6583,28.03549 25.2234,40.64861 -12.6131,10.56518 -23.2471,22.57926 -31.9601,35.59608 -4.7257,-12.85544 -8.1314,-26.03582 -10.4705,-39.3451 4.6366,-12.69296 10.3006,-25.07193 17.2072,-36.89959 z"
           style="overflow:hidden;fill:none;stroke:#000000;stroke-width:3.55878139"
           inkscape:connector-curvature="0" />
        <path
           id="path5083"
           d="m 5964.2033,690.64931 c 12.8553,-4.72568 26.0358,-8.13142 39.3451,-10.47055 12.6928,4.63665 25.0718,10.30066 36.8995,17.20731 -14.3429,6.29549 -28.0355,14.65824 -40.6486,25.22335 -10.5651,-12.61311 -22.5793,-23.24715 -35.596,-31.96011 z"
           style="overflow:hidden;fill:none;stroke:#000000;stroke-width:3.55878139"
           inkscape:connector-curvature="0" />
        <path
           id="path5081"
           d="m 5841.5281,796.912 c 10.1391,-3.36345 20.4287,-6.02938 30.8316,-7.93341 -3.6074,9.01483 -9.4176,17.31828 -17.3823,23.98973 -7.9647,6.67151 -17.1582,10.93572 -26.6659,12.90653 3.6986,-9.9079 8.1274,-19.57056 13.2166,-28.96285 z"
           style="overflow:hidden;fill:none;stroke:#000000;stroke-width:3.55878139"
           inkscape:connector-curvature="0" />
        <path
           id="path5079"
           d="m 5820.6497,850.78927 c 17.5823,-0.97049 35.0248,-7.45613 49.5623,-19.63324 14.5375,-12.17706 23.9812,-28.21219 28.0196,-45.35187 15.8569,-1.07786 31.7822,-0.61864 47.492,1.56471 -26.7895,9.82227 -52.3779,24.40967 -75.5116,43.78716 -23.1337,19.37755 -41.9818,42.01165 -56.3492,66.6638 0.6051,-15.84924 2.9454,-31.6083 6.7869,-47.03056 z"
           style="overflow:hidden;fill:none;stroke:#000000;stroke-width:3.55878139"
           inkscape:connector-curvature="0" />
        <path
           id="path5077"
           d="m 5686.3173,983.25805 c 2.3157,6.31641 4.9771,12.5515 7.8196,18.71675 -3.9843,9.1961 -7.1253,18.6384 -9.4093,28.3125 -1.0358,-15.7037 -0.5725,-31.47241 1.5897,-47.02925 z"
           style="overflow:hidden;fill:none;stroke:#000000;stroke-width:3.55878139"
           inkscape:connector-curvature="0" />
        <path
           id="path5075"
           d="m 6052.2025,676.78055 c 15.6948,0.59919 31.3005,2.908 46.5793,6.68127 -9.9247,0.55227 -19.7714,1.98895 -29.5238,4.29908 -5.5713,-3.87942 -11.2431,-7.59287 -17.0555,-10.98035 z"
           style="overflow:hidden;fill:none;stroke:#000000;stroke-width:3.55878139"
           inkscape:connector-curvature="0" />
        <path
           id="path5073"
           d="m 5755.8593,957.89028 c 0.4269,-0.3576 0.8478,-0.72056 1.2788,-1.07113 8.4832,7.65229 17.6124,14.25312 27.1881,19.9017 -4.0163,20.5302 -5.563,41.45985 -4.458,62.36745 -9.9772,0.5266 -19.9179,2.9154 -29.3033,7.0159 -0.7461,-0.8658 -1.5368,-1.6898 -2.2732,-2.569 -10.9959,-13.1273 -20.2378,-27.1447 -27.8248,-41.7336 8.5627,-16.35421 20.3619,-31.32125 35.3921,-43.91106 z"
           style="overflow:hidden;fill:none;stroke:#000000;stroke-width:3.55878139"
           inkscape:connector-curvature="0" />
        <path
           id="path5071"
           d="m 5885.4466,849.34368 c 18.0393,-15.11029 37.6722,-26.94878 58.2789,-35.63892 -9.9377,42.69563 -3.2134,88.83606 21.0773,127.77964 -0.4207,0.3629 -0.8518,0.71353 -1.2788,1.0712 -0.427,0.35766 -0.8479,0.72063 -1.2788,1.07119 -34.081,-30.74297 -78.3276,-45.45349 -122.1043,-43.15614 12.1688,-18.76364 27.2664,-36.01668 45.3057,-51.12697 z"
           style="overflow:hidden;fill:none;stroke:#000000;stroke-width:3.55878139"
           inkscape:connector-curvature="0" />
        <path
           id="path5069"
           d="m 6013.7551,741.86828 c 0.4208,-0.3629 0.8518,-0.71354 1.2788,-1.0712 15.0302,-12.58981 31.8343,-21.58184 49.4365,-27.14418 13.0326,10.02754 25.2123,21.5841 36.2082,34.71141 0.7364,0.87916 1.4098,1.80141 2.1306,2.68845 -5.6826,8.5209 -9.7774,17.88874 -12.0453,27.61907 -20.39,-4.75391 -41.2664,-6.9012 -62.1829,-6.5469 -3.8821,-10.41773 -8.7798,-20.56297 -14.8262,-30.25646 z"
           style="overflow:hidden;fill:none;stroke:#000000;stroke-width:3.55878139"
           inkscape:connector-curvature="0" />
        <path
           id="path5067"
           d="m 5777.4414,942.95567 c 4.6535,-2.64936 9.3422,-5.07872 14.1856,-7.16748 0.3313,2.86998 0.7191,5.72695 1.149,8.58815 -0.9152,2.71723 -1.7446,5.45144 -2.5661,8.19408 -4.4284,-2.91908 -8.6284,-6.17117 -12.7685,-9.61475 z"
           style="overflow:hidden;fill:none;stroke:#000000;stroke-width:3.55878139"
           inkscape:connector-curvature="0" />
        <path
           id="path5065"
           d="m 5996.5463,759.42616 c 2.6643,4.6798 5.1296,9.3849 7.2269,14.25656 -2.8441,0.32782 -5.6815,0.66497 -8.5171,1.08955 -2.7573,-0.9303 -5.5411,-1.7439 -8.3246,-2.57759 2.9191,-4.42846 6.1712,-8.62835 9.6148,-12.76852 z"
           style="overflow:hidden;fill:none;stroke:#000000;stroke-width:3.55878139"
           inkscape:connector-curvature="0" />
        <path
           id="path5063"
           d="m 5825.9897,925.86424 c 40.6434,-6.52609 83.1675,4.35715 115.9522,31.6261 -37.0582,21.09781 -80.8318,24.35613 -119.7012,10.80456 -2.0108,-7.21654 -3.6911,-14.48917 -4.9797,-21.82102 2.5541,-6.99211 5.4836,-13.85753 8.7287,-20.60964 z"
           style="overflow:hidden;fill:none;stroke:#000000;stroke-width:3.55878139"
           inkscape:connector-curvature="0" />
        <path
           id="path5061"
           d="m 5971.207,804.22542 c 7.2166,-2.01093 14.4892,-3.69114 21.8209,-4.97971 6.9923,2.55422 13.8577,5.48369 20.6098,8.72874 6.5261,40.64338 -4.3572,83.16748 -31.626,115.95214 -21.0979,-37.05819 -24.3563,-80.83178 -10.8047,-119.70117 z"
           style="overflow:hidden;fill:none;stroke:#000000;stroke-width:3.55878139"
           inkscape:connector-curvature="0" />
        <path
           id="path5059"
           d="m 5709.2897,1030.0233 c 6.1917,9.9109 13.0969,19.5325 20.8146,28.7463 -11.1826,9.367 -19.3554,21.0245 -24.3587,33.7019 -3.3478,-20.8498 -2.134,-42.1672 3.5441,-62.4482 z"
           style="overflow:hidden;fill:none;stroke:#000000;stroke-width:3.55878139"
           inkscape:connector-curvature="0" />
        <path
           id="path5057"
           d="m 6094.2151,707.59706 c 20.9624,-2.03402 42.1624,0.50889 62.1022,7.46078 -13.3584,2.70287 -26.2683,8.7049 -37.4511,18.07193 -7.7177,-9.21377 -15.9794,-17.69914 -24.6511,-25.53271 z"
           style="overflow:hidden;fill:none;stroke:#000000;stroke-width:3.55878139"
           inkscape:connector-curvature="0" />
        <path
           id="path5055"
           d="m 5805.3842,993.77839 c 9.8222,26.78951 24.4096,52.37791 43.7871,75.51151 19.3776,23.1337 42.0117,41.9818 66.6639,56.3493 -15.8493,-0.6051 -31.6083,-2.9454 -47.0306,-6.787 -0.9705,-17.5822 -7.4562,-35.0249 -19.6333,-49.5623 -12.177,-14.5374 -28.2122,-23.9811 -45.3518,-28.0196 -1.0779,-15.857 -0.6187,-31.7821 1.5647,-47.49191 z"
           style="overflow:hidden;fill:none;stroke:#000000;stroke-width:3.55878139"
           inkscape:connector-curvature="0" />
        <path
           id="path5053"
           d="m 6041.682,795.84749 c 15.8494,0.60501 31.6083,2.94527 47.0306,6.78689 0.9705,17.58231 7.4563,35.02487 19.6333,49.56233 12.1771,14.53746 28.2122,23.98118 45.3519,28.0196 1.0779,15.85697 0.6187,31.78209 -1.5648,47.49199 -9.8221,-26.78957 -24.4095,-52.3779 -43.7871,-75.51159 -19.3775,-23.13363 -42.0116,-41.98186 -66.6639,-56.34922 z"
           style="overflow:hidden;fill:none;stroke:#000000;stroke-width:3.55878139"
           inkscape:connector-curvature="0" />
        <path
           id="path5051"
           d="m 5831.72,995.77644 c 42.6957,9.93776 88.8362,3.2135 127.7798,-21.07732 0.3644,0.41943 0.7135,0.85182 1.0711,1.2788 0.3577,0.42699 0.7222,0.84653 1.0712,1.2788 -30.743,34.08098 -45.4535,78.32758 -43.1562,122.10428 -18.7636,-12.1688 -36.0166,-27.2665 -51.1269,-45.3057 -15.1102,-18.0392 -26.9488,-37.6722 -35.639,-58.27886 z"
           style="overflow:hidden;fill:none;stroke:#000000;stroke-width:3.55878139"
           inkscape:connector-curvature="0" />
        <path
           id="path5049"
           d="m 6039.0313,822.12568 c 18.7636,12.16872 36.0167,27.26643 51.1269,45.30564 15.1103,18.03921 26.9489,37.67227 35.639,58.27893 -42.6957,-9.93772 -88.8361,-3.21356 -127.7797,21.07726 -0.3644,-0.41943 -0.7135,-0.85182 -1.0712,-1.2788 -0.3576,-0.42698 -0.7221,-0.84653 -1.0712,-1.2788 30.7431,-34.08103 45.4535,-78.32753 43.1562,-122.10423 z"
           style="overflow:hidden;fill:none;stroke:#000000;stroke-width:3.55878139"
           inkscape:connector-curvature="0" />
        <path
           id="path5047"
           d="m 5745.339,1076.9573 c 0.2836,-0.2376 0.5649,-0.4837 0.8525,-0.7141 15.0658,14.9368 31.6475,27.6195 49.2692,38.0365 7.1657,19.1752 16.7445,37.7239 28.8082,55.1754 -0.2773,0.2427 -0.5689,0.4765 -0.8526,0.7141 -24.9353,20.8867 -61.6751,18.3684 -83.5503,-5.2112 -0.7059,-0.7603 -1.4208,-1.5515 -2.0946,-2.3559 -0.6767,-0.8079 -1.2882,-1.6609 -1.952,-2.4752 -19.3787,-25.6708 -15.4158,-62.283 9.5196,-83.1696 z"
           style="overflow:hidden;fill:none;stroke:#000000;stroke-width:3.55878139"
           inkscape:connector-curvature="0" />
        <path
           id="path5045"
           d="m 6133.2483,752.0316 c 0.2774,-0.24276 0.5689,-0.47652 0.8525,-0.71411 25.7399,-21.56053 64.0842,-18.17255 85.6447,7.56723 21.5605,25.73977 18.1726,64.08416 -7.5673,85.64469 -0.2836,0.23758 -0.5649,0.48361 -0.8525,0.71411 -15.0658,-14.93688 -31.6474,-27.61966 -49.2693,-38.03652 -7.1655,-19.17535 -16.7443,-37.72396 -28.8081,-55.1754 z"
           style="overflow:hidden;fill:none;stroke:#000000;stroke-width:3.55878139"
           inkscape:connector-curvature="0" />
        <path
           id="path5043"
           d="m 5768.7082,1064.8778 c 4.4251,-1.178 8.9353,-1.8068 13.463,-1.9683 0.778,5.2543 1.7765,10.5028 2.8877,15.7152 -5.6258,-4.3021 -11.0728,-8.8665 -16.3507,-13.7469 z"
           style="overflow:hidden;fill:none;stroke:#000000;stroke-width:3.55878139"
           inkscape:connector-curvature="0" />
        <path
           id="path5041"
           d="m 6118.1108,772.2066 c 3.8794,6.05193 7.4179,12.21479 10.6671,18.50775 -4.937,-2.00792 -9.9291,-3.91117 -14.9654,-5.59849 0.9527,-4.42919 2.3627,-8.75935 4.2983,-12.90926 z"
           style="overflow:hidden;fill:none;stroke:#000000;stroke-width:3.55878139"
           inkscape:connector-curvature="0" />
        <path
           id="path5039"
           d="m 5806.9939,1067.1422 c 9.0148,3.6075 17.3182,9.4177 23.9897,17.3824 6.6715,7.9646 10.9357,17.1582 12.9066,26.6659 -9.908,-3.6987 -19.5706,-8.1274 -28.9629,-13.2166 -3.3635,-10.1392 -6.0294,-20.4287 -7.9334,-30.8317 z"
           style="overflow:hidden;fill:none;stroke:#000000;stroke-width:3.55878139"
           inkscape:connector-curvature="0" />
        <path
           id="path5037"
           d="m 6113.627,810.29612 c 9.908,3.69869 19.5706,8.12747 28.9629,13.21669 3.3635,10.13916 6.0294,20.42864 7.9335,30.83166 -9.0149,-3.60751 -17.3183,-9.41767 -23.9898,-17.38236 -6.6715,-7.96469 -10.9357,-17.15823 -12.9066,-26.66599 z"
           style="overflow:hidden;fill:none;stroke:#000000;stroke-width:3.55878139"
           inkscape:connector-curvature="0" />
        <path
           id="path5035"
           d="m 5992.7144,980.00223 c 0.4207,-0.36284 0.8519,-0.71354 1.2789,-1.0712 0.427,-0.35767 0.8477,-0.72057 1.2788,-1.0712 34.081,30.74297 78.3275,45.45357 122.1042,43.15627 -12.1688,18.7635 -27.2664,36.0166 -45.3056,51.1269 -18.0393,15.1102 -37.6724,26.9487 -58.279,35.6389 9.9377,-42.6956 3.2135,-88.8361 -21.0773,-127.77967 z"
           style="overflow:hidden;fill:none;stroke:#000000;stroke-width:3.55878139"
           inkscape:connector-curvature="0" />
        <path
           id="path5033"
           d="m 5975.5056,997.56005 c 21.0978,37.05815 24.3561,80.83185 10.8046,119.70115 -7.2165,2.0109 -14.4892,3.6912 -21.8209,4.9797 -6.9923,-2.5542 -13.8576,-5.4837 -20.6098,-8.7287 -6.5261,-40.6434 4.3572,-83.1675 31.6261,-115.95215 z"
           style="overflow:hidden;fill:none;stroke:#000000;stroke-width:3.55878139"
           inkscape:connector-curvature="0" />
        <path
           id="path5031"
           d="m 6015.5754,963.99629 c 37.0581,-21.09781 80.8317,-24.35614 119.7011,-10.8045 2.0109,7.21648 3.6911,14.48918 4.9797,21.82095 -2.5541,6.99219 -5.4836,13.85753 -8.7287,20.60971 -40.6434,6.52615 -83.1675,-4.35727 -115.9521,-31.62616 z"
           style="overflow:hidden;fill:none;stroke:#000000;stroke-width:3.55878139"
           inkscape:connector-curvature="0" />
        <path
           id="path5029"
           d="m 5828.7394,1130.7722 c 4.9369,2.008 9.9289,3.9113 14.9654,5.5985 -0.9529,4.4293 -2.3627,8.7594 -4.2984,12.9094 -3.8794,-6.052 -7.4179,-12.2148 -10.667,-18.5079 z"
           style="overflow:hidden;fill:none;stroke:#000000;stroke-width:3.55878139"
           inkscape:connector-curvature="0" />
        <path
           id="path5027"
           d="m 6172.4584,842.8619 c 5.6257,4.30224 11.0726,8.86659 16.3506,13.74702 -4.425,1.17795 -8.9353,1.80681 -13.463,1.9682 -0.7781,-5.25422 -1.7765,-10.50269 -2.8876,-15.71522 z"
           style="overflow:hidden;fill:none;stroke:#000000;stroke-width:3.55878139"
           inkscape:connector-curvature="0" />
        <path
           id="path5025"
           d="m 5866.7532,1142.815 c 20.3899,4.7539 41.2665,6.9011 62.1828,6.5469 3.8821,10.4178 8.7799,20.5629 14.8261,30.2565 -0.4194,0.3644 -0.8518,0.7135 -1.2787,1.0711 -15.0302,12.5899 -31.8343,21.5819 -49.4366,27.1442 -13.0326,-10.0275 -25.2123,-21.5841 -36.2081,-34.7114 -0.7365,-0.8792 -1.4098,-1.8014 -2.1307,-2.6885 5.6828,-8.5209 9.7776,-17.8887 12.0455,-27.6191 z"
           style="overflow:hidden;fill:none;stroke:#000000;stroke-width:3.55878139"
           inkscape:connector-curvature="0" />
        <path
           id="path5023"
           d="m 6177.6489,882.3984 c 9.9774,-0.52663 19.9181,-2.91544 29.3034,-7.01594 0.7476,0.86457 1.5368,1.68985 2.2732,2.56901 10.9958,13.1273 20.2377,27.14475 27.8247,41.7337 -8.5624,16.35403 -20.3616,31.32107 -35.3919,43.91088 -0.4269,0.35767 -0.8464,0.7221 -1.2788,1.0712 -8.4832,-7.65238 -17.6124,-14.25311 -27.188,-19.9018 4.0163,-20.5302 5.5629,-41.45978 4.4578,-62.36737 z"
           style="overflow:hidden;fill:none;stroke:#000000;stroke-width:3.55878139"
           inkscape:connector-curvature="0" />
        <path
           id="path5021"
           d="m 5801.2,1206.4288 c 13.3584,-2.7029 26.2683,-8.7049 37.451,-18.0719 7.7177,9.2138 15.9795,17.6991 24.6511,25.5327 -20.9623,2.034 -42.1624,-0.509 -62.1021,-7.4608 z"
           style="overflow:hidden;fill:none;stroke:#000000;stroke-width:3.55878139"
           inkscape:connector-curvature="0" />
        <path
           id="path5019"
           d="m 6251.7716,829.01507 c 3.3478,20.84977 2.1341,42.16728 -3.544,62.44824 -6.1917,-9.91086 -13.097,-19.53243 -20.8147,-28.74619 11.1827,-9.36704 19.3554,-21.02455 24.3587,-33.70205 z"
           style="overflow:hidden;fill:none;stroke:#000000;stroke-width:3.55878139"
           inkscape:connector-curvature="0" />
        <path
           id="path5017"
           d="m 5953.744,1147.8039 c 2.8442,-0.3278 5.6815,-0.6649 8.517,-1.0895 2.7416,0.925 5.4863,1.8076 8.2536,2.637 -2.9056,4.4022 -6.1194,8.5922 -9.5437,12.7091 -2.6644,-4.6799 -5.1296,-9.3849 -7.2269,-14.2566 z"
           style="overflow:hidden;fill:none;stroke:#000000;stroke-width:3.55878139"
           inkscape:connector-curvature="0" />
        <path
           id="path5015"
           d="m 6167.3073,968.91627 c 4.4284,2.9191 8.6283,6.17108 12.7685,9.61479 -4.6798,2.66432 -9.3849,5.12957 -14.2567,7.22686 -0.3326,-2.88651 -0.6455,-5.76986 -1.0779,-8.64758 0.9152,-2.7172 1.7447,-5.45148 2.5661,-8.19407 z"
           style="overflow:hidden;fill:none;stroke:#000000;stroke-width:3.55878139"
           inkscape:connector-curvature="0" />
        <path
           id="path5013"
           d="m 5858.7355,1238.0248 c 9.9247,-0.5523 19.7714,-1.9889 29.5237,-4.299 5.5713,3.8794 11.2431,7.5928 17.0556,10.9802 -15.6949,-0.5991 -31.3006,-2.9079 -46.5793,-6.6812 z"
           style="overflow:hidden;fill:none;stroke:#000000;stroke-width:3.55878139"
           inkscape:connector-curvature="0" />
        <path
           id="path5011"
           d="m 6272.7896,891.19934 c 1.0357,15.70372 0.5725,31.47246 -1.5897,47.02921 -2.3158,-6.31631 -4.9772,-12.55143 -7.8195,-18.71664 3.9843,-9.19616 7.1253,-18.63842 9.4092,-28.31257 z"
           style="overflow:hidden;fill:none;stroke:#000000;stroke-width:3.55878139"
           inkscape:connector-curvature="0" />
        <path
           id="path5009"
           d="m 6011.7937,1134.1177 c 26.7895,-9.8222 52.3778,-24.4096 75.5115,-43.7871 23.1336,-19.3775 41.9819,-42.0116 56.3493,-66.6638 -0.6051,15.8493 -2.9454,31.6083 -6.787,47.0305 -17.5823,0.9705 -35.0248,7.4562 -49.5623,19.6333 -14.5375,12.1771 -23.9811,28.2121 -28.0195,45.3518 -15.857,1.0778 -31.7822,0.6187 -47.492,-1.5647 z"
           style="overflow:hidden;fill:none;stroke:#000000;stroke-width:3.55878139"
           inkscape:connector-curvature="0" />
        <path
           id="path5007"
           d="m 5994.7362,1155.1757 c 20.5301,4.0163 41.4597,5.563 62.3673,4.458 0.5267,9.9772 2.9154,19.9179 7.016,29.3032 -0.8646,0.7477 -1.6898,1.5368 -2.5691,2.2732 -13.1273,10.9959 -27.1447,20.2377 -41.7337,27.8247 -16.3541,-8.5625 -31.321,-20.3617 -43.9108,-35.3919 -0.3577,-0.427 -0.7221,-0.8465 -1.0712,-1.2788 7.6523,-8.4832 14.253,-17.6124 19.9017,-27.1881 z"
           style="overflow:hidden;fill:none;stroke:#000000;stroke-width:3.55878139"
           inkscape:connector-curvature="0" />
        <path
           id="path5005"
           d="m 6167.3772,1010.5659 c 10.4178,-3.8822 20.5629,-8.7799 30.2565,-14.82607 0.3644,0.41942 0.7135,0.85176 1.0711,1.27876 12.5898,15.03021 21.5818,31.83421 27.1442,49.43661 -10.0275,13.0324 -21.5841,25.2122 -34.7115,36.2081 -0.8791,0.7364 -1.8013,1.4097 -2.6877,2.1313 -8.5209,-5.6825 -17.8887,-9.7774 -27.6191,-12.0453 4.7539,-20.39 6.901,-41.2665 6.5469,-62.1829 z"
           style="overflow:hidden;fill:none;stroke:#000000;stroke-width:3.55878139"
           inkscape:connector-curvature="0" />
        <path
           id="path5002"
           d="m 5917.0693,1224.1006 c 14.343,-6.2955 28.0355,-14.6583 40.6486,-25.2234 10.5652,12.6131 22.5792,23.2472 35.5961,31.9601 -12.8555,4.7257 -26.0358,8.1314 -39.3451,10.4705 -12.693,-4.6366 -25.072,-10.3006 -36.8996,-17.2072 z"
           style="overflow:hidden;fill:none;stroke:#000000;stroke-width:3.55878139"
           inkscape:connector-curvature="0" />
        <path
           id="path5000"
           d="m 6248.8526,946.18796 c 4.7257,12.85546 8.1314,26.03581 10.4706,39.34505 -4.6366,12.69295 -10.3007,25.07199 -17.2073,36.89959 -6.2956,-14.3429 -14.6582,-28.03548 -25.2234,-40.64862 12.6131,-10.56512 23.2472,-22.57921 31.9601,-35.59602 z"
           style="overflow:hidden;fill:none;stroke:#000000;stroke-width:3.55878139"
           inkscape:connector-curvature="0" />
        <path
           id="path4998"
           d="m 6102.5398,1108.5182 c 7.9647,-6.6714 17.1583,-10.9357 26.666,-12.9065 -3.6987,9.9079 -8.1274,19.5706 -13.2167,28.9629 -10.139,3.3635 -20.4286,6.0293 -30.8316,7.9334 3.6074,-9.0148 9.4176,-17.3182 17.3823,-23.9898 z"
           style="overflow:hidden;fill:none;stroke:#000000;stroke-width:3.55878139"
           inkscape:connector-curvature="0" />
        <path
           id="path4996"
           d="m 6080.9248,1157.3306 c 5.2542,-0.7779 10.5027,-1.7764 15.7152,-2.8876 -4.3022,5.6258 -8.8665,11.0727 -13.7469,16.3507 -1.178,-4.4251 -1.807,-8.9354 -1.9683,-13.4631 z"
           style="overflow:hidden;fill:none;stroke:#000000;stroke-width:3.55878139"
           inkscape:connector-curvature="0" />
        <path
           id="path4994"
           d="m 6154.386,1095.7971 c 4.4293,0.9527 8.7594,2.3628 12.9094,4.2984 -6.0519,3.8794 -12.2148,7.4178 -18.5078,10.667 2.0079,-4.9369 3.9112,-9.9289 5.5984,-14.9654 z"
           style="overflow:hidden;fill:none;stroke:#000000;stroke-width:3.55878139"
           inkscape:connector-curvature="0" />
        <path
           id="path4992"
           d="m 6001.2733,1253.1847 c 6.3164,-2.3159 12.5515,-4.9773 18.7167,-7.8197 9.1962,3.9844 18.6384,7.1252 28.3126,9.4093 -15.7038,1.0357 -31.4724,0.5725 -47.0293,-1.5896 z"
           style="overflow:hidden;fill:none;stroke:#000000;stroke-width:3.55878139"
           inkscape:connector-curvature="0" />
        <path
           id="path4990"
           d="m 6262.7214,1034.1872 c -0.5991,15.6948 -2.908,31.3004 -6.6814,46.5793 -0.5523,-9.9248 -1.9888,-19.7715 -4.299,-29.5238 3.8795,-5.5713 7.5929,-11.2431 10.9804,-17.0555 z"
           style="overflow:hidden;fill:none;stroke:#000000;stroke-width:3.55878139"
           inkscape:connector-curvature="0" />
        <path
           id="path4988"
           d="m 6132.2949,1144.0411 c 19.1754,-7.1656 37.724,-16.7444 55.1755,-28.8081 0.2442,0.276 0.4764,0.5689 0.7141,0.8526 21.5604,25.7397 18.1725,64.0841 -7.5673,85.6446 -25.7398,21.5605 -64.0842,18.1725 -85.6447,-7.5672 -0.2376,-0.2838 -0.4852,-0.5637 -0.7141,-0.8526 14.9369,-15.0659 27.6197,-31.6475 38.0365,-49.2693 z"
           style="overflow:hidden;fill:none;stroke:#000000;stroke-width:3.55878139"
           inkscape:connector-curvature="0" />
        <path
           id="path4986"
           d="m 6048.0387,1230.2122 c 9.9107,-6.1917 19.5323,-13.0968 28.7462,-20.8146 9.3669,11.1826 21.0245,19.3554 33.7019,24.3587 -20.8498,3.3478 -42.1672,2.134 -62.4481,-3.5441 z"
           style="overflow:hidden;fill:none;stroke:#000000;stroke-width:3.55878139"
           inkscape:connector-curvature="0" />
        <path
           id="ellipse14-8"
           d="m 6231.9048,1076.1998 c 2.0341,20.9623 -0.5088,42.1623 -7.4607,62.1021 -2.7028,-13.3583 -8.705,-26.2683 -18.0719,-37.4509 9.2138,-7.7178 17.6991,-15.9796 25.5326,-24.6512 z"
           style="overflow:hidden;fill:none;stroke:#000000;stroke-width:3.55878139"
           inkscape:connector-curvature="0" />
      </g>
    </g>
  </g>
</svg>
