<?xml version="1.0" encoding="UTF-8" standalone="no"?>
<!-- Created with Inkscape (http://www.inkscape.org/) -->

<svg
   xmlns:dc="http://purl.org/dc/elements/1.1/"
   xmlns:cc="http://creativecommons.org/ns#"
   xmlns:rdf="http://www.w3.org/1999/02/22-rdf-syntax-ns#"
   xmlns:svg="http://www.w3.org/2000/svg"
   xmlns="http://www.w3.org/2000/svg"
   xmlns:sodipodi="http://sodipodi.sourceforge.net/DTD/sodipodi-0.dtd"
   xmlns:inkscape="http://www.inkscape.org/namespaces/inkscape"
   width="140.33162mm"
   height="90.298622mm"
   viewBox="0 0 497.23802 319.95575"
   id="svg4032"
   version="1.1"
   inkscape:version="0.91pre4 r13712"
   sodipodi:docname="pendent_loopy.svg"
   inkscape:export-filename="C:\Users\steve\Documents\GitHub\BurnignMan2015\pendent_loopy.png"
   inkscape:export-xdpi="90"
   inkscape:export-ydpi="90">
  <defs
     id="defs4034" />
  <sodipodi:namedview
     id="base"
     pagecolor="#ffffff"
     bordercolor="#666666"
     borderopacity="1.0"
     inkscape:pageopacity="0.0"
     inkscape:pageshadow="2"
     inkscape:zoom="1.4"
     inkscape:cx="225.01434"
     inkscape:cy="228.34826"
     inkscape:document-units="mm"
     inkscape:current-layer="layer1"
     showgrid="false"
     fit-margin-top="20"
     fit-margin-left="20"
     fit-margin-bottom="20"
     fit-margin-right="20"
     inkscape:window-width="1920"
     inkscape:window-height="1017"
     inkscape:window-x="1912"
     inkscape:window-y="-8"
     inkscape:window-maximized="1" />
  <metadata
     id="metadata4037">
    <rdf:RDF>
      <cc:Work
         rdf:about="">
        <dc:format>image/svg+xml</dc:format>
        <dc:type
           rdf:resource="http://purl.org/dc/dcmitype/StillImage" />
        <dc:title></dc:title>
      </cc:Work>
    </rdf:RDF>
  </metadata>
  <g
     inkscape:label="Layer 1"
     inkscape:groupmode="layer"
     id="layer1"
     transform="translate(-65.666703,-3.8128977)">
    <g
       style="stroke:#ff0000;stroke-width:1.20000005"
       id="g4745"
       transform="matrix(0.26201362,0,0,0.26201362,-588.45927,-66.512041)">
      <path
         id="path4743"
         d="m 3099.1807,554.85292 c -179.9594,0 -326.365,143.62068 -330.8965,322.48805 -0.01,0.3047 0.01,0.6024 0,0.9074 -0.074,2.5303 -0.1211,5.074 -0.1211,7.6221 0,1.587 0.021,3.1412 0.061,4.7184 0.01,0.3226 -0.01,0.6458 0,0.9679 0.017,0.7676 0.037,1.5329 0.06,2.2987 0.01,0.1813 -0.01,0.3633 0,0.5445 0.062,2.2171 0.1303,4.3892 0.242,6.5937 7.8995,175.80143 152.9036,315.89423 330.6548,315.89423 182.8159,0 331.0175,-148.2016 331.0175,-331.01743 0,-182.81595 -148.2016,-331.01755 -331.0175,-331.01755 z"
         style="overflow:hidden;fill:none;stroke:#ff0000;stroke-width:2.3229301"
         inkscape:connector-curvature="0" />
      <path
         id="path4741"
         d="m 3099.1807,578.08222 c 169.9867,0 307.7882,137.80148 307.7882,307.78825 0,169.98663 -137.8015,307.78813 -307.7882,307.78813 -46.2652,0 -90.148,-10.206 -129.5155,-28.4922 29.1578,9.6765 60.3302,14.9418 92.7358,14.9418 162.503,0 294.2377,-131.7347 294.2377,-294.23773 0,-162.50307 -131.7347,-294.23783 -294.2377,-294.23783 -32.4056,0 -63.578,5.26523 -92.7358,14.94176 39.3675,-18.2862 83.2503,-28.49218 129.5155,-28.49218 z"
         style="overflow:hidden;fill:none;stroke:#000000;stroke-width:2.3229301"
         inkscape:connector-curvature="0" />
      <path
         id="path4739"
         d="m 3062.401,614.86194 c 149.6738,0 271.0085,121.33466 271.0085,271.00853 0,149.67373 -121.3347,271.00843 -271.0085,271.00843 -41.3324,0 -80.4899,-9.2834 -115.5416,-25.8305 24.8222,7.9665 51.2932,12.2801 78.7618,12.2801 142.1903,0 257.4581,-115.268 257.4581,-257.45803 0,-142.19019 -115.2678,-257.4581 -257.4581,-257.4581 -27.4686,0 -53.9396,4.31358 -78.7618,12.28007 35.0517,-16.5472 74.2092,-25.8305 115.5416,-25.8305 z"
         style="overflow:hidden;fill:none;stroke:#000000;stroke-width:2.3229301"
         inkscape:connector-curvature="0" />
      <path
         id="path4737"
         d="m 3025.6212,651.64167 c 129.361,0 234.2288,104.86781 234.2288,234.2288 0,129.36093 -104.8678,234.22863 -234.2288,234.22863 -36.5945,0 -71.2572,-8.3857 -102.1122,-23.3502 20.6402,6.3862 42.5943,9.7999 65.3325,9.7999 121.8772,0 220.6783,-98.801 220.6783,-220.67833 0,-121.8773 -98.8011,-220.67838 -220.6783,-220.67838 -22.7382,0 -44.6923,3.41363 -65.3325,9.79987 30.855,-14.96456 65.5177,-23.35029 102.1122,-23.35029 z"
         style="overflow:hidden;fill:none;stroke:#000000;stroke-width:2.3229301"
         inkscape:connector-curvature="0" />
      <path
         id="path4735"
         d="m 2988.8415,688.42139 c 109.0481,0 197.449,88.40097 197.449,197.44908 0,109.048 -88.4009,197.44893 -197.449,197.44893 -31.8731,0 -61.9688,-7.5786 -88.6223,-20.9911 16.4486,4.8259 33.8329,7.4408 51.8425,7.4408 101.5645,0 183.8987,-82.33433 183.8987,-183.89863 0,-101.56442 -82.3342,-183.89865 -183.8987,-183.89865 -18.0096,0 -35.3939,2.61477 -51.8425,7.44064 26.6535,-13.4124 56.7492,-20.99107 88.6223,-20.99107 z"
         style="overflow:hidden;fill:none;stroke:#000000;stroke-width:2.3229301"
         inkscape:connector-curvature="0" />
      <path
         id="path4733"
         d="m 2952.0617,725.20112 c 88.7353,0 160.6694,71.93412 160.6694,160.66935 0,88.7352 -71.9341,160.66923 -160.6694,160.66923 -27.1061,0 -52.6122,-6.7786 -75.0112,-18.6318 12.194,3.2734 25.0042,5.0814 38.2315,5.0814 81.2515,0 147.119,-65.86733 147.119,-147.11883 0,-81.25154 -65.8675,-147.11892 -147.119,-147.11892 -13.2273,0 -26.0375,1.80798 -38.2315,5.08141 22.399,-11.85327 47.9051,-18.63184 75.0112,-18.63184 z"
         style="overflow:hidden;fill:none;stroke:#000000;stroke-width:2.3229301"
         inkscape:connector-curvature="0" />
      <path
         id="path4731"
         d="m 2915.282,761.98085 c 68.4223,0 123.8896,55.46726 123.8896,123.88962 0,68.4223 -55.4673,123.88963 -123.8896,123.88963 -22.3975,0 -43.3913,-5.9374 -61.5213,-16.33313 7.9509,1.8208 16.2385,2.7826 24.7416,2.7826 60.9387,0 110.3392,-49.4005 110.3392,-110.3391 0,-60.93868 -49.4005,-110.3392 -110.3392,-110.3392 -8.5031,0 -16.7907,0.96188 -24.7416,2.78268 18.13,-10.39579 39.1238,-16.3331 61.5213,-16.3331 z"
         style="overflow:hidden;fill:none;stroke:#000000;stroke-width:2.3229301"
         inkscape:connector-curvature="0" />
      <path
         id="path4729"
         d="m 2878.5023,798.76058 c 48.1095,0 87.1099,39.00047 87.1099,87.10989 0,48.1094 -39.0004,87.1099 -87.1099,87.1099 -17.7283,0 -34.2122,-5.3012 -47.9709,-14.3974 3.6527,0.5582 7.3825,0.8469 11.1912,0.8469 40.6258,0 73.5594,-32.9337 73.5594,-73.5594 0,-40.62574 -32.9336,-73.55947 -73.5594,-73.55947 -3.8087,0 -7.5385,0.28879 -11.1912,0.84691 13.7587,-9.09619 30.2426,-14.39733 47.9709,-14.39733 z"
         style="overflow:hidden;fill:none;stroke:#000000;stroke-width:2.3229301"
         inkscape:connector-curvature="0" />
      <path
         id="path4727"
         d="m 2841.7226,835.54028 c 27.7965,0 50.3302,22.53362 50.3302,50.33019 0,27.7966 -22.5337,50.3301 -50.3302,50.3301 -13.3344,0 -25.415,-5.207 -34.4205,-13.6714 19.2049,-1.2253 34.4205,-17.1445 34.4205,-36.6587 0,-19.51419 -15.2156,-35.43343 -34.4205,-36.65878 9.0055,-8.46439 21.0861,-13.67141 34.4205,-13.67141 z"
         style="overflow:hidden;fill:none;stroke:#000000;stroke-width:2.3229301"
         inkscape:connector-curvature="0" />
      <path
         id="ellipse8"
         d="m 2804.9429,872.32007 c 7.4837,0 13.5504,6.0667 13.5504,13.5504 0,7.4837 -6.0667,13.5504 -13.5504,13.5504 -7.016,0 -12.796,-5.3262 -13.49,-12.1591 -0.046,-0.4555 -0.061,-0.9236 -0.061,-1.3913 0,-0.4648 0.048,-0.9295 0.06,-1.3913 0.694,-6.833 6.474,-12.1591 13.49,-12.1591 z"
         style="overflow:hidden;fill:none;stroke:#000000;stroke-width:2.3229301"
         inkscape:connector-curvature="0" />
    </g>
    <path
       id="path4973"
       d="m 402.92685,75.145593 c -47.69586,0 -86.57504,37.667937 -88.54798,84.878737 -0.0259,0.62037 -0.0598,1.24748 -0.0729,1.87107 -0.004,0.14466 0.003,0.29254 0,0.4374 -0.0263,0.48266 -0.0244,0.96877 -0.0244,1.45797 0,0.48921 -0.003,0.97533 0.0244,1.45799 0.003,0.14485 -0.004,0.29274 0,0.43739 0.0131,0.62359 0.047,1.25071 0.0729,1.87108 1.97294,47.21079 40.85212,84.87873 88.54798,84.87873 48.95737,0 88.64518,-39.6878 88.64518,-88.64519 0,-48.95737 -39.68781,-88.645177 -88.64518,-88.645177 z"
       style="overflow:hidden;fill:none;stroke:#ff0000;stroke-width:0.9331072"
       inkscape:connector-curvature="0" />
    <path
       id="path4971"
       d="m 402.92685,81.36631 c 45.52177,0 82.42448,36.90269 82.42448,82.42446 0,45.52179 -36.90271,82.42447 -82.42448,82.42447 -20.84966,0 -39.89102,-7.74374 -54.40695,-20.50891 11.25697,7.07995 24.57497,11.17784 38.85516,11.17784 40.36838,0 73.09339,-32.72503 73.09339,-73.0934 0,-40.36836 -32.72501,-73.093388 -73.09339,-73.093388 -14.28019,0 -27.59819,4.097898 -38.85516,11.177848 14.51593,-12.765189 33.55729,-20.50892 54.40695,-20.50892 z"
       style="overflow:hidden;fill:none;stroke:#000000;stroke-width:0.9331072"
       inkscape:connector-curvature="0" />
    <path
       id="path4969"
       d="m 387.37506,96.918096 c 36.93278,0 66.87269,29.939914 66.87269,66.872674 0,36.93277 -29.93991,66.8727 -66.87269,66.8727 -17.36158,0 -33.16432,-6.62292 -45.05157,-17.47146 8.62667,5.16154 18.71582,8.1404 29.4998,8.1404 31.77934,0 57.5416,-25.76228 57.5416,-57.54164 0,-31.77935 -25.76226,-57.5416 -57.5416,-57.5416 -10.78398,0 -20.87313,2.97883 -29.4998,8.14039 11.88725,-10.84856 27.68999,-17.471464 45.05157,-17.471464 z"
       style="overflow:hidden;fill:none;stroke:#000000;stroke-width:0.9331072"
       inkscape:connector-curvature="0" />
    <path
       id="path4967"
       d="m 371.82329,112.46988 c 28.34374,0 51.3209,22.97715 51.3209,51.32089 0,28.34376 -22.97716,51.32091 -51.3209,51.32091 -13.88077,0 -26.45808,-5.52962 -35.69621,-14.48259 5.9792,3.27454 12.84645,5.15152 20.14442,5.15152 23.19033,0 41.9898,-18.79949 41.9898,-41.98984 0,-23.19033 -18.79947,-41.98982 -41.9898,-41.98982 -7.29797,0 -14.16522,1.87697 -20.14442,5.15153 9.23813,-8.95299 21.81544,-14.4826 35.69621,-14.4826 z"
       style="overflow:hidden;fill:none;stroke:#000000;stroke-width:0.9331072"
       inkscape:connector-curvature="0" />
    <path
       id="path4965"
       d="m 356.2715,128.02167 c 19.75473,0 35.7691,16.01437 35.7691,35.7691 0,19.75474 -16.01437,35.76912 -35.7691,35.76912 -10.48238,0 -19.92006,-4.50383 -26.46236,-11.68814 3.32732,1.51015 7.01862,2.35705 10.91057,2.35705 14.60133,0 26.43804,-11.8367 26.43804,-26.43803 0,-14.60132 -11.83671,-26.43803 -26.43804,-26.43803 -3.89195,0 -7.58325,0.84692 -10.91057,2.35707 6.5423,-7.18433 15.97998,-11.68814 26.46236,-11.68814 z"
       style="overflow:hidden;fill:none;stroke:#000000;stroke-width:0.9331072"
       inkscape:connector-curvature="0" />
    <path
       id="path4963"
       d="m 340.71971,143.57345 c 11.16571,0 20.21731,9.05161 20.21731,20.21732 0,11.16572 -9.0516,20.21733 -20.21731,20.21733 -7.20326,0 -13.52606,-3.78097 -17.10698,-9.45257 0.50946,0.0731 1.02552,0.1215 1.55518,0.1215 6.01233,0 10.88625,-4.87394 10.88625,-10.88626 0,-6.01231 -4.87392,-10.88624 -10.88625,-10.88624 -0.52966,0 -1.04572,0.0484 -1.55518,0.12149 3.58092,-5.6716 9.90372,-9.45257 17.10698,-9.45257 z"
       style="overflow:hidden;fill:none;stroke:#000000;stroke-width:0.9331072"
       inkscape:connector-curvature="0" />
    <path
       id="ellipse6"
       d="m 325.16791,159.12524 c 2.5767,0 4.66555,2.08883 4.66555,4.66553 0,2.57671 -2.08885,4.66554 -4.66555,4.66554 -2.57669,0 -4.66552,-2.08883 -4.66552,-4.66554 0,-0.16262 0.0228,-0.32372 0.0244,-0.48599 0.23891,-2.35262 2.22557,-4.17954 4.64123,-4.17954 z"
       style="overflow:hidden;fill:none;stroke:#000000;stroke-width:0.9331072"
       inkscape:connector-curvature="0" />
  </g>
</svg>
