<?xml version="1.0" encoding="UTF-8" standalone="no"?>
<!-- Created with Inkscape (http://www.inkscape.org/) -->

<svg
   xmlns:dc="http://purl.org/dc/elements/1.1/"
   xmlns:cc="http://creativecommons.org/ns#"
   xmlns:rdf="http://www.w3.org/1999/02/22-rdf-syntax-ns#"
   xmlns:svg="http://www.w3.org/2000/svg"
   xmlns="http://www.w3.org/2000/svg"
   xmlns:sodipodi="http://sodipodi.sourceforge.net/DTD/sodipodi-0.dtd"
   xmlns:inkscape="http://www.inkscape.org/namespaces/inkscape"
   width="78.963387mm"
   height="92.117592mm"
   viewBox="0 0 279.79153 326.40091"
   id="svg4188"
   version="1.1"
   inkscape:version="0.91pre4 r13712"
   sodipodi:docname="pendent_even_more_random_circles.svg"
   inkscape:export-filename="C:\Users\steve\Documents\GitHub\BurnignMan2015\pendent_even_more_random_circles.png"
   inkscape:export-xdpi="90"
   inkscape:export-ydpi="90">
  <defs
     id="defs4190" />
  <sodipodi:namedview
     id="base"
     pagecolor="#ffffff"
     bordercolor="#666666"
     borderopacity="1.0"
     inkscape:pageopacity="0.0"
     inkscape:pageshadow="2"
     inkscape:zoom="0.35"
     inkscape:cx="-226.5328"
     inkscape:cy="-119.65668"
     inkscape:document-units="mm"
     inkscape:current-layer="layer1"
     showgrid="false"
     fit-margin-top="20"
     fit-margin-left="20"
     fit-margin-bottom="20"
     fit-margin-right="20"
     inkscape:window-width="1920"
     inkscape:window-height="1017"
     inkscape:window-x="1912"
     inkscape:window-y="-8"
     inkscape:window-maximized="1" />
  <metadata
     id="metadata4193">
    <rdf:RDF>
      <cc:Work
         rdf:about="">
        <dc:format>image/svg+xml</dc:format>
        <dc:type
           rdf:resource="http://purl.org/dc/dcmitype/StillImage" />
        <dc:title></dc:title>
      </cc:Work>
    </rdf:RDF>
  </metadata>
  <g
     inkscape:label="Layer 1"
     inkscape:groupmode="layer"
     id="layer1"
     transform="translate(-40.104232,-86.304599)">
    <g
       style="stroke:#ff0000;stroke-width:1.20000005"
       id="g4460"
       transform="translate(656.78226,-51.859006)">
      <path
         id="path4458"
         d="m -431.65598,376.60093 c 24.54349,-21.32836 30.3172,-56.22813 15.85226,-83.82597 2.30589,-13.14462 -1.12562,-27.1892 -10.56146,-38.04745 -3.17798,-3.65704 -6.80657,-6.67749 -10.73309,-9.07327 6.12904,-8.44306 5.87309,-20.29367 -1.26331,-28.50583 -8.30783,-9.56015 -22.79276,-10.5754 -32.35289,-2.2676 -1.80099,1.56508 -3.29577,3.3545 -4.4851,5.28376 -12.54118,-8.13789 -29.43101,-7.40805 -41.27894,2.88783 -14.23459,12.36993 -15.82858,33.86441 -3.66325,48.20612 -0.59469,0.48335 -1.18711,0.97473 -1.76996,1.48122 -28.68052,24.92348 -31.72619,68.37798 -6.80276,97.05849 24.9235,28.68049 68.37799,31.7262 97.05859,6.80275 z"
         style="overflow:hidden;fill:none;stroke:#ff0000;stroke-width:0.45866063"
         inkscape:connector-curvature="0" />
      <path
         id="path4456"
         d="m -434.66448,373.1389 c -26.76845,23.26192 -67.32609,20.4192 -90.58797,-6.34922 -23.26186,-26.76846 -20.41924,-67.32602 6.34929,-90.58791 0.6437,-0.55939 1.30411,-1.10099 1.96323,-1.63026 3.08029,2.78343 6.56218,4.91339 10.26086,6.3884 -1.00558,11.91482 2.61049,24.19981 11.07311,33.93813 16.61557,19.12031 45.58534,21.15078 64.7056,4.53513 6.31937,-5.49151 10.77033,-12.33409 13.30008,-19.72299 10.50618,24.89524 4.43981,54.74169 -17.0642,73.42872 z"
         style="overflow:hidden;fill:none;stroke:#000000;stroke-width:0.45866063"
         inkscape:connector-curvature="0" />
      <path
         id="path4454"
         d="m -433.90876,315.97117 c -17.20831,14.95404 -43.28104,13.12667 -58.23508,-4.08163 -7.36739,-8.47795 -10.65487,-19.10569 -10.04331,-29.49714 10.50088,2.59384 22.05162,0.22465 30.83652,-7.40939 4.17574,-3.6287 7.25682,-8.03636 9.23002,-12.82511 12.69257,2.96552 24.60227,9.80266 33.80533,20.39306 2.99459,3.44603 5.55063,7.12589 7.68473,10.96264 -1.81052,8.43147 -6.26793,16.36563 -13.27821,22.45757 z"
         style="overflow:hidden;fill:none;stroke:#000000;stroke-width:0.45866063"
         inkscape:connector-curvature="0" />
      <path
         id="path4452"
         d="m -419.72396,286.23155 c -1.55386,-2.29978 -3.26263,-4.54109 -5.1293,-6.68912 -9.75997,-11.23119 -22.35962,-18.52334 -35.803,-21.7523 0.26756,-1.01469 0.49964,-2.03951 0.67253,-3.07198 6.66948,1.27317 13.83187,-0.41768 19.35461,-5.21689 0.14246,-0.12336 0.27427,-0.25126 0.4124,-0.37758 3.81755,2.22073 7.33124,5.09302 10.38952,8.61235 7.13009,8.20498 10.45146,18.42604 10.10325,28.49551 z"
         style="overflow:hidden;fill:none;stroke:#000000;stroke-width:0.45866063"
         inkscape:connector-curvature="0" />
      <path
         id="path4450"
         d="m -444.68293,246.89047 c -4.37156,3.27516 -9.80917,4.31617 -14.84695,3.23674 0.0714,-2.19416 -0.0648,-4.39355 -0.4131,-6.57196 5.2207,0.13289 10.40742,1.25424 15.26005,3.33522 z"
         style="overflow:hidden;fill:none;stroke:#000000;stroke-width:0.45866063"
         inkscape:connector-curvature="0" />
      <path
         id="path4448"
         d="m -441.16947,243.43854 c -6.23659,-2.98225 -13.03452,-4.49348 -19.85269,-4.49022 -1.36643,-4.46773 -3.66489,-8.74061 -6.92706,-12.49455 -1.11326,-1.28105 -2.3038,-2.4449 -3.55304,-3.52051 0.98363,-1.68118 2.2447,-3.24191 3.79638,-4.59037 7.64809,-6.64627 19.23598,-5.8341 25.88228,1.81406 5.84527,6.72642 5.92365,16.50218 0.65413,23.28159 z"
         style="overflow:hidden;fill:none;stroke:#000000;stroke-width:0.45866063"
         inkscape:connector-curvature="0" />
      <path
         id="path4446"
         d="m -474.35913,271.52097 c -7.77306,6.75478 -18.05332,8.77504 -27.30412,6.29548 0.8586,-5.00649 2.64744,-9.86879 5.33158,-14.31756 9.61697,-3.06843 19.77676,-3.79635 29.61088,-2.24256 -1.71636,3.81939 -4.27014,7.33754 -7.63834,10.26464 z"
         style="overflow:hidden;fill:none;stroke:#000000;stroke-width:0.45866063"
         inkscape:connector-curvature="0" />
      <path
         id="path4444"
         d="m -465.14315,256.86602 c -8.87587,-1.51809 -18.0128,-1.29156 -26.86171,0.70812 1.20914,-1.37321 2.52344,-2.68657 3.94258,-3.91972 4.19061,-3.64178 8.91304,-6.2771 13.8666,-7.94851 0.38204,0.52326 0.78053,1.03021 1.21323,1.52816 2.4162,2.78035 5.36263,4.8309 8.55052,6.14665 -0.17292,1.17199 -0.40005,2.33892 -0.71166,3.48571 z"
         style="overflow:hidden;fill:none;stroke:#000000;stroke-width:0.45866063"
         inkscape:connector-curvature="0" />
      <path
         id="path4442"
         d="m -464.10857,248.48554 c -1.93436,-1.00165 -3.72832,-2.3668 -5.26097,-4.0873 1.59005,-0.32865 3.18498,-0.57128 4.7945,-0.71039 0.28742,1.58928 0.43852,3.19122 0.46647,4.79769 z"
         style="overflow:hidden;fill:none;stroke:#000000;stroke-width:0.45866063"
         inkscape:connector-curvature="0" />
      <path
         id="path4440"
         d="m -506.04406,276.24955 c -2.54112,-1.12994 -4.95108,-2.6211 -7.14316,-4.48329 3.32008,-2.29073 6.79781,-4.22454 10.38448,-5.81515 -1.49017,3.30944 -2.57305,6.77209 -3.24132,10.29844 z"
         style="overflow:hidden;fill:none;stroke:#000000;stroke-width:0.45866063"
         inkscape:connector-curvature="0" />
      <path
         id="path4438"
         d="m -465.75438,239.20592 c -2.14083,0.2219 -4.27347,0.57258 -6.37618,1.09736 -1.99953,-4.05041 -2.39374,-8.64202 -1.25054,-12.88916 0.68182,0.64921 1.33978,1.32315 1.96985,2.04818 2.56343,2.94993 4.44541,6.26521 5.65687,9.74362 z"
         style="overflow:hidden;fill:none;stroke:#000000;stroke-width:0.45866063"
         inkscape:connector-curvature="0" />
      <path
         id="ellipse4-8"
         d="m -476.55373,241.65946 c -5.18185,1.86759 -10.10986,4.70306 -14.51714,8.5329 -3.25877,2.83185 -6.01527,6.02868 -8.2734,9.46824 -5.9939,2.07793 -11.76944,5.014 -17.14876,8.82597 -10.71845,-12.42902 -9.37612,-31.1972 3.02306,-41.97214 10.41594,-9.0515 25.33898,-9.58286 36.25264,-2.20378 -2.03724,5.58257 -1.83643,11.83552 0.6636,17.34881 z"
         style="overflow:hidden;fill:none;stroke:#000000;stroke-width:0.45866063"
         inkscape:connector-curvature="0" />
    </g>
  </g>
</svg>
