<?xml version="1.0" encoding="UTF-8" standalone="no"?>
<!-- Created with Inkscape (http://www.inkscape.org/) -->

<svg
   xmlns:dc="http://purl.org/dc/elements/1.1/"
   xmlns:cc="http://creativecommons.org/ns#"
   xmlns:rdf="http://www.w3.org/1999/02/22-rdf-syntax-ns#"
   xmlns:svg="http://www.w3.org/2000/svg"
   xmlns="http://www.w3.org/2000/svg"
   xmlns:sodipodi="http://sodipodi.sourceforge.net/DTD/sodipodi-0.dtd"
   xmlns:inkscape="http://www.inkscape.org/namespaces/inkscape"
   width="74.356834mm"
   height="74.356834mm"
   viewBox="0 0 263.4691 263.4691"
   id="svg3814"
   version="1.1"
   inkscape:version="0.91pre4 r13712"
   sodipodi:docname="pendent_rotating_circles.svg">
  <defs
     id="defs3816" />
  <sodipodi:namedview
     id="base"
     pagecolor="#ffffff"
     bordercolor="#666666"
     borderopacity="1.0"
     inkscape:pageopacity="0.0"
     inkscape:pageshadow="2"
     inkscape:zoom="2.8"
     inkscape:cx="57.986709"
     inkscape:cy="118.58156"
     inkscape:document-units="mm"
     inkscape:current-layer="g4384"
     showgrid="false"
     fit-margin-top="20"
     fit-margin-bottom="20"
     fit-margin-right="20"
     fit-margin-left="20"
     inkscape:window-width="1920"
     inkscape:window-height="1017"
     inkscape:window-x="-8"
     inkscape:window-y="-8"
     inkscape:window-maximized="1" />
  <metadata
     id="metadata3819">
    <rdf:RDF>
      <cc:Work
         rdf:about="">
        <dc:format>image/svg+xml</dc:format>
        <dc:type
           rdf:resource="http://purl.org/dc/dcmitype/StillImage" />
        <dc:title></dc:title>
      </cc:Work>
    </rdf:RDF>
  </metadata>
  <g
     inkscape:label="Layer 1"
     inkscape:groupmode="layer"
     id="layer1"
     transform="translate(61.377405,63.658057)">
    <g
       id="g4384"
       transform="translate(-70.357144,-104.99998)">
      <g
         transform="matrix(0.37914704,0,0,0.37914704,-470.42376,623.1914)"
         id="g5711"
         style="stroke:#0000ff">
        <path
           inkscape:connector-curvature="0"
           style="overflow:hidden;fill:none;stroke:#0000ff;stroke-width:5"
           d="m 1591.9375,-1402.1609 c 12.949,0 25.2494,2.7329 36.375,7.6562 -11.5528,3.3877 -22.2506,8.8097 -31.6563,15.8438 -13.1881,-8.0007 -28.3658,-13.0371 -44.625,-14.1875 12.0259,-5.9585 25.5759,-9.3125 39.9063,-9.3125 z"
           id="path5707" />
        <path
           inkscape:connector-curvature="0"
           style="overflow:hidden;fill:none;stroke:#0000ff;stroke-width:5"
           d="m 1656.5,-1388.5359 c 27.727,0 52.5218,12.534 69.0312,32.25 -10.5284,-3.7673 -21.8638,-5.8125 -33.6874,-5.8125 -4.3255,0 -8.6006,0.2797 -12.7813,0.8125 -5.8612,-10.3727 -13.5271,-19.603 -22.5625,-27.25 z"
           id="path5703" />
        <path
           inkscape:connector-curvature="0"
           style="overflow:hidden;fill:none;stroke:#0000ff;stroke-width:5"
           d="m 1641.5,-1387.2859 c 10.9176,7.2179 20.1758,16.7565 27.0625,27.9062 -13.4436,3.2042 -25.8361,9.1345 -36.5625,17.1563 -6.7092,-11.8734 -15.7745,-22.2159 -26.5625,-30.4375 10.6006,-7.3175 22.8372,-12.4072 36.0625,-14.625 z"
           id="path5701" />
        <path
           inkscape:connector-curvature="0"
           style="overflow:hidden;fill:none;stroke:#0000ff;stroke-width:5"
           d="m 1544.875,-1383.0984 c 15.8117,0 30.6809,4.0892 43.5938,11.25 -9.8963,9.1864 -17.8972,20.3594 -23.4376,32.875 -15.1066,-9.1645 -32.8215,-14.4375 -51.7812,-14.4375 -0.4367,0 -0.8771,0.026 -1.3125,0.031 5.8805,-11.3893 14.1085,-21.372 24.0625,-29.2812 2.9234,-0.2865 5.8763,-0.4375 8.875,-0.4375 z"
           id="path5699" />
        <path
           inkscape:connector-curvature="0"
           style="overflow:hidden;fill:none;stroke:#0000ff;stroke-width:5"
           d="m 1517.4062,-1378.8172 c -6.9358,7.7498 -12.6708,16.5805 -16.9374,26.2188 -10.5916,1.3497 -20.649,4.3547 -29.9376,8.75 11.1789,-16.3422 27.6273,-28.8034 46.875,-34.9688 z"
           id="path5697" />
        <path
           inkscape:connector-curvature="0"
           style="overflow:hidden;fill:none;stroke:#0000ff;stroke-width:5"
           d="m 1597.25,-1366.2859 c 11.1315,7.9821 20.3729,18.4331 26.9062,30.5625 -10.0522,9.2455 -18.1776,20.529 -23.7812,33.1875 -6.7864,-12.01 -15.9854,-22.4525 -26.9375,-30.7188 5.344,-12.7685 13.5517,-24.0498 23.8125,-33.0312 z"
           id="path5695" />
        <path
           inkscape:connector-curvature="0"
           style="overflow:hidden;fill:none;stroke:#0000ff;stroke-width:5"
           d="m 1691.8438,-1352.0984 c 16.1054,0 31.2337,4.246 44.3124,11.6562 5.8063,11.0148 9.41,23.3784 10.1876,36.5 -12.674,-5.8101 -26.7704,-9.0625 -41.625,-9.0625 -4.3255,0 -8.6006,0.2798 -12.7813,0.8125 0,-14.0488 -2.8916,-27.4329 -8.125,-39.5625 2.6463,-0.234 5.3242,-0.3437 8.0313,-0.3437 z"
           id="path5693" />
        <path
           inkscape:connector-curvature="0"
           style="overflow:hidden;fill:none;stroke:#0000ff;stroke-width:5"
           d="m 1673.5312,-1350.2234 c 5.4016,11.5592 8.4063,24.4612 8.4063,38.0625 0,0.5983 -0.02,1.1858 -0.031,1.7812 -13.623,3.1777 -26.1811,9.1358 -37.0312,17.25 0,-14.212 -2.9948,-27.7275 -8.3438,-39.9687 10.6669,-8.3232 23.2638,-14.2837 37,-17.125 z"
           id="path5691" />
        <path
           inkscape:connector-curvature="0"
           style="overflow:hidden;fill:none;stroke:#0000ff;stroke-width:5"
           d="m 1513.25,-1343.4109 c 17.7081,0 34.2023,5.1368 48.125,13.9687 -3.1601,9.7334 -4.875,20.1195 -4.875,30.9063 0,8.7546 1.1367,17.2513 3.25,25.3437 -15.0986,-9.1507 -32.8057,-14.4062 -51.75,-14.4062 -0.884,0 -1.7778,0.01 -2.6562,0.031 -2.2186,-7.8216 -3.4063,-16.0612 -3.4063,-24.5937 0,-10.9221 1.9678,-21.3769 5.5313,-31.0625 1.911,-0.1211 3.8396,-0.1875 5.7812,-0.1875 z"
           id="path5689" />
        <path
           inkscape:connector-curvature="0"
           style="overflow:hidden;fill:none;stroke:#0000ff;stroke-width:5"
           d="m 1496.4062,-1341.8172 c -2.9031,9.3667 -4.4687,19.3353 -4.4687,29.6563 0,8.7653 1.1317,17.2737 3.25,25.375 -13.8156,1.765 -26.7292,6.3481 -38.1875,13.1562 -1.3845,-6.2735 -2.125,-12.7789 -2.125,-19.4687 0,-12.0185 2.35,-23.4873 6.625,-33.9688 10.2625,-7.2252 22.1067,-12.3259 34.9062,-14.75 z"
           id="path5687" />
        <path
           inkscape:connector-curvature="0"
           style="overflow:hidden;fill:none;stroke:#0000ff;stroke-width:5"
           d="m 1751.6562,-1329.3484 c 7.2241,6.4309 13.3978,13.999 18.25,22.4375 0.2169,0.3807 0.4107,0.7739 0.625,1.1562 4.6544,8.3745 8.0249,17.5689 9.8126,27.3125 -6.8258,-7.8798 -14.8853,-14.6903 -23.8438,-20.125 0,-10.7405 -1.7063,-21.0847 -4.8438,-30.7812 z"
           id="path5685" />
        <path
           inkscape:connector-curvature="0"
           style="overflow:hidden;fill:none;stroke:#0000ff;stroke-width:5"
           d="m 1628.625,-1326.0984 c 4.0293,10.2182 6.25,21.3502 6.25,33 0,3.0308 -0.1449,6.015 -0.4375,8.9687 -8.852,8.7471 -16.0776,19.1219 -21.1875,30.6563 -0.01,-12.946 -2.4829,-25.3033 -6.9688,-36.6563 4.5052,-13.7579 12.2803,-26.0269 22.3438,-35.9687 z"
           id="path5683" />
        <path
           inkscape:connector-curvature="0"
           style="overflow:hidden;fill:none;stroke:#0000ff;stroke-width:5"
           d="m 1569.9375,-1323.2859 c 11.0351,8.9629 19.9162,20.4769 25.7187,33.6562 -2.4987,8.7453 -3.8124,17.9837 -3.8124,27.5313 0,8.744 1.1416,17.2289 3.25,25.3125 -5.5787,-9.8566 -12.7854,-18.6831 -21.25,-26.0938 -4.7249,-10.9356 -7.3438,-22.986 -7.3438,-35.6562 0,-8.5883 1.1909,-16.8829 3.4375,-24.75 z"
           id="path5681" />
        <path
           inkscape:connector-curvature="0"
           style="overflow:hidden;fill:none;stroke:#0000ff;stroke-width:5"
           d="m 1447.1875,-1314.5047 c -1.5037,6.8959 -2.3125,14.0596 -2.3125,21.4063 0,8.7759 1.1267,17.2961 3.25,25.4062 -9.5022,7.1127 -17.6944,15.8544 -24.1562,25.8438 -0.4849,-3.7831 -0.7188,-7.6475 -0.7188,-11.5625 0,-23.5926 9.0842,-45.0441 23.9375,-61.0938 z"
           id="path5679" />
        <path
           inkscape:connector-curvature="0"
           style="overflow:hidden;fill:none;stroke:#0000ff;stroke-width:5"
           d="m 1704.7188,-1303.0047 c 15.0087,0 29.1513,3.6901 41.5937,10.1875 -1.2301,19.6194 -8.7512,37.5309 -20.5625,51.75 -12.9806,-6.1602 -27.489,-9.625 -42.8125,-9.625 -4.3147,0 -8.5793,0.2824 -12.75,0.8125 11.635,-14.6022 19.2464,-32.5539 21.2187,-52.1562 4.3406,-0.643 8.7932,-0.9688 13.3126,-0.9688 z"
           id="path5677" />
        <path
           inkscape:connector-curvature="0"
           style="overflow:hidden;fill:none;stroke:#0000ff;stroke-width:5"
           d="m 1681.0938,-1299.8797 c -2.8804,21.1183 -13.0815,39.9073 -27.9688,53.7188 -10.934,3.4093 -21.0657,8.6388 -30.0312,15.3437 10.9228,-13.7028 18.3418,-30.333 20.8437,-48.5312 10.4298,-9.5632 23.098,-16.7166 37.1563,-20.5313 z"
           id="path5675" />
        <path
           inkscape:connector-curvature="0"
           style="overflow:hidden;fill:none;stroke:#0000ff;stroke-width:5"
           d="m 1755.8438,-1287.0672 c 10.4786,7.2483 19.3633,16.6604 25.9687,27.5938 -0.5448,18.9468 -6.9588,36.4215 -17.4687,50.6875 -7.891,-11.0344 -17.9921,-20.4116 -29.625,-27.4688 11.3775,-14.2733 18.946,-31.7237 21.125,-50.8125 z"
           id="path5673" />
        <path
           inkscape:connector-curvature="0"
           style="overflow:hidden;fill:none;stroke:#0000ff;stroke-width:5"
           d="m 1508.8125,-1277.5984 c 21.6199,0.1924 41.4217,8.025 56.8437,20.9062 4.7533,10.3032 11.2047,19.668 19,27.7188 -14.8366,-8.9865 -32.1791,-14.2306 -50.75,-14.4063 -10.8719,-9.1811 -19.5428,-20.885 -25.0937,-34.2187 z"
           id="path5671" />
        <path
           inkscape:connector-curvature="0"
           style="overflow:hidden;fill:none;stroke:#0000ff;stroke-width:5"
           d="m 1498.2812,-1277.0984 c 4.8743,13.0096 12.3842,24.7424 21.875,34.5312 -13.9877,1.7826 -27.0598,6.4305 -38.625,13.375 -9.659,-9.5748 -17.1716,-21.3093 -21.7187,-34.4375 11.3549,-7.2185 24.4213,-11.9588 38.4687,-13.4687 z"
           id="path5669" />
        <path
           inkscape:connector-curvature="0"
           style="overflow:hidden;fill:none;stroke:#0000ff;stroke-width:5"
           d="m 1451.375,-1257.5672 c 4.8781,12.8253 12.3404,24.3897 21.7188,34.0625 -10.8602,8.1218 -19.999,18.3884 -26.8126,30.1875 -8.6457,-9.6261 -15.2532,-21.1219 -19.125,-33.8125 5.7962,-11.836 14.0814,-22.218 24.2188,-30.4375 z"
           id="path5663" />
        <path
           inkscape:connector-curvature="0"
           style="overflow:hidden;fill:none;stroke:#0000ff;stroke-width:5"
           d="m 1789.875,-1242.2547 c 2.9092,8.4727 4.5743,17.5353 4.8125,26.9375 0.01,0.7707 0.031,1.5397 0.031,2.3125 0,0.7767 -0.012,1.5406 -0.031,2.3125 -0.4103,16.1953 -5.0899,31.3316 -12.9687,44.3125 -1.8892,-11.9822 -5.9103,-23.2686 -11.6563,-33.4375 9.6906,-12.157 16.6282,-26.6203 19.8125,-42.4375 z"
           id="path5661" />
        <path
           inkscape:connector-curvature="0"
           style="overflow:hidden;fill:none;stroke:#0000ff;stroke-width:5"
           d="m 1682.9375,-1240.6922 c 12.66,0 24.6963,2.6261 35.625,7.3438 -10.2229,9.7372 -22.7465,17.0999 -36.6563,21.1875 -12.1486,-5.2477 -25.55,-8.1563 -39.625,-8.1563 -4.2726,0 -8.4934,0.2925 -12.625,0.8125 10.5272,-4.2901 20.1529,-10.3335 28.5313,-17.75 7.8671,-2.2465 16.1617,-3.4375 24.75,-3.4375 z"
           id="path5659" />
        <path
           inkscape:connector-curvature="0"
           style="overflow:hidden;fill:none;stroke:#0000ff;stroke-width:5"
           d="m 1530.4062,-1233.3484 c 9.7366,7.6096 20.9152,13.4938 33.0626,17.0937 -12.7087,1.6323 -24.6545,5.6225 -35.4063,11.5625 -14.3753,-2.7173 -27.5439,-8.8227 -38.625,-17.5 12.1954,-6.743 26.1464,-10.7452 40.9687,-11.1562 z"
           id="path5657" />
        <path
           inkscape:connector-curvature="0"
           style="overflow:hidden;fill:none;stroke:#0000ff;stroke-width:5"
           d="m 1728,-1228.6297 c 11.9083,6.8974 22.0718,16.4518 29.7188,27.8438 -9.2807,9.9646 -20.7991,17.8306 -33.75,22.7812 -7.9194,-11.1898 -18.0954,-20.7052 -29.8438,-27.8437 12.8389,-5.2175 24.3426,-13.0317 33.875,-22.7813 z"
           id="path5651" />
        <path
           inkscape:connector-curvature="0"
           style="overflow:hidden;fill:none;stroke:#0000ff;stroke-width:5"
           d="m 1480.5312,-1216.5672 c 10.3921,8.7477 22.5721,15.4228 35.9376,19.375 -10.9784,8.2177 -20.1996,18.6244 -27.0313,30.5938 -13.4453,-3.6806 -25.6332,-10.3993 -35.7813,-19.375 6.5302,-12.1322 15.7454,-22.6082 26.875,-30.5938 z"
           id="path5649" />
        <path
           inkscape:connector-curvature="0"
           style="overflow:hidden;fill:none;stroke:#0000ff;stroke-width:5"
           d="m 1421.6875,-1213.1609 c 4.8218,10.9546 11.5642,20.8687 19.7813,29.3437 -5.4736,12.3647 -8.5313,26.0454 -8.5313,40.4375 0,1.8964 0.052,3.786 0.1563,5.6563 -9.5271,-14.2787 -15.0938,-31.4218 -15.0938,-49.875 0,-8.8768 1.2926,-17.4604 3.6875,-25.5625 z"
           id="path5647" />
        <path
           inkscape:connector-curvature="0"
           style="overflow:hidden;fill:none;stroke:#0000ff;stroke-width:5"
           d="m 1628.2812,-1202.5672 c 8.9486,2.6269 18.4204,4.0313 28.2188,4.0313 8.4606,0 16.6849,-1.0532 24.5312,-3.0313 12.9808,6.2006 24.2397,15.4204 32.875,26.75 -7.0576,1.7781 -14.4528,2.7188 -22.0624,2.7188 -13.6897,0 -26.6646,-3.0635 -38.2813,-8.5313 -7.1205,-8.6435 -15.6731,-16.0847 -25.2813,-21.9375 z"
           id="path5641" />
        <path
           inkscape:connector-curvature="0"
           style="overflow:hidden;fill:none;stroke:#0000ff;stroke-width:5"
           d="m 1582.3125,-1200.3484 c -8.9798,6.7374 -16.7532,14.9521 -23.0313,24.2812 -13.4691,8.0335 -29.209,12.6563 -46.0312,12.6563 -4.5738,0 -9.0784,-0.3417 -13.4688,-1 7.5364,-12.1674 17.8934,-22.417 30.1563,-29.8125 4.8761,0.7308 9.8578,1.125 14.9375,1.125 13.24,0 25.8722,-2.5766 37.4375,-7.25 z"
           id="path5639" />
        <path
           inkscape:connector-curvature="0"
           style="overflow:hidden;fill:none;stroke:#0000ff;stroke-width:5"
           d="m 1620.0625,-1192.4734 c 7.8187,8.0606 16.9774,14.8021 27.125,19.875 9.0539,11.539 15.3613,25.3257 17.9063,40.4062 -13.451,-6.6068 -25.0151,-16.4679 -33.6563,-28.5625 -1.9889,-11.3436 -5.9069,-22.0356 -11.375,-31.7187 z"
           id="path5637" />
        <path
           inkscape:connector-curvature="0"
           style="overflow:hidden;fill:none;stroke:#0000ff;stroke-width:5"
           d="m 1763,-1191.8484 c 5.8502,11.3568 9.3249,24.1284 9.8438,37.6562 -8.5083,9.8469 -19.1143,17.8576 -31.125,23.2813 -1.4617,-13.8777 -5.7651,-26.9056 -12.3126,-38.5 12.7071,-5.1553 24.1153,-12.8369 33.5938,-22.4375 z"
           id="path5635" />
        <path
           inkscape:connector-curvature="0"
           style="overflow:hidden;fill:none;stroke:#0000ff;stroke-width:5"
           d="m 1591.4375,-1191.0984 c -5.463,12.3548 -8.5,26.0287 -8.5,40.4062 0,4.0061 0.2607,7.9609 0.7187,11.8438 -7.7688,12.031 -18.3144,22.0784 -30.75,29.25 -0.4172,-3.5152 -0.625,-7.0913 -0.625,-10.7188 0,-17.8073 5.1704,-34.4035 14.0938,-48.375 9.5716,-6.015 18.0378,-13.6016 25.0625,-22.4062 z"
           id="path5633" />
        <path
           inkscape:connector-curvature="0"
           style="overflow:hidden;fill:none;stroke:#0000ff;stroke-width:5"
           d="m 1608,-1187.5359 c 2.9089,11.0796 7.6736,21.3984 13.9375,30.625 0.6643,4.4097 1,8.9363 1,13.5312 0,16.7718 -4.6049,32.464 -12.5937,45.9063 -8.3144,-11.32 -14.0366,-24.6422 -16.3126,-39.125 8.8633,-14.9172 13.9574,-32.3294 13.9688,-50.9375 z"
           id="path5631" />
        <path
           inkscape:connector-curvature="0"
           style="overflow:hidden;fill:none;stroke:#0000ff;stroke-width:5"
           d="m 1449.2812,-1176.5672 c 10.3101,8.5934 22.3575,15.1578 35.5626,19.0625 -5.4631,12.3548 -8.5,26.0288 -8.5,40.4063 0,4.7952 0.3474,9.5099 1,14.125 -12.117,-4.3909 -23.0366,-11.2843 -32.0938,-20.0938 -1.5078,-6.5317 -2.3125,-13.3226 -2.3125,-20.3125 0,-11.7239 2.2656,-22.9159 6.3437,-33.1875 z"
           id="path5627" />
        <path
           inkscape:connector-curvature="0"
           style="overflow:hidden;fill:none;stroke:#0000ff;stroke-width:5"
           d="m 1663.5,-1166.1922 c 8.9871,2.6517 18.4974,4.0938 28.3438,4.0938 9.6985,0 19.0697,-1.3933 27.9374,-3.9688 6.8297,11.5457 11.1811,24.7312 12.25,38.8438 -8.6172,2.7425 -17.7865,4.2187 -27.3124,4.2187 -10.1315,0 -19.8809,-1.6633 -28.9688,-4.75 -1.4677,-13.8482 -5.7169,-26.8644 -12.25,-38.4375 z"
           id="path5625" />
        <path
           inkscape:connector-curvature="0"
           style="overflow:hidden;fill:none;stroke:#0000ff;stroke-width:5"
           d="m 1550.7812,-1160.6922 c -5.4557,12.348 -8.5,26.0076 -8.5,40.375 0,5.2645 0.4037,10.424 1.1876,15.4688 -10.8846,4.6725 -22.8731,7.25 -35.4688,7.25 -6.8792,0 -13.5632,-0.7882 -20,-2.25 -1.0844,-5.5847 -1.6562,-11.3483 -1.6562,-17.25 0,-13.5914 3.0121,-26.4786 8.4062,-38.0313 5.9989,1.1228 12.1752,1.7188 18.5,1.7188 13.2747,0 25.9413,-2.5846 37.5312,-7.2813 z"
           id="path5623" />
        <path
           inkscape:connector-curvature="0"
           style="overflow:hidden;fill:none;stroke:#0000ff;stroke-width:5"
           d="m 1632.9375,-1143.3797 c 9.3798,9.67 20.6851,17.4527 33.3125,22.7188 0.046,1.1853 0.094,2.3659 0.094,3.5625 0,18.7207 -5.7184,36.0992 -15.5,50.5 -12.9482,-4.9447 -24.4681,-12.7937 -33.75,-22.75 10.0235,-15.5812 15.8437,-34.1276 15.8437,-54.0313 z"
           id="path5619" />
        <path
           inkscape:connector-curvature="0"
           style="overflow:hidden;fill:none;stroke:#0000ff;stroke-width:5"
           d="m 1772.2188,-1139.2234 c -2.0041,15.7653 -8.0862,30.2468 -17.1563,42.375 -0.2955,0.382 -0.5766,0.7766 -0.875,1.1562 -0.1453,0.188 -0.2908,0.3758 -0.4375,0.5625 -0.4352,0.5495 -0.8714,1.0805 -1.3125,1.625 -5.9872,7.2692 -13.102,13.5614 -21.0625,18.6563 6.9742,-13.6397 10.9062,-29.0976 10.9062,-45.4688 11.1087,-4.5068 21.2359,-10.9416 29.9376,-18.9062 z"
           id="path5617" />
        <path
           inkscape:connector-curvature="0"
           style="overflow:hidden;fill:none;stroke:#0000ff;stroke-width:5"
           d="m 1586.1875,-1125.2859 c 3.5374,13.5119 9.8378,25.9174 18.25,36.5625 -8.3095,10.8522 -19.0387,19.7504 -31.375,25.9062 -8.6509,-10.4041 -15.0125,-22.7896 -18.2813,-36.375 12.1909,-6.4652 22.8647,-15.3879 31.4063,-26.0937 z"
           id="path5615" />
        <path
           inkscape:connector-curvature="0"
           style="overflow:hidden;fill:none;stroke:#0000ff;stroke-width:5"
           d="m 1676.3438,-1117.0984 c 8.9955,2.6571 18.5182,4.0937 28.375,4.0937 9.5267,0 18.7404,-1.3242 27.4687,-3.8125 -0.7254,18.9115 -7.2597,36.3294 -17.9063,50.5 -9.7629,3.6287 -20.3173,5.625 -31.3437,5.625 -7.6566,0 -15.0904,-0.9819 -22.1875,-2.7812 9.8665,-15.4982 15.5938,-33.8915 15.5938,-53.625 z"
           id="path5613" />
        <path
           inkscape:connector-curvature="0"
           style="overflow:hidden;fill:none;stroke:#0000ff;stroke-width:5"
           d="m 1451.4375,-1105.1297 c 8.5275,5.8604 18.0008,10.4346 28.1563,13.4375 2.6847,10.2549 6.9502,19.8706 12.5312,28.5625 -8.0168,-4.0855 -15.3441,-9.3369 -21.75,-15.5312 -0.3599,-0.3599 -0.7055,-0.731 -1.0625,-1.0938 -0.6127,-0.6126 -1.2489,-1.2137 -1.8437,-1.8437 -0.097,-0.1013 -0.1845,-0.211 -0.2813,-0.3125 -6.3904,-6.8312 -11.7229,-14.6526 -15.75,-23.2188 z"
           id="path5611" />
        <path
           inkscape:connector-curvature="0"
           style="overflow:hidden;fill:none;stroke:#0000ff;stroke-width:5"
           d="m 1545.5625,-1094.8797 c 3.4983,13.3412 9.6789,25.6042 17.9375,36.1563 -9.5446,3.4468 -19.8292,5.3437 -30.5625,5.3437 -7.9486,0 -15.659,-1.0342 -23,-2.9687 -8.5391,-9.3264 -15.1338,-20.4524 -19.1563,-32.75 5.5994,0.9728 11.3412,1.5 17.2188,1.5 13.2849,0 25.9653,-2.5778 37.5625,-7.2813 z"
           id="path5609" />
        <path
           inkscape:connector-curvature="0"
           style="overflow:hidden;fill:none;stroke:#0000ff;stroke-width:5"
           d="m 1611.1562,-1081.0984 c 9.3987,9.6938 20.7149,17.5119 33.375,22.7812 -8.5004,9.852 -19.1204,17.8493 -31.125,23.2813 -12.5602,-4.2504 -23.8661,-11.2008 -33.25,-20.1563 12.0238,-6.4528 22.5554,-15.3123 31,-25.9062 z"
           id="path5607" />
        <path
           inkscape:connector-curvature="0"
           style="overflow:hidden;fill:none;stroke:#0000ff;stroke-width:5"
           d="m 1654.5312,-1054.7859 c 9.0039,2.6625 18.5392,4.0937 28.4063,4.0937 6.2911,0 12.4372,-0.5763 18.4063,-1.6875 -7.1128,6.189 -15.2201,11.2732 -24.0313,15 -0.2579,0.1067 -0.5228,0.207 -0.7813,0.3125 -10.5585,4.349 -22.1222,6.75 -34.25,6.75 -4.8673,0 -9.6546,-0.3812 -14.3124,-1.125 10.1863,-6.154 19.1732,-14.0822 26.5624,-23.3437 z"
           id="path5605" />
        <path
           inkscape:connector-curvature="0"
           style="overflow:hidden;fill:none;stroke:#0000ff;stroke-width:5"
           d="m 1570.5312,-1050.6922 c 8.2288,8.4797 17.933,15.5059 28.7188,20.6563 -7.312,1.9182 -14.9925,2.9375 -22.9062,2.9375 -8.1762,0 -16.0956,-1.0819 -23.625,-3.125 -0.2092,-0.059 -0.4162,-0.1274 -0.625,-0.1875 -10.1459,-2.8336 -19.5775,-7.3829 -27.9376,-13.3438 2.8959,0.2522 5.8201,0.375 8.7813,0.375 13.2991,0 25.9865,-2.5994 37.5937,-7.3125 z"
           id="path5603" />
      </g>
      <path
         style="fill:none;stroke:#ff0000;stroke-opacity:1"
         d="m 217.91957,162.66817 c 0,43.7945 -35.50246,79.29697 -79.29697,79.29697 -43.794515,0 -79.29698,-35.50247 -79.29698,-79.29697 0,-43.79451 35.502465,-79.296979 79.29698,-79.296979 43.79451,0 79.29697,35.502469 79.29697,79.296979 z"
         id="path5426-4"
         inkscape:connector-curvature="0" />
    </g>
  </g>
</svg>
