<?xml version="1.0" encoding="UTF-8" standalone="no"?>
<!-- Created with Inkscape (http://www.inkscape.org/) -->

<svg
   xmlns:sketch="http://www.bohemiancoding.com/sketch/ns"
   xmlns:dc="http://purl.org/dc/elements/1.1/"
   xmlns:cc="http://creativecommons.org/ns#"
   xmlns:rdf="http://www.w3.org/1999/02/22-rdf-syntax-ns#"
   xmlns:svg="http://www.w3.org/2000/svg"
   xmlns="http://www.w3.org/2000/svg"
   xmlns:sodipodi="http://sodipodi.sourceforge.net/DTD/sodipodi-0.dtd"
   xmlns:inkscape="http://www.inkscape.org/namespaces/inkscape"
   width="5in"
   height="5in"
   viewBox="0 0 450 450.00001"
   id="svg2"
   version="1.1"
   inkscape:version="0.91pre4 r13712"
   sodipodi:docname="AmericanCockroach.svg"
   inkscape:export-filename="C:\Users\steve\Documents\GitHub\BurnignMan2015\stencils\AmericanCockroach.png"
   inkscape:export-xdpi="90"
   inkscape:export-ydpi="90">
  <defs
     id="defs4" />
  <sodipodi:namedview
     id="base"
     pagecolor="#ffffff"
     bordercolor="#666666"
     borderopacity="1.0"
     inkscape:pageopacity="0.0"
     inkscape:pageshadow="2"
     inkscape:zoom="0.98994949"
     inkscape:cx="3.0906943"
     inkscape:cy="353.52015"
     inkscape:document-units="px"
     inkscape:current-layer="layer1"
     showgrid="false"
     inkscape:window-width="1920"
     inkscape:window-height="1017"
     inkscape:window-x="1912"
     inkscape:window-y="-8"
     inkscape:window-maximized="1"
     units="in" />
  <metadata
     id="metadata7">
    <rdf:RDF>
      <cc:Work
         rdf:about="">
        <dc:format>image/svg+xml</dc:format>
        <dc:type
           rdf:resource="http://purl.org/dc/dcmitype/StillImage" />
        <dc:title></dc:title>
      </cc:Work>
    </rdf:RDF>
  </metadata>
  <g
     inkscape:label="Layer 1"
     inkscape:groupmode="layer"
     id="layer1"
     transform="translate(0,-602.36215)">
    <g
       id="g3367"
       transform="matrix(1.4917882,0,0,1.4917882,282.39797,205.05002)">
      <g
         id="g3353"
         sketch:type="MSPage"
         style="fill:none;fill-rule:evenodd;stroke:none;stroke-width:1"
         transform="matrix(0.60627712,0,0,0.60627712,-81.521627,335.57715)">
        <path
           id="path3355"
           sketch:type="MSShapeGroup"
           d="M 71,0 C 41.147946,-3e-6 15,7.59375 15,7.59375 L 22.636364,70.875 c 0,0 19.499822,10.124997 48.363636,10.125 28.863814,5e-6 48.36364,-10.125 48.36364,-10.125 L 127,7.59375 C 127,7.59375 100.85205,3e-6 71,0 l 0,0 z m 0,130 C 13.235735,130 4e-6,119.16658 0,109.09995 -6e-6,99.033315 22.821429,94 22.821429,94 22.821429,94 42.246634,104.06663 71,104.06663 99.753366,104.06664 119.17857,94 119.17857,94 119.17857,94 142,99.033315 142,109.09995 142,119.16658 128.76426,130 71,130 l 0,0 z M 71,84.89698 C 42.582648,84.896979 23,76 23,76 l 1.263158,15.251965 c 0,0 27.113487,8.748035 46.736842,8.748035 19.623355,0 46.73684,-8.748035 46.73684,-8.748035 L 119,76 c 0,0 -19.582648,8.89698 -48,8.89698 l 0,0 z"
           inkscape:connector-curvature="0"
           style="fill:#000000" />
      </g>
    </g>
    <text
       xml:space="preserve"
       style="font-style:normal;font-weight:normal;font-size:60px;line-height:125%;font-family:sans-serif;text-align:center;letter-spacing:0px;word-spacing:0px;text-anchor:middle;fill:#000000;fill-opacity:1;stroke:none;stroke-width:1px;stroke-linecap:butt;stroke-linejoin:miter;stroke-opacity:1"
       x="220.575"
       y="633.5589"
       id="text3373"
       sodipodi:linespacing="125%"><tspan
         sodipodi:role="line"
         x="225.81914"
         y="633.5589"
         style="font-style:normal;font-variant:normal;font-weight:normal;font-stretch:normal;font-size:30px;font-family:'Core Circus 3D';-inkscape-font-specification:'Core Circus 3D'"
         id="tspan3376">WHAT IF march </tspan><tspan
         sodipodi:role="line"
         x="220.575"
         y="671.0589"
         style="font-style:normal;font-variant:normal;font-weight:normal;font-stretch:normal;font-size:30px;font-family:'Core Circus 3D';-inkscape-font-specification:'Core Circus 3D'"
         id="tspan3397">really has 32 days</tspan></text>
    <text
       xml:space="preserve"
       style="font-style:normal;font-weight:normal;font-size:60px;line-height:125%;font-family:sans-serif;text-align:center;letter-spacing:0px;word-spacing:0px;text-anchor:middle;fill:#000000;fill-opacity:1;stroke:none;stroke-width:1px;stroke-linecap:butt;stroke-linejoin:miter;stroke-opacity:1"
       x="223.05293"
       y="1013.4188"
       id="text3379"
       sodipodi:linespacing="125%"><tspan
         sodipodi:role="line"
         x="227.42305"
         y="1013.4188"
         style="font-style:normal;font-variant:normal;font-weight:normal;font-stretch:normal;font-size:25px;font-family:'Core Circus 3D';-inkscape-font-specification:'Core Circus 3D'"
         id="tspan3380">and april 1st is just </tspan><tspan
         sodipodi:role="line"
         x="227.42305"
         y="1044.6688"
         style="font-style:normal;font-variant:normal;font-weight:normal;font-stretch:normal;font-size:25px;font-family:'Core Circus 3D';-inkscape-font-specification:'Core Circus 3D'"
         id="tspan3401">a prank </tspan></text>
    <flowRoot
       xml:space="preserve"
       id="flowRoot3351"
       style="font-style:normal;font-weight:normal;font-size:60px;line-height:125%;font-family:sans-serif;letter-spacing:0px;word-spacing:0px;fill:#000000;fill-opacity:1;stroke:none;stroke-width:1px;stroke-linecap:butt;stroke-linejoin:miter;stroke-opacity:1"
       transform="translate(0,332.36215)"><flowRegion
         id="flowRegion3353"><rect
           id="rect3355"
           width="270.72089"
           height="353.55341"
           x="-269.71072"
           y="22.994741" /></flowRegion><flowPara
         id="flowPara3357" /></flowRoot>    <path
       style="fill:#000000"
       d="m 196.43282,981.77113 c -2.1537,-0.36031 -3.40603,-1.04348 -4.96196,-2.70691 l -1.2298,-1.31477 1.35425,-1.41351 c 1.34168,-1.40043 1.39294,-1.40983 5.53043,-1.01441 4.68539,0.4478 9.92058,1.89766 12.41499,3.43827 1.61828,0.99949 2.53182,2.30834 1.98961,2.85056 -0.37486,0.37486 -13.01332,0.50944 -15.09752,0.16077 z m 41.73697,-0.58164 c -0.57743,-0.9343 2.64755,-3.22445 6.16821,-4.3802 1.78504,-0.58599 5.31385,-1.29974 7.8418,-1.5861 l 4.59627,-0.52068 1.46888,1.38639 1.46887,1.38637 -1.37828,1.46772 c -2.31249,2.46253 -3.79307,2.80537 -12.15626,2.81487 -5.19337,0.006 -7.76747,-0.17677 -8.00949,-0.56837 z m -55.0108,-5.45267 c -2.93516,-1.1465 -9.19453,-5.83525 -11.91339,-8.92403 -1.07254,-1.21848 -2.46282,-3.58649 -3.08951,-5.26224 -1.08847,-2.91054 -1.09978,-3.09064 -0.25275,-4.0266 0.4877,-0.53889 1.66907,-1.238 2.62528,-1.55358 2.80467,-0.92562 4.02756,0.0971 15.08864,12.61866 2.78276,3.15019 5.12541,5.90217 5.20588,6.1155 0.19164,0.50806 -3.06714,2.0466 -4.27044,2.01617 -0.51449,-0.013 -2.04166,-0.45577 -3.39371,-0.98388 z m 77.62915,-0.0445 -2.13215,-0.9546 5.47419,-6.20657 c 7.21746,-8.18308 11.56724,-12.45321 13.06959,-12.83028 1.72533,-0.43303 5.01221,1.26062 5.21503,2.68718 0.0879,0.61768 -0.54273,2.59479 -1.40122,4.39358 -2.41621,5.06272 -9.99037,11.45931 -15.50927,13.09802 -2.40361,0.71369 -2.73288,0.70061 -4.71617,-0.18733 z m -61.93272,-11.51096 c -4.27828,-1.73492 -8.30544,-4.95872 -11.16804,-8.94017 -2.37448,-3.3025 -3.00747,-4.75876 -2.43804,-5.60877 1.53991,-2.29863 6.6508,-1.42957 6.68464,1.13668 0.0141,1.07094 2.9927,3.12046 5.69389,3.91788 3.79209,1.11945 5.75353,2.4847 7.47921,5.20582 1.8923,2.98383 1.95562,4.56325 0.20958,5.2271 -1.89563,0.72071 -2.63409,0.61344 -6.46124,-0.93854 z m 44.82046,0.59092 c -0.90465,-0.36503 -0.78524,-1.42421 0.43514,-3.85922 1.68574,-3.3636 3.3485,-4.78639 6.98219,-5.97451 3.9862,-1.30338 6.24802,-2.88316 7.11106,-4.96674 0.47686,-1.15123 1.06667,-1.61701 2.35318,-1.85838 2.00436,-0.37601 4.24215,0.80715 4.24215,2.24291 0,1.39448 -4.09496,6.96654 -6.96464,9.47686 -4.3838,3.83485 -11.09442,6.1757 -14.15908,4.93908 z m -78.98017,-10.35685 c -2.39841,-3.84045 -2.86345,-10.58647 -1.11634,-16.19396 1.23001,-3.94786 3.41775,-9.03708 3.88483,-9.03708 0.17993,0 1.18795,0.2579 2.24004,0.57311 1.67792,0.50272 1.98033,0.84099 2.46199,2.75384 0.94315,3.74559 0.6313,6.47284 -1.46892,12.8461 -1.10992,3.36812 -1.99368,6.2868 -1.96391,6.48594 0.20223,1.35309 -0.26034,2.20758 -1.55847,2.87886 -1.85075,0.95708 -1.67645,0.97865 -2.47922,-0.30681 z m 117.49075,-0.16459 c -0.6766,-0.47392 -1.1608,-1.52554 -1.35511,-2.94317 -0.16628,-1.21318 -1.15226,-4.77097 -2.19107,-7.90619 -1.82616,-5.51154 -1.86988,-5.81049 -1.31962,-9.0229 0.65002,-3.79478 1.25592,-4.60649 3.73941,-5.00951 l 1.77062,-0.28733 1.61985,3.85898 c 3.38119,8.055 3.88165,14.10004 1.60537,19.3914 -1.21063,2.81421 -2.01882,3.21495 -3.86945,1.91872 z m -67.72962,-1.80354 c -7.04483,-1.41404 -10.15905,-3.92136 -12.69278,-10.21919 -0.81072,-2.01511 -2.30579,-4.77121 -3.32239,-6.12464 -1.6073,-2.13989 -1.79075,-2.66163 -1.4067,-4.00072 0.2429,-0.84696 0.82004,-1.95806 1.28255,-2.46911 0.80996,-0.89501 0.88965,-0.89582 2.16565,-0.0222 0.72859,0.4989 2.28053,1.18169 3.44872,1.51729 1.66925,0.47955 2.59243,1.23039 4.31198,3.50703 2.04386,2.70601 4.60962,4.69537 10.72604,8.31641 1.27454,0.75455 2.31735,1.61204 2.31735,1.90552 0,0.29349 -0.79688,0.91362 -1.77085,1.37807 -0.97397,0.46446 -1.77086,1.03208 -1.77086,1.26138 0,0.22931 1.13841,1.1174 2.5298,1.97353 1.39138,0.85612 2.52979,1.75673 2.52979,2.00134 0,1.36743 -4.0419,1.83958 -8.3483,0.9752 z m 13.53436,-0.0862 c -0.62613,-0.30981 -1.13841,-0.73666 -1.13841,-0.94855 0,-0.21188 1.13841,-1.08572 2.52979,-1.94184 1.39138,-0.85613 2.52979,-1.76389 2.52979,-2.01725 0,-0.25336 -0.79689,-0.93083 -1.77086,-1.50549 -0.97397,-0.57465 -1.76909,-1.22326 -1.76695,-1.44135 0.004,-0.40935 2.78625,-2.14125 6.31124,-3.92866 2.04497,-1.03693 6.15416,-4.89426 8.23748,-7.73257 0.6909,-0.94127 1.79418,-1.69473 2.78277,-1.90042 0.90091,-0.18746 2.39099,-0.77411 3.3113,-1.3037 0.92031,-0.5296 1.77746,-0.96289 1.90478,-0.96289 0.47622,0 2.23674,3.3248 2.23856,4.2276 0.001,0.51639 -0.60308,1.65479 -1.34251,2.52979 -0.73941,0.875 -2.41776,3.86771 -3.72964,6.65048 -1.31187,2.78277 -3.06512,5.69725 -3.89612,6.47662 -2.92305,2.74148 -13.3817,5.19341 -16.20122,3.79823 z m -38.0733,-5.51227 c -0.97397,-0.24551 -2.28314,-0.33172 -2.90926,-0.19155 -1.65994,0.3716 -1.45349,-0.89247 0.50596,-3.09786 0.9044,-1.01792 2.57183,-3.35957 3.70542,-5.20367 2.52559,-4.10859 3.52426,-4.41083 5.73616,-1.73594 2.7907,3.37483 3.21388,7.2373 0.79295,7.2373 -0.35538,0 -1.83031,0.79688 -3.27761,1.77084 -1.44732,0.97397 -2.66552,1.74755 -2.70712,1.71907 -0.0416,-0.0285 -0.87254,-0.25267 -1.8465,-0.49819 z m 64.76256,-1.71893 c -4.77634,-2.94818 -4.64535,-2.78454 -3.96438,-4.95262 0.69832,-2.2233 4.1071,-6.13593 5.07312,-5.82296 0.36415,0.11798 1.57406,1.7215 2.68867,3.56339 1.11463,1.84189 2.62365,3.98868 3.3534,4.77063 0.72975,0.78196 1.59032,1.93403 1.9124,2.56015 0.52813,1.02672 0.46667,1.13841 -0.62649,1.13841 -0.66665,0 -2.2115,0.10367 -3.43303,0.23032 -1.86992,0.19392 -2.66074,-0.0411 -5.00369,-1.48732 z m -33.05586,-5.33576 c -4.64787,-1.43808 -9.7802,-4.75071 -10.96819,-7.07934 l -1.01408,-1.98778 1.43295,-1.60375 1.43294,-1.60373 11.09347,-0.12304 c 6.10139,-0.0677 11.49074,-0.2862 11.97632,-0.48564 0.62881,-0.25827 1.39318,0.14771 2.65627,1.41079 0.97538,0.97539 1.77256,2.08078 1.77152,2.45645 -0.008,2.96783 -6.8289,7.6728 -13.69089,9.44411 -1.35019,0.34853 -2.52765,0.24107 -4.69031,-0.42807 z m -29.46094,-9.96511 c -0.74412,-1.32854 -2.20008,-3.68806 -3.23546,-5.24337 l -1.88252,-2.82783 1.3731,-1.53676 c 0.75521,-0.84523 1.48533,-1.84951 1.6225,-2.23175 0.40656,-1.13291 3.26694,1.93032 5.19769,5.56628 l 1.7128,3.22553 -1.24013,1.82502 c -0.68207,1.00375 -1.24012,2.10024 -1.24012,2.43663 0,1.55085 -1.0765,0.98471 -2.30786,-1.21375 z m 63.27486,0.87045 c -0.17711,-0.55805 -0.86723,-1.66257 -1.53357,-2.45448 l -1.21155,-1.43984 1.72114,-3.23754 c 1.6581,-3.11896 5.32549,-7.3453 5.32549,-6.13716 0,0.32318 0.69551,1.37975 1.5456,2.34794 l 1.54559,1.76035 -1.67208,2.50099 c -0.91965,1.37554 -2.29815,3.665 -3.06333,5.08769 -1.49769,2.78464 -2.14995,3.17051 -2.65729,1.57205 z m -52.37736,-3.15951 c -1.79674,-1.07449 -3.59663,-2.78408 -5.19363,-4.93308 -1.34418,-1.8088 -3.34122,-4.20806 -4.43787,-5.33171 -1.09664,-1.12364 -1.99389,-2.20358 -1.99389,-2.39986 0,-0.91769 4.40383,-5.92565 5.21231,-5.92735 0.50143,-0.001 1.8139,0.51035 2.91663,1.13647 1.55861,0.88498 2.12265,1.58895 2.53365,3.16224 0.29079,1.1131 0.64924,2.43772 0.79656,2.94358 0.14732,0.50585 2.06905,2.73065 4.27052,4.94399 2.20147,2.21334 4.00267,4.19628 4.00267,4.40654 0,0.95138 -3.07968,3.64355 -4.16801,3.64355 -0.65412,0 -2.42665,-0.73996 -3.93894,-1.64437 z m 37.326,0.26168 c -0.76527,-0.8005 -1.39139,-1.83083 -1.39139,-2.28965 0,-0.4588 1.80021,-2.64167 4.00046,-4.85082 3.56119,-3.57558 4.06235,-4.31477 4.56414,-6.73191 0.5224,-2.51636 0.74445,-2.81688 3.03103,-4.10223 1.35703,-0.76282 2.69703,-1.38696 2.97775,-1.38696 0.42033,0 3.24021,3.47742 4.78201,5.89711 0.23427,0.36768 -0.42713,1.36933 -1.71052,2.59048 -1.15087,1.09507 -3.25805,3.55197 -4.68262,5.45981 -2.65095,3.55025 -5.92127,6.03112 -8.66161,6.57072 -1.23083,0.24237 -1.78099,0.0236 -2.90925,-1.15655 z m -70.58107,0.006 c -1.18268,-0.40871 -2.15032,-1.04678 -2.15032,-1.41792 0,-1.47604 2.72243,-3.25213 6.5728,-4.28805 1.2497,-0.33621 2.93442,-1.08286 3.74383,-1.6592 l 1.47164,-1.04791 0.93629,1.15627 c 0.51496,0.63595 0.93629,1.44804 0.93629,1.80466 0,0.35661 -1.37906,1.92515 -3.06458,3.48565 -3.3807,3.12993 -4.39576,3.36627 -8.44595,1.96652 z m 102.90203,-1.14974 c -1.34478,-1.11127 -2.88783,-2.58337 -3.42899,-3.27135 -0.92775,-1.17944 -0.93595,-1.32408 -0.14376,-2.53314 1.00456,-1.53314 1.41631,-1.57635 3.17548,-0.33326 0.73866,0.52196 2.13989,1.11894 3.11385,1.32664 3.61633,0.77118 7.85404,3.83311 6.69926,4.84052 -0.49195,0.42913 -5.43221,1.99107 -6.29764,1.99107 -0.37023,0 -1.77342,-0.90922 -3.1182,-2.02048 z m -53.95453,-1.48738 c -4.80755,-0.363 -6.88871,-1.56269 -11.31657,-6.52343 -3.68808,-4.13192 -4.09931,-4.95356 -3.39991,-6.7931 l 0.48414,-1.27337 4.46183,0.91464 c 7.96115,1.63196 10.18973,1.7196 13.36408,0.5255 2.69571,-1.01405 2.92502,-1.02513 4.8066,-0.23236 2.62378,1.1055 6.9553,0.99458 13.09348,-0.33532 4.07166,-0.88215 5.0371,-0.95373 5.38843,-0.39949 0.59806,0.94347 0.54573,2.31823 -0.1377,3.61773 -0.94689,1.80047 -6.50732,7.59331 -8.44368,8.79661 -2.42835,1.50902 -10.68772,2.27742 -18.3007,1.70259 z m -37.73729,-5.81555 -2.07116,-2.06579 1.42183,-2.27423 c 0.782,-1.25083 1.56027,-2.95727 1.72947,-3.7921 0.50566,-2.49488 0.7868,-3.28872 1.16472,-3.28872 0.4387,1e-5 5.64483,6.89869 5.64483,7.48003 0,0.86826 -3.00933,4.4438 -4.38353,5.2083 -1.41296,0.78607 -1.46678,0.76661 -3.50616,-1.26747 z m 83.71932,0.58811 c -1.00916,-0.90025 -2.32189,-2.36002 -2.91719,-3.24394 l -1.08233,-1.6071 2.61317,-3.45247 c 1.43723,-1.89885 2.85832,-3.45247 3.15797,-3.45247 0.29964,0 0.73817,0.68304 0.97451,1.51787 0.23634,0.83484 1.1064,2.85793 1.93347,4.49576 l 1.50375,2.9779 -1.79479,1.64396 c -0.98714,0.9042 -1.79479,1.89788 -1.79479,2.20819 0,0.91889 -0.65005,0.6463 -2.59377,-1.08768 z m -76.18043,-8.59372 c -0.56824,-0.62612 -1.43078,-1.7642 -1.91677,-2.52907 -0.48599,-0.76486 -1.98016,-2.1956 -3.32041,-3.17943 -1.71739,-1.26069 -2.6894,-2.45021 -3.29246,-4.0293 -1.06794,-2.79638 -0.72901,-3.79657 1.28654,-3.79657 1.22438,0 2.38468,0.78516 5.58957,3.78233 2.37666,2.22264 4.71884,3.95707 5.67989,4.20611 2.26238,0.58624 2.29665,1.78316 0.12687,4.43109 -2.09653,2.55854 -2.69679,2.71966 -4.15323,1.11484 z m 68.2343,-1.68206 c -1.89109,-2.58718 -1.83539,-3.46297 0.2534,-3.98411 1.74638,-0.43572 6.36244,-3.92057 7.50694,-5.6673 0.92178,-1.4068 4.01985,-2.92163 5.11543,-2.50122 1.02885,0.39481 0.85274,3.34701 -0.3044,5.10254 -0.54868,0.83241 -1.85238,2.15082 -2.8971,2.92979 -1.04473,0.77897 -2.70806,2.48855 -3.69628,3.79907 -2.46642,3.27082 -3.77076,3.34091 -5.97799,0.32123 z m -40.56181,0.46163 c -9.41066,-1.62348 -14.97568,-3.02463 -18.9734,-4.77712 -6.73459,-2.95226 -8.95759,-4.19393 -9.9942,-5.58236 -1.11935,-1.49924 -1.20058,-2.63795 -0.35601,-4.9902 0.34971,-0.97397 0.84888,-2.37745 1.1093,-3.11883 0.58926,-1.67768 2.13433,-2.2805 6.92301,-2.70109 2.06447,-0.18132 4.91048,-0.76472 6.32447,-1.29645 3.5756,-1.3446 7.7748,-4.80206 10.14457,-8.35267 2.82883,-4.23838 4.83501,-6.28713 6.15655,-6.28713 0.62468,0 1.26172,-0.20378 1.41565,-0.45284 0.16412,-0.26555 1.14519,-0.25843 2.37208,0.0173 1.29746,0.29152 3.40769,0.28778 5.55527,-0.01 5.82899,-0.80777 6.78765,-0.25056 11.86615,6.89698 2.70648,3.80913 7.38003,7.37936 10.98763,8.39374 1.45469,0.40903 4.39008,0.89667 6.52307,1.08365 4.47283,0.39209 5.3072,1.00781 6.40432,4.72598 1.16745,3.95657 0.9663,5.16285 -1.16867,7.0084 -1.04416,0.90259 -3.06655,2.0268 -4.49422,2.49823 -1.42768,0.47144 -3.88201,1.50821 -5.45408,2.30396 -3.23987,1.63992 -15.88095,4.46658 -19.90979,4.452 -1.39138,-0.005 -3.44051,-0.42591 -4.55361,-0.93527 -1.93119,-0.88371 -2.10488,-0.88588 -3.79468,-0.0474 -1.97027,0.9777 -5.15343,1.50392 -7.08341,1.17096 z m -36.68191,-14.92716 c -8.99461,-4.96543 -12.05876,-9.20164 -13.4277,-18.56383 -0.48347,-3.30647 -0.48069,-5.01561 0.0132,-8.07845 0.61049,-3.78625 2.40181,-9.47494 3.91733,-12.44013 l 0.75236,-1.47203 2.05403,3.24287 c 1.12971,1.78359 2.41427,3.50518 2.85456,3.82577 1.29865,0.94559 4.6259,8.12702 4.65529,10.04784 0.008,0.55346 -0.23611,1.99931 -0.54352,3.21299 -0.90678,3.58016 0.0308,7.30821 2.51595,10.00429 2.35033,2.54982 3.02707,4.04381 3.02707,6.68277 0,2.61467 -1.17678,4.1311 -3.19092,4.11192 -0.88863,-0.008 -2.07104,-0.26677 -2.6276,-0.57401 z m 86.65498,0.26028 c -0.48163,-0.13601 -1.14379,-1.14216 -1.47148,-2.2359 -0.81624,-2.72435 0.0757,-5.51581 2.65739,-8.31661 2.88454,-3.12934 3.70576,-6.9707 2.45388,-11.47812 -0.41401,-1.49063 -0.33158,-2.41149 0.40758,-4.55363 1.23617,-3.58248 2.48934,-5.87625 3.95,-7.22995 0.66294,-0.61437 1.509,-1.66458 1.88017,-2.33378 1.60396,-2.89192 2.6566,-4.49928 2.94847,-4.50225 0.54581,-0.005 2.94536,6.0068 3.99178,10.00191 2.22353,8.48922 0.45264,18.65475 -4.21601,24.20138 -1.61385,1.91735 -8.42192,6.21291 -10.27459,6.48278 -0.79834,0.1163 -1.84558,0.10019 -2.32719,-0.0359 z m -75.09702,-8.81282 c -2.50161,-0.47816 -5.66581,-2.01972 -6.82757,-3.32633 -0.78783,-0.88606 -1.93862,-4.21886 -1.9448,-5.63236 -0.002,-0.50536 0.29915,-0.48941 1.38856,0.0735 2.42261,1.2517 5.63771,1.8931 9.48943,1.8931 4.27938,0 5.92304,-0.66312 8.27047,-3.33671 2.6768,-3.04871 2.06503,-6.79251 -1.72195,-10.5375 l -1.43798,-1.42202 2.75592,0.34274 c 5.53809,0.68874 9.67677,3.37982 10.6274,6.9102 0.65341,2.42655 -0.45678,5.14777 -3.49296,8.56172 -4.56815,5.13652 -11.12347,7.61729 -17.10652,6.4737 z m 59.22362,-0.65765 c -5.50275,-1.78816 -12.3435,-8.88793 -12.3435,-12.81091 0,-2.29043 1.12949,-4.36312 3.26538,-5.99224 1.99746,-1.52354 5.7002,-2.76628 8.24208,-2.76628 l 1.73344,0 -2.00342,2.27601 c -3.96153,4.50053 -3.05519,9.36113 2.22184,11.91571 2.00618,0.97116 2.88118,1.08759 6.44743,0.85788 2.33006,-0.15009 5.3089,-0.71931 6.84309,-1.30763 l 2.71684,-1.04184 -0.32763,2.12472 c -0.44315,2.87402 -1.64912,4.41592 -4.6264,5.91519 -2.98443,1.50287 -8.86358,1.90356 -12.16915,0.82939 z m -62.43329,-9.02087 c -2.99429,-0.65491 -4.34792,-1.99273 -5.07257,-5.01341 -0.32705,-1.36328 -0.79943,-2.60527 -1.04975,-2.75998 -1.03064,-0.63697 -0.30932,-1.12245 2.15309,-1.44909 2.021,-0.26809 2.98925,-0.72702 4.30064,-2.03842 0.93083,-0.93084 1.69243,-2.05925 1.69243,-2.5076 0,-0.64972 0.7959,-0.41404 3.92117,1.16112 5.60076,2.82283 7.92013,6.32836 6.34242,9.586 -1.50729,3.11221 -6.38657,4.31199 -12.28743,3.02138 z m 66.53341,0.14733 c -7.49055,-1.8614 -6.97578,-8.48368 0.97996,-12.60648 1.96551,-1.01857 3.73478,-1.92648 3.9317,-2.0176 0.19693,-0.0911 0.70102,0.65515 1.1202,1.6584 0.88519,2.11854 3.17104,3.30554 6.36565,3.30554 1.92703,0 2.02209,0.0669 1.49505,1.05167 -0.30956,0.57841 -0.881,2.12305 -1.26988,3.43254 -1.22392,4.12138 -1.92588,4.52408 -9.33395,5.35459 -0.97397,0.10919 -2.4539,0.0288 -3.28873,-0.17866 z m -33.00012,-7.04539 c -1.29393,-0.26815 -1.53066,-0.49469 -1.14615,-1.09688 1.38206,-2.16442 -0.0606,-5.56553 -2.3608,-5.56553 -1.6359,0 -3.37074,2.22117 -3.11195,3.98435 l 0.2218,1.51122 -1.5516,-0.7951 c -2.60506,-1.33495 -5.71422,-3.61101 -6.0195,-4.40656 -0.21005,-0.54737 0.73886,-1.24755 3.47292,-2.56258 4.13421,-1.98848 5.70417,-3.749 7.1055,-7.968 0.89968,-2.70868 1.37492,-3.06763 5.10415,-3.85514 2.07725,-0.43866 3.12724,-0.39929 5.11805,0.19192 2.41013,0.71573 2.54558,0.85603 3.58888,3.71736 0.59631,1.63546 1.56107,3.57978 2.14389,4.32073 1.19194,1.51531 5.81602,4.33191 7.12369,4.33918 1.08484,0.006 1.51481,0.69007 1.10502,1.75798 -0.30926,0.8059 -6.03777,4.82421 -6.87742,4.82421 -0.22826,0 -0.28395,-0.52213 -0.12378,-1.1603 0.74414,-2.96489 -3.82446,-5.24662 -5.5558,-2.77478 -0.97444,1.3912 -0.98656,2.27689 -0.0556,4.06157 0.70916,1.35947 0.6933,1.39138 -0.69143,1.39138 -0.7795,0 -2.41668,0.0951 -3.63819,0.21146 -1.22151,0.1163 -2.95478,0.0594 -3.8517,-0.12649 z m -42.28823,-6.7889 c -0.93646,-1.46096 -2.08187,-2.96876 -2.54534,-3.35067 -1.13987,-0.93928 -1.06087,-1.58242 0.19435,-1.58242 1.40486,0 3.861,-1.31909 4.46468,-2.39778 0.4318,-0.7716 0.8948,-0.50686 3.76053,2.15031 1.79745,1.66662 3.29478,3.44619 3.32739,3.95458 0.0326,0.5084 -0.60623,1.58987 -1.41966,2.4033 -1.20088,1.20088 -1.91143,1.47895 -3.77914,1.47895 -2.22129,0 -2.35855,-0.0911 -4.00281,-2.65627 z m 84.85078,1.94617 c -1.56195,-0.69228 -2.22604,-1.6585 -2.22604,-3.23883 0,-0.45674 1.38265,-2.22548 3.07256,-3.93055 l 3.07255,-3.10012 1.40493,1.40494 c 0.77271,0.77271 2.23915,1.56143 3.25876,1.75271 l 1.85382,0.34778 -1.6512,1.917 c -0.90817,1.05435 -2.10958,2.67912 -2.66982,3.6106 -0.80733,1.34232 -1.38452,1.71829 -2.78277,1.81266 -0.97028,0.0655 -2.47004,-0.1938 -3.33279,-0.57619 z m -72.13391,-3.85367 c -1.81269,-1.08561 -4.79184,-3.55969 -6.62029,-5.49797 -3.14666,-3.33561 -7.46078,-9.13324 -7.46078,-10.02633 0,-0.38091 4.84179,-3.69627 7.46684,-5.11283 2.69869,-1.4563 9.58188,-3.63307 12.93521,-4.09068 4.29397,-0.586 10.64532,0.0116 13.2477,1.24656 5.27934,2.50521 6.92719,9.67073 3.66461,15.93524 -2.38327,4.57614 -4.11472,5.75323 -11.01546,7.48863 -9.10377,2.28942 -8.49566,2.28656 -12.21783,0.0574 z m 57.76489,0.72382 c -7.2153,-1.54146 -9.61164,-2.38611 -11.60129,-4.08918 -5.57337,-4.7706 -6.49636,-13.7451 -1.92772,-18.74359 1.81459,-1.98531 5.58138,-2.88158 12.01114,-2.85794 5.39962,0.0198 6.16455,0.1508 10.6251,1.81884 5.74947,2.15004 9.32172,3.97053 11.80049,6.01373 l 1.83318,1.51106 -2.01396,2.95044 c -3.60228,5.27736 -10.22827,12.11127 -11.79289,12.16294 -0.23438,0.007 -1.00505,0.46944 -1.71258,1.026 -1.47144,1.15743 -2.62123,1.19049 -7.22147,0.2077 z m -75.58932,-6.99335 c -0.42292,-1.01216 -2.04202,-3.11339 -3.59803,-4.6694 -1.556,-1.55599 -2.76062,-2.8716 -2.67694,-2.92356 2.42884,-1.50804 3.04908,-2.09891 3.58694,-3.41704 l 0.64297,-1.57577 1.67686,1.67685 c 2.39128,2.39127 6.64134,8.57754 6.64134,9.66694 0,1.10384 -1.73484,2.3284 -3.91696,2.76483 -1.46019,0.29203 -1.64881,0.17013 -2.35618,-1.52285 z m 98.48652,1.1607 c -0.90295,-0.26076 -2.01391,-1.04213 -2.46879,-1.73637 -0.803,-1.22554 -0.76287,-1.35389 1.37977,-4.41334 4.43985,-6.33962 7.03139,-8.78176 7.03139,-6.62604 0,0.45412 0.82998,1.60844 1.84439,2.56516 l 1.84439,1.73948 -2.57201,2.45316 c -1.4146,1.34924 -3.04607,3.38246 -3.62551,4.51825 -0.57944,1.13579 -1.21965,2.04453 -1.42271,2.01944 -0.20306,-0.0251 -1.10796,-0.25899 -2.01092,-0.51974 z m -52.74869,-10.7189 c 0,-4.44301 -4.02569,-9.7676 -8.28687,-10.96066 -1.53732,-0.43042 -2.18401,-0.81498 -1.75417,-1.04313 0.72621,-0.38545 11.47904,-1.14059 16.11253,-1.13153 9.36834,0.0184 13.117,0.24734 13.94375,0.85188 0.80871,0.59135 0.7207,0.68857 -0.89833,0.99229 -3.85647,0.72349 -7.87873,5.30544 -8.74057,9.9568 l -0.33373,1.80118 -3.62992,-0.0303 c -1.99646,-0.0167 -4.25605,0.14478 -5.02131,0.35878 -1.23244,0.34467 -1.39138,0.25381 -1.39138,-0.79529 z m -57.04169,-3.71799 c -2.69031,-2.75685 -3.4617,-3.83109 -2.90458,-4.04487 0.41722,-0.1601 1.30901,-1.21413 1.98176,-2.34227 l 1.22317,-2.05117 3.57876,3.455 c 3.85557,3.72223 4.42023,5.23943 2.69332,7.23662 -1.77082,2.04796 -2.67877,1.73668 -6.57243,-2.25331 z m 118.12739,2.47981 c -0.43886,-0.48698 -0.95711,-1.5232 -1.15167,-2.30269 -0.31653,-1.26818 0.0161,-1.78713 3.16207,-4.93308 3.41902,-3.41904 4.7022,-4.20066 4.7022,-2.86426 0,0.35836 0.63997,1.41813 1.42215,2.35507 l 1.42216,1.70352 -3.46343,3.46344 c -3.59294,3.59294 -4.74107,4.07868 -6.09348,2.578 z m -127.67961,-9.80481 c -5.74029,-3.98199 -6.8994,-5.82849 -4.83275,-7.69879 1.5099,-1.36645 2.9016,-0.99091 7.38516,1.99284 4.17419,2.77788 4.24333,2.85739 3.73984,4.30169 -0.28213,0.80932 -1.14387,1.92075 -1.91499,2.46983 l -1.40202,0.99832 -2.97524,-2.06389 z m 138.40095,0.10409 c -0.81343,-0.81342 -1.47127,-1.8949 -1.46185,-2.40329 0.0108,-0.58051 1.48963,-1.91243 3.97569,-3.58062 4.5804,-3.07351 6.60877,-3.42878 7.94373,-1.39139 0.76751,1.17137 0.76757,1.35834 5e-4,2.52871 -0.95516,1.45777 -7.30877,6.28189 -8.30795,6.308 -0.36925,0.009 -1.33689,-0.64799 -2.15032,-1.46141 z"
       id="path3393"
       inkscape:connector-curvature="0" />
  </g>
</svg>
